<svg xmlns="http://www.w3.org/2000/svg" viewBox="0 0 1479 561"><defs><style>.a,.f,.g{fill:none;}.a,.b,.c,.e,.f,.g{stroke:#fff;stroke-linejoin:round;}.a,.b,.c,.e,.g{stroke-linecap:round;}.b,.c,.e{fill:#8edee3;}.c,.f,.g{fill-rule:evenodd;}.d{fill:#fff;}.e,.f{stroke-width:5px;}.f{stroke-linecap:square;}</style></defs><title>back-graph</title><line class="a" x1="375.96" y1="172.5" x2="400.3" y2="284"/><line class="a" x1="529.42" y1="130" x2="230.44" y2="114"/><line class="a" x1="210.58" y1="136" x2="389.87" y2="320.5"/><line class="a" x1="546.31" y1="169" x2="898.42" y2="126.5"/><line class="a" x1="886.01" y1="150" x2="1067.28" y2="95.5"/><line class="a" x1="417.18" y1="306" x2="626.27" y2="68.5"/><line class="a" x1="760.36" y1="153.5" x2="950.57" y2="295"/><line class="a" x1="961.5" y1="295" x2="1061.32" y2="169.5"/><line class="a" x1="1162.64" y1="338.5" x2="1461.12" y2="337"/><line class="a" x1="1163.63" y1="103.5" x2="1233.16" y2="178.5"/><line class="a" x1="1130.36" y1="234" x2="1478.5" y2="287.5"/><line class="a" x1="1222.73" y1="175" x2="1436.78" y2="186.5"/><ellipse class="b" cx="191.21" cy="110.5" rx="40.72" ry="41"/><path class="c" d="M504.41,272.65a31.82,31.82,0,1,1,31.82,32A31.92,31.92,0,0,1,504.41,272.65Z" transform="translate(0.5 -118)"/><ellipse class="b" cx="864.8" cy="118.97" rx="43.53" ry="43.82"/><ellipse class="d" cx="85.43" cy="179" rx="19.37" ry="19.5"/><ellipse class="e" cx="704.74" cy="102.5" rx="99.33" ry="100"/><polyline class="f" points="698.89 43.68 698.89 108.38 763.16 108.38"/><ellipse class="a" cx="1117.44" cy="76.5" rx="54.13" ry="55"/><ellipse class="d" cx="372.98" cy="162.5" rx="18.87" ry="19"/><ellipse class="d" cx="1148.73" cy="328.5" rx="15.89" ry="16"/><ellipse class="d" cx="993.28" cy="115" rx="11.42" ry="11.5"/><ellipse class="b" cx="326.79" cy="135.5" rx="48.17" ry="49"/><polyline class="g" points="151.97 131 72.02 180.5 176.31 256.5"/><polyline class="g" points="80.46 177 0.5 226.5 179.29 276.5"/><polyline class="g" points="961.5 298 1222.73 169 901.4 97.5"/><ellipse class="b" cx="1100.06" cy="274" rx="69.53" ry="70.5"/><path class="c" d="M1047.82,262.92a31.82,31.82,0,1,1,31.82,32A31.93,31.93,0,0,1,1047.82,262.92Z" transform="translate(0.5 -118)"/><ellipse class="b" cx="1226.21" cy="162.5" rx="26.82" ry="27"/><line class="a" x1="212.57" y1="297" x2="577.6" y2="560.5"/><line class="a" x1="295.5" y1="171.5" x2="222.99" y2="255.5"/><path class="c" d="M166.79,392.44a31.83,31.83,0,1,1,31.82,32A31.93,31.93,0,0,1,166.79,392.44Z" transform="translate(0.5 -118)"/><line class="a" x1="327.79" y1="185" x2="601.43" y2="554.5"/><ellipse class="b" cx="413.12" cy="289.53" rx="24.8" ry="24.97"/><ellipse class="d" cx="390.86" cy="312.5" rx="15.89" ry="16"/><line class="a" x1="1086.16" y1="343.09" x2="820.95" y2="556.5"/><line class="a" x1="811.02" y1="559.5" x2="949.08" y2="312.5"/><ellipse class="b" cx="956.53" cy="296" rx="19.37" ry="19.5"/></svg>