<svg xmlns="http://www.w3.org/2000/svg" width="80" height="80" viewBox="0 0 80 80">
  <defs>
    <style>
      .cls-1 {
        fill: #fff;
        fill-rule: evenodd;
      }
    </style>
  </defs>
  <path id="Checkmark" class="cls-1" d="M717.718,734.761l-23.9,23.9L683.234,748.07a1.9,1.9,0,0,0-2.693,2.693L692.475,762.7a1.906,1.906,0,0,0,2.693,0l25.244-25.244A1.9,1.9,0,1,0,717.718,734.761ZM700,784.19c-19.617,0-36.19-16.573-36.19-36.19s16.573-36.19,36.19-36.19,36.19,16.573,36.19,36.19S719.617,784.19,700,784.19ZM700,708c-21.682,0-40,18.317-40,40s18.318,40,40,40,40-18.317,40-40S721.681,708,700,708Z" transform="translate(-660 -708)"/>
</svg>
