<svg xmlns="http://www.w3.org/2000/svg" viewBox="0 0 124 157" fill="none">
    <path d="M26.7949 111.962V9.4624H96.7949V111.962L60.7949 93.9624L26.7949 111.962Z" fill="white"/>
    <path d="M26.7949 111.962V9.4624H96.7949V111.962L60.7949 93.9624L26.7949 111.962Z" stroke="#E30613"/>
    <path d="M91.8979 42.2308C91.3861 42.8213 91.0385 43.8136 90.3623 45.4396C89.6909 47.0673 82.3781 45.3692 82.3781 45.3692C82.3291 46.5712 80.8157 48.4821 79.8631 48.8358C78.9041 49.1895 78.3496 50.4154 77.7193 51.4781C77.089 52.5392 75.6387 55.0183 75.6387 55.0183C75.6387 55.0183 74.3654 55.0183 73.6308 54.9655C72.8993 54.9126 72.3907 56.4315 72.3907 56.4315L70.5913 56.3274L70.2785 55.2295L70.5913 54.3285L69.4744 54.1348L68.2342 55.7977L66.0889 55.1591L61.9324 51.1948L57.479 52.9473L53.7728 53.3714L53.915 54.0452L54.2104 55.2984C54.2104 55.2984 54.3858 57.1757 54.509 57.7774C54.6306 58.3776 55.2073 58.7153 55.6417 58.9089C56.0793 59.1026 56.0477 59.0866 56.2547 59.3523C56.4632 59.6163 56.7965 60.0597 57.8439 60.4134C58.8929 60.7671 59.0999 63.8271 59.0999 63.8271L61.4933 64.3216L61.6876 66.7639L60.062 68.0235L59.2752 69.8976L55.1741 70.3425L53.3052 68.2011L49.6353 68.6044L48.4126 69.8432L47.8565 73.9147L42.9465 75.8416L43.313 79.0985L43.0539 79.4362L40.6748 80.4957L40.1708 80.3388L40.4662 78.0214L39.3825 77.2596L36.3635 78.5527L33.9859 74.7661L35.1755 73.8282L39.174 75.1742L39.7838 74.1659L39.1376 73.5818L38.7885 71.9557C38.7885 71.9557 40.4662 70.6258 41.076 69.9392C41.6906 69.2478 43.2783 69.3902 44.4331 69.4622C45.5832 69.5311 45.7427 69.195 45.4947 67.6922C45.253 66.1893 43.193 65.8693 42.719 65.8693C42.2451 65.8693 40.8865 66.223 40.2925 66.7543C39.7 67.2856 36.828 68.4604 36.828 68.4604L34.5926 64.3424H32.8453L31.2734 61.4873C31.2734 61.4873 33.1724 60.8999 34.5199 60.2373C35.8706 59.5763 38.2719 57.8799 38.2719 57.8799L38.7364 56.2042L42.9165 54.8246L44.7696 52.0767L49.1804 50.7067L49.8549 50.0825L50.6053 48.1812L51.5469 45.7997C51.5469 45.7997 51.0887 45.6093 50.4173 45.2444C49.7412 44.8811 49.9165 44.1001 49.5437 43.5207C49.1709 42.943 46.9955 41.469 46.9955 41.469L41.4868 41.3617L40.4789 40.299L40.8865 37.4166L43.9418 37.5031L44.678 38.6714L47.6811 37.5191L48.223 35.0608L50.6322 34.7599L51.0666 35.3281L52.5343 35.0608L53.5137 32.849L56.0493 32.0872L56.6939 28.531L55.8013 28.0365L56.2562 25.1877C56.2562 25.1877 57.4142 25.7654 58.3242 25.9527C59.231 26.1431 59.8376 23.8801 59.8376 23.8801H60.3479L60.9767 25.647L63.8187 26.476C63.8187 26.476 63.9103 26.9002 64.1189 27.7724C64.3306 28.6478 63.3306 28.8111 62.8629 29.2592C62.3985 29.7105 61.4696 35.6306 61.4696 35.6306L57.5106 35.9122C57.5106 35.9122 57.3447 39.1451 57.6954 39.406C58.0446 39.6637 58.836 41.9075 58.836 41.9075C58.836 41.9075 64.5644 41.1025 65.4949 40.9152C66.4285 40.7248 66.566 42.282 67.2184 42.7077C67.8709 43.1318 68.4285 44.4042 68.4285 44.4042L72.0147 45.1356C72.0147 45.1356 72.111 44.8283 72.0368 44.0969C71.9673 43.3655 72.6434 42.9654 73.3654 42.33C74.0889 41.6914 75.9736 40.4191 77.1869 40.1358C78.3939 39.8525 80.2122 37.6807 80.2122 37.6807L86.5693 34.307L86.6609 32.961L85.2896 31.2886L86.1964 28.4094L87.5946 28.3389C87.5946 28.3389 88.4761 30.7892 88.8489 31.575C89.2217 32.3593 88.9405 32.4201 88.5456 32.6793C88.1506 32.937 88.4318 33.598 88.4318 34.1662C88.4318 34.7343 89.1759 35.4609 90.2486 35.8866C91.3197 36.3139 92.5061 38.1272 93.0164 38.8122C93.5314 39.4972 92.4129 41.645 91.8995 42.2324L91.8979 42.2308Z" fill="#E30613"/>
    <path d="M91.742 42.09C91.6978 42.1604 91.7025 42.1892 91.7547 42.1556C91.8068 42.122 91.8984 42.0372 92.0169 41.8483C92.0469 41.7411 92.0722 41.6338 92.0959 41.5266C91.9869 41.7251 91.87 41.9235 91.7404 42.09H91.742Z" fill="#6B562F"/>
    <path d="M93.1244 39.4667C93.1244 39.3339 93.107 39.1946 93.066 39.0826C93.0454 39.0266 93.0185 38.977 92.9901 38.9386C92.9601 38.9002 92.9301 38.8762 92.8937 38.8426C92.7547 38.7225 92.6773 38.6953 92.7421 38.865C92.7847 38.905 92.8242 38.9418 92.859 38.9754C92.8827 38.9994 92.9032 39.0282 92.919 39.0602C92.9506 39.1226 92.968 39.193 92.9775 39.2667C92.9964 39.4155 93.0028 39.5804 92.9949 39.8668C92.8937 40.3054 92.7089 40.595 92.7058 40.5102C92.6757 40.6703 92.404 41.1344 92.3408 41.3744C92.5162 41.1392 92.6836 40.8463 92.8195 40.515C92.9522 40.1853 93.0596 39.8076 93.0596 39.4283C93.0896 39.2683 93.1118 39.4251 93.126 39.4667H93.1244Z" fill="#6B562F"/>
    <path d="M68.5534 44.3226L68.5613 44.3418L68.457 44.257L68.7145 44.321C68.645 44.3002 68.5581 44.2778 68.457 44.2554L68.5613 44.3402C68.5613 44.3402 68.5566 44.329 68.5534 44.321V44.3226Z" fill="#6B562F"/>
    <path d="M62.7587 30.0626C62.7065 30.2626 62.6955 30.3491 62.7018 30.3619C62.7429 30.173 62.7792 30.021 62.7587 30.0626Z" fill="#6B562F"/>
    <path d="M63.4795 26.0376C63.5743 26.068 63.6548 26.0936 63.7417 26.1208C63.6438 26.0824 63.5443 26.0472 63.4795 26.0376Z" fill="#6B562F"/>
    <path d="M68.5537 44.3225C68.4589 44.0872 68.3515 43.8616 68.233 43.6391C68.1777 43.6119 68.4084 43.9816 68.5537 44.3225Z" fill="#6B562F"/>
    <path d="M88.9092 35.4146C89.0403 35.517 89.1556 35.589 89.2662 35.6466C89.1525 35.5762 89.0466 35.5026 88.9392 35.4178C88.9297 35.4178 88.9218 35.4178 88.9092 35.4146Z" fill="#6B562F"/>
    <path d="M77.6328 39.6942C77.6928 39.659 77.7529 39.6269 77.8129 39.5885C77.8587 39.5437 77.8982 39.4989 77.9346 39.4541L77.786 39.5805L77.6328 39.6942Z" fill="#6B562F"/>
    <path d="M85.3345 34.6782C85.1481 34.7727 85.1244 34.8863 85.0723 34.9583C85.1592 34.8703 85.2887 34.7823 85.4467 34.6894C85.4419 34.6734 85.4088 34.667 85.3345 34.6766V34.6782Z" fill="#6B562F"/>
    <path d="M88.4355 33.334C88.4466 33.4172 88.464 33.5036 88.4798 33.5885C88.4671 33.5212 88.4466 33.4092 88.4355 33.334Z" fill="#6B562F"/>
    <path d="M72.0085 43.2727C71.9879 43.2807 71.9562 43.308 71.9277 43.3417C71.9372 43.3481 71.9673 43.3176 72.0085 43.2727Z" fill="#6B562F"/>
    <path d="M83.5319 45.1804C83.5239 45.1853 83.5319 45.1918 83.5303 45.1966C83.5847 45.1966 83.6023 45.195 83.5319 45.1804Z" fill="#6B562F"/>
    <path d="M91.9153 42.2468L91.8252 42.3653C91.8299 42.3893 91.8331 42.4117 91.8457 42.4213C91.8663 42.3621 91.8916 42.306 91.9153 42.2468Z" fill="#6B562F"/>
    <path d="M57.5879 25.2805C57.6021 25.2869 57.6069 25.2885 57.6211 25.2933C57.8264 25.3541 57.7111 25.3157 57.5879 25.2805Z" fill="#6B562F"/>
    <path d="M34.7731 65.4387C34.4161 64.6129 35.5567 66.6694 34.9911 65.4419C35.0212 65.5683 34.285 64.4336 34.7731 65.4387Z" fill="#6B562F"/>
    <path d="M88.7243 35.2289C88.6264 35.1329 88.5316 35.0273 88.4463 34.9072C88.56 35.0721 88.6517 35.1601 88.7243 35.2289Z" fill="#6B562F"/>
    <path d="M34.9911 65.4419L34.9326 65.3154C34.9563 65.3682 34.9705 65.397 34.9911 65.4419Z" fill="#6B562F"/>
    <path d="M47.5801 36.2098C47.6038 36.173 47.6322 36.0994 47.6622 36.021C47.6512 36.0258 47.6306 36.0674 47.5801 36.2098Z" fill="#6B562F"/>
    <path d="M56.4425 28.6846L56.5689 28.7598L56.4394 28.4829L56.3936 28.6958C56.4125 28.6109 56.4299 28.5357 56.4425 28.4829L56.5705 28.7566C56.5168 28.7262 56.4789 28.7038 56.4425 28.683V28.6846Z" fill="#6B562F"/>
    <path d="M42.174 37.1942C41.9781 37.1814 41.9117 37.167 41.6416 37.1718C41.6669 37.1766 41.6906 37.1814 41.7238 37.1846C41.8217 37.175 41.9512 37.1734 42.174 37.1942Z" fill="#6B562F"/>
    <path d="M43.7764 41.6595C43.7353 41.6515 43.68 41.6451 43.6311 41.6387H43.3799L43.7764 41.6595Z" fill="#6B562F"/>
    <path d="M67.9785 55.5129C68.1033 55.388 68.1902 55.3176 68.2629 55.2664C68.1397 55.3256 68.8205 54.3734 67.9785 55.5129Z" fill="#6B562F"/>
    <path d="M88.9379 35.3728C88.8858 35.3568 88.8226 35.3184 88.7246 35.2288C88.7957 35.2992 88.8684 35.3616 88.941 35.4176C88.9695 35.4224 88.9806 35.4176 88.9395 35.3728H88.9379Z" fill="#6B562F"/>
    <path d="M41.8345 37.8937L40.874 37.8568L41.3179 37.4775L41.2737 37.7736C41.2864 37.6904 41.3006 37.6024 41.3211 37.4775L40.874 37.8584C41.1442 37.8712 41.4917 37.8841 41.8345 37.8937Z" fill="#6B562F"/>
    <path d="M45.5459 74.4285L45.8113 74.3132C45.707 74.3516 45.6122 74.3917 45.5459 74.4285Z" fill="#6B562F"/>
    <path d="M41.5959 40.8223C41.6543 40.9039 41.7175 40.9871 41.7823 41.0703L41.4932 40.9423C41.6227 40.9567 41.757 40.9679 41.8944 40.9775C41.9466 40.9711 42.0066 40.9663 42.0414 40.9567L41.4947 40.9215L41.7981 41.0559L41.5959 40.8223Z" fill="#6B562F"/>
    <path d="M68.2654 55.2646L68.2607 55.267C68.2607 55.267 68.2607 55.267 68.2654 55.2646Z" fill="#6B562F"/>
    <path d="M73.0211 54.623C72.8174 54.7494 72.7084 54.8726 72.6262 54.9687C72.5883 55.0183 72.5551 55.0615 72.5267 55.0999C72.503 55.1383 72.4824 55.1735 72.4635 55.2023C72.394 55.3208 72.3892 55.3704 72.3971 55.3912C72.4161 55.4328 72.5109 55.3672 72.4651 55.5048C72.2076 55.9849 72.138 56.2106 72.0764 56.321L72.4129 56.0922C72.1933 56.049 72.4161 55.9961 72.1001 55.9385C71.5393 55.9257 71.059 55.9481 70.6151 55.9561L70.9469 56.2234C70.8553 55.9737 70.7731 55.7353 70.7068 55.4936C70.7115 55.4392 70.6831 55.3128 70.7478 55.4536C70.7099 55.356 70.6704 55.2487 70.6293 55.1271L70.623 55.3496C70.702 55.0807 70.8031 54.7702 70.9137 54.4405L71.0432 54.0548L70.6515 53.9892C70.2913 53.93 69.9074 53.866 69.533 53.8035L69.3323 53.7699L69.2154 53.9316C68.8947 54.3717 68.5914 54.8038 68.3766 55.1655C68.3197 55.2247 68.2865 55.2519 68.2676 55.2631C68.4208 55.1543 68.4856 55.1687 68.4966 55.2247C68.3655 55.4024 68.2502 55.5768 68.1491 55.7273L68.2691 55.6873C68.0132 55.6248 67.8094 55.572 67.7083 55.4936C68.0227 55.5896 68.0574 55.5672 68.2123 55.588L67.6641 55.46C67.2944 55.2567 68.0164 55.5032 68.3071 55.5592L68.0448 55.6472C68.0859 55.58 68.1064 55.5368 68.0938 55.5272C68.0701 55.5608 68.0464 55.5944 68.0227 55.6296L68.3134 55.532C67.5993 55.348 66.811 55.1639 66.1427 54.9831L66.2154 55.0247C65.9816 54.8118 65.7699 54.6118 65.593 54.4325C65.563 54.3237 65.9895 54.7222 66.2644 54.9719L66.1633 54.9126C66.4792 54.9991 66.6483 55.0407 66.1791 54.8566L66.3039 54.9287C66.3039 54.9287 66.3007 54.9238 66.2976 54.9206L66.3054 54.9287L66.1806 54.8566L67.4066 55.2647C66.5013 54.8166 68.1601 55.5016 67.3371 55.0647C66.8647 54.9142 66.5124 54.8102 66.2186 54.7286L66.3971 54.8326C65.8157 54.2949 65.4603 54.0084 64.593 53.149C64.2723 52.9265 64.6246 53.3026 64.3039 53.0801C62.7572 51.731 62.9595 51.5725 62.2296 50.8795L62.0321 50.6923L61.7825 50.7915C61.6119 50.8587 61.4049 50.9516 61.149 51.0764C60.7446 51.3133 60.6277 51.5069 59.4176 51.9054L59.7778 51.6317C58.2548 52.2191 58.9373 52.1455 57.3812 52.68L57.4523 52.6624C57.4365 52.6624 57.4097 52.6656 57.3812 52.6672C57.4002 52.6624 57.4207 52.6576 57.4507 52.6512L57.3765 52.6688C57.6924 52.5024 58.4981 52.1919 58.2738 52.2655C57.6735 52.4432 57.5187 52.5344 57.3623 52.6336L57.446 52.6128C57.3054 52.6576 57.1616 52.7072 56.7793 52.7505L56.5897 52.6624C55.6798 52.7761 54.724 52.9105 53.7414 53.0481L53.3859 53.0977L53.4633 53.4402C53.6087 54.0772 53.7825 54.7158 53.9452 55.364L53.9389 55.3256C53.9704 55.604 54.0036 55.8857 54.0352 56.1674C53.9926 56.0618 53.9231 55.7257 53.9389 56.193C53.9799 56.5051 54.021 56.822 54.0637 57.1421C54.0858 57.3037 54.1095 57.4653 54.1363 57.6318C54.1505 57.7182 54.1632 57.795 54.1869 57.8959C54.2122 57.9999 54.2469 58.1023 54.2943 58.1967C54.4823 58.5857 54.8014 58.8417 55.1111 59.0306C55.2659 59.125 55.4349 59.205 55.5834 59.2722C55.6561 59.3059 55.7303 59.3395 55.7825 59.3683C55.8393 59.4019 55.8267 59.3939 55.8646 59.4355L56.0068 59.6227C56.0589 59.6916 56.1174 59.7636 56.179 59.834C56.3038 59.9748 56.446 60.1045 56.5945 60.2149C56.8915 60.4374 57.2106 60.5958 57.5281 60.7254L57.6466 60.7703C57.6845 60.7847 57.7351 60.8039 57.7382 60.8087C57.7525 60.8151 57.7683 60.8231 57.7841 60.8359C57.7999 60.8439 57.8157 60.8599 57.833 60.8743C57.901 60.9335 57.9705 61.0295 58.0305 61.1368C58.1537 61.356 58.2454 61.6233 58.318 61.8906C58.4286 62.153 58.525 62.4331 58.6071 62.718C58.6435 62.9212 58.6292 63.1037 58.5755 62.886C58.6735 63.7871 58.6435 62.9228 58.7398 63.3502C58.7872 63.6911 58.773 63.8799 58.7462 63.8527L59.0321 64.184C59.0495 64.192 59.0432 64.1936 59.0305 64.1952L58.961 64.2L58.7351 63.8527C58.7256 63.8367 58.713 63.7871 58.6988 63.7103C58.7051 63.7535 58.7098 63.7983 58.7177 63.8527L58.7588 64.168L59.0274 64.2096C59.6845 64.3136 60.5408 64.4577 61.4365 64.6209L61.1948 64.344C61.2786 65.1619 61.356 66.0149 61.4097 66.7847L61.5203 66.5334C61.119 66.8375 60.7414 67.1128 60.4144 67.3385L60.664 67.1096C60.3054 67.3721 60.0653 67.5785 59.871 67.761L59.7872 67.8394L59.7699 67.8922C59.6008 68.4252 59.5392 68.7853 59.1601 69.5391L59.2375 69.3102C59.1695 69.4671 59.1016 69.6255 59.0305 69.7855L59.2501 69.6207C57.8883 69.7551 56.4776 69.9184 55.149 70.0608L55.3844 70.1536C54.7193 69.3902 54.0905 68.6556 53.5471 67.985L53.4507 67.865L53.2753 67.8778C52.9673 67.9002 52.6719 67.9178 52.3922 67.9306C52.051 68.0827 50.2548 68.1595 49.6071 68.3019L49.4759 68.3307L49.4286 68.3884C49.3385 68.4988 49.2911 68.5756 49.2911 68.6188C48.6908 69.163 48.4538 69.3582 48.1774 69.5999L48.111 69.6575L48.0826 69.7935C48.0004 70.1808 47.9135 70.6354 47.7161 71.8421C47.6213 72.4679 47.7034 72.7928 47.6165 73.5706L47.517 73.5754L47.5059 73.8618L47.7303 73.5754L47.0431 73.9259L46.4807 74.0203L45.814 74.3084C46.0857 74.2076 46.4017 74.1243 46.3717 74.1675C45.3322 74.6237 43.7745 75.1134 43.7302 75.0766L42.8092 75.4719L42.5233 75.5951L42.5644 75.8832L42.8061 77.5669C42.7603 77.5109 42.6971 77.0611 42.6307 76.7074C42.8914 78.135 42.558 76.9811 42.7966 78.2887C42.7982 78.1094 42.8645 78.3767 42.8882 78.4055C42.893 78.5912 42.9088 78.8424 42.934 79.1401L43.013 78.8568C42.9309 78.9593 42.8424 79.0681 42.7476 79.1881L42.8993 79.0681C42.2942 79.3258 41.5786 79.6522 40.9893 79.9307L41.1552 79.7819C40.9451 79.8747 40.7318 79.9675 40.4964 80.0716L40.8124 80.054C40.6512 80.0043 40.4885 79.9531 40.3084 79.8971L40.6228 80.3933C40.7128 79.649 40.8061 78.8728 40.9024 78.0726L40.9356 77.8021L40.7192 77.6533C40.3606 77.4068 39.9972 77.1556 39.6275 76.9011L39.4332 76.7667L39.2215 76.8579C38.7539 77.0611 38.2784 77.266 37.8029 77.4725C38.5517 77.186 38.4269 77.3668 37.8297 77.6357L37.5485 77.6421C37.1852 77.8678 38.1931 77.4084 37.4253 77.8229C36.6544 78.1398 36.8645 77.935 37.291 77.7141L36.3732 78.1462C36.3068 78.1414 36.5185 78.0326 36.5612 77.9718C36.4822 78.0214 36.3574 78.0774 36.1994 78.1414L36.7318 78.3095C36.4348 77.8149 36.0145 76.9923 35.6923 76.6402L35.6875 76.5746C35.1472 75.7136 34.7349 75.0686 34.3747 74.51L34.2705 75.1198C34.6749 74.7933 35.0446 74.494 35.449 74.1675L35.043 74.238C35.3668 74.3452 35.7176 74.4604 36.1093 74.5885C36.171 74.5148 36.8376 74.7597 37.3747 74.8637C37.915 75.0622 38.479 75.2702 39.073 75.4895L39.3179 75.5791L39.4695 75.3423C39.6749 75.0206 39.8866 74.6893 40.1046 74.3484L40.2689 74.0923L40.0367 73.8763C39.8282 73.6826 39.6149 73.4841 39.3969 73.2841L39.5154 73.489C39.4743 73.3001 39.4332 73.1096 39.3921 72.916C39.1094 71.8085 39.2484 72.6055 39.0888 72.1142C39.1015 72.0934 39.0967 72.0053 39.0809 71.8821L38.9751 72.1782C39.34 71.9413 40.0114 71.3876 39.528 71.8485C39.904 71.5348 40.2073 71.2739 40.4806 71.0275C40.7539 70.781 40.9956 70.5569 41.2437 70.2897L41.3369 70.1856C41.3669 70.1536 41.3811 70.1424 41.4032 70.1184C41.4206 70.096 41.4459 70.0768 41.4727 70.0592C41.5012 70.0416 41.5217 70.0176 41.5549 70.0032C41.6734 69.9296 41.8298 69.8736 42.0099 69.8255C42.3764 69.7343 42.8456 69.6959 43.4427 69.7007C43.1852 69.6559 42.8945 69.6463 43.0446 69.6175C43.4775 69.6031 44.0351 69.6895 43.9704 69.7247H43.855C44.0241 69.7279 44.1979 69.7343 44.3764 69.7407C44.5596 69.7455 44.7508 69.7551 44.9625 69.7311C45.013 69.7279 45.0699 69.7167 45.1252 69.7055C45.1789 69.6975 45.2374 69.6783 45.2974 69.6575C45.4143 69.6191 45.5407 69.5407 45.6418 69.4334C45.7366 69.3214 45.8045 69.1902 45.8345 69.0701L45.8598 68.9789L45.8724 68.8925C45.8819 68.8349 45.8882 68.7773 45.8898 68.7228C45.904 68.502 45.8867 68.3003 45.8693 68.0987C45.8582 67.9994 45.8503 67.8986 45.8361 67.801L45.8171 67.6537C45.8108 67.6041 45.795 67.5433 45.784 67.4889C45.6955 67.0344 45.4238 66.6183 45.0952 66.3302C44.765 66.0357 44.3874 65.8469 44.0146 65.706C43.637 65.5684 43.2689 65.4771 42.8803 65.4419C42.8313 65.4371 42.7745 65.4355 42.7223 65.4339C42.6686 65.4355 42.607 65.4355 42.5596 65.4419C42.4585 65.4499 42.3669 65.4643 42.2784 65.4803C42.0999 65.5108 41.9356 65.554 41.7745 65.6004C41.4553 65.6948 41.1647 65.81 40.9024 65.9461L41.0209 65.8869C40.8361 65.9685 40.6544 66.0645 40.4743 66.1765C40.3843 66.231 40.2958 66.2966 40.2089 66.3622L39.994 66.5478C39.8708 66.6471 39.716 66.7463 39.5612 66.8407C39.4048 66.9351 39.2436 67.0264 39.0809 67.116C38.152 67.5545 39.607 66.7895 38.9024 67.0776C38.0936 67.5289 37.37 67.8474 36.7049 68.1195L37.1394 68.2763C36.5833 67.2408 36.1283 66.3254 35.4853 65.2547C35.3763 64.9506 35.1994 64.5681 34.9735 64.12L34.8645 63.9039L34.5991 63.8959C34.0793 63.8783 33.4821 63.8783 32.8518 63.8815L33.2373 64.1104C32.7112 63.1709 32.1283 62.1594 31.648 61.2648L31.4031 61.881C31.9166 61.7241 32.3763 61.5785 32.7776 61.4648L32.6433 61.4536C33.1409 61.212 33.2783 61.252 33.6622 61.1127C33.5927 61.0951 33.0856 61.2856 33.3937 61.132C33.8392 60.9479 34.2847 60.7575 34.7286 60.5334C35.1741 60.3061 35.5959 60.0565 36.0145 59.8004C36.8518 59.285 37.6733 58.7457 38.4964 58.1855L38.6054 58.1119L38.6465 57.9727C38.8076 57.4173 38.9703 56.8604 39.1331 56.3034L38.8676 56.5851C40.2689 56.1482 41.6749 55.7113 43.0715 55.2759L43.2216 55.2295L43.3195 55.0871C43.7587 54.4549 44.1947 53.8243 44.6291 53.1986C44.9183 52.7777 45.0652 52.5184 45.1552 52.3263L44.9103 52.5088C45.3938 52.2783 45.4333 52.1343 46.9277 51.771L46.3685 52.0543C47.3322 51.7166 48.3148 51.3949 49.3053 51.0828L49.3938 51.0556L49.4586 50.9948L50.1316 50.369L50.1995 50.305L50.2327 50.2202C50.7966 48.7846 51.3764 47.3522 51.9199 45.9374L52.0621 45.5677L51.7034 45.4172C51.4207 45.2988 51.1237 45.158 50.8393 45.0187L50.6245 44.9099C50.5834 44.8907 50.5739 44.8811 50.547 44.8667C50.5218 44.8555 50.5044 44.8379 50.4839 44.8235C50.4049 44.7627 50.3448 44.6842 50.2911 44.5722C50.3322 44.6394 50.3638 44.6586 50.3954 44.689C50.4301 44.7162 50.4586 44.7531 50.536 44.8107C50.4633 44.7306 50.3938 44.6362 50.3243 44.409C50.2548 44.1897 50.2026 43.8488 50.0431 43.5095C50.0052 43.4247 49.9546 43.3431 49.9041 43.2662C49.8456 43.1926 49.7824 43.1094 49.7319 43.063C49.6244 42.9526 49.5297 42.8757 49.4475 42.8069C49.2832 42.6789 49.1742 42.6085 49.1631 42.6197C48.7445 42.266 49.1 42.4948 48.8567 42.2564C48.3891 41.8387 47.6244 41.4081 47.2232 41.1201L47.1363 41.0576L47.0083 41.0512C46.9088 41.0464 46.8298 41.0384 46.7682 41.0256C46.716 41.0144 46.8772 41.008 47.0099 41.0032L47.1205 41L47.2484 41.08C47.28 41.0993 47.3069 41.1169 47.3306 41.1313C47.31 41.1185 47.2848 41.1041 47.2484 41.0816L47.1189 41.0016L47.0099 41.0048C46.4633 41.0224 44.9372 40.9552 45.3637 41.0464C44.0873 40.9792 42.9198 41.0384 41.9024 40.9664C41.7903 40.9808 41.6544 40.9872 41.5012 40.9904L41.7492 41.1008C41.4253 40.7824 41.0399 40.3406 40.7429 40.0366L40.8392 40.339C40.874 40.0686 40.8882 39.8621 40.8534 39.7869C40.9546 39.8749 41.1615 38.4665 41.2689 37.4598L40.8835 37.7895C41.171 37.7895 41.4222 37.7815 41.5991 37.7719C41.3274 37.8087 42.3005 37.8376 41.9814 37.8888C42.9024 37.9128 43.7476 37.9096 43.5896 37.8312C43.7065 37.8472 43.8234 37.86 43.9404 37.8696L43.6355 37.6951C43.8598 38.108 44.1078 38.5017 44.3558 38.8746L44.5391 39.1499L44.825 39.0315C45.8108 38.625 46.6766 38.2025 47.3148 38.1128C47.498 38.036 47.6813 37.9592 47.8345 37.8952L48.0494 37.8055L48.0905 37.5975C48.2611 36.7204 48.4254 35.8674 48.5691 35.1248L48.2737 35.3969C49.1331 35.272 49.9515 35.1536 50.6766 35.048L50.4049 34.9328C50.5644 35.1344 50.7192 35.3297 50.8488 35.4929L50.9594 35.6337L51.1252 35.6017C51.6545 35.4977 52.1253 35.4049 52.5881 35.3137L52.7287 35.2865L52.7824 35.16C52.7903 35.1408 52.7982 35.1232 52.8061 35.1056C52.8125 35.1152 52.8125 35.1376 52.8061 35.1712L52.7903 35.2496L52.5913 35.3393C52.4033 35.4257 51.7319 35.5457 51.1331 35.6594L50.9309 35.6978L50.7998 35.5297C50.6355 35.3185 50.4791 35.1184 50.3543 34.9712L50.6813 35.1088C50.4475 35.1488 50.3038 35.1872 50.3338 35.2224C50.4633 35.2016 50.5897 35.1824 50.6876 35.168L50.3069 35.008C50.4712 35.208 50.6276 35.3985 50.7603 35.5601L50.9214 35.757L51.141 35.709C51.6624 35.5937 52.1379 35.4865 52.5976 35.3841L52.784 35.3425L52.8456 35.1888C53.1395 34.451 53.4223 33.75 53.7698 32.953L53.596 33.1067C53.9104 33.0106 54.2453 32.9114 54.6055 32.809C55.1869 32.6553 54.2959 32.9674 54.1095 33.049C54.803 32.8218 55.4855 32.6105 56.1506 32.4089L56.3528 32.348L56.3907 32.14C56.6103 30.9125 56.8346 29.7329 57.021 28.5806L57.0605 28.3373L56.8567 28.2301C56.5929 28.0909 56.3307 27.9548 56.07 27.822C56.081 27.8124 56.2848 27.9084 56.476 28.0028C56.3117 27.9116 56.1221 27.806 55.972 27.7228L56.1458 28.0813C56.1774 27.8716 56.1932 27.7244 56.1537 27.7436L56.1158 28.0765L55.9578 27.7484L56.0194 27.7788C56.1743 27.8972 56.1079 27.8924 55.9199 27.8204L56.0368 28.0637C56.04 27.6251 56.1632 26.4648 56.1363 26.4072C56.209 27.1322 56.5092 24.3635 56.566 25.5046C56.5771 25.4149 56.585 25.3157 56.5913 25.2309L56.1174 25.479C56.2959 25.5494 56.4302 25.583 56.4049 25.5382C56.7714 25.7174 56.8836 25.791 56.4823 25.6694C57.179 25.9559 57.4239 26.0007 57.645 26.0535C57.7572 26.0775 57.8646 26.1015 58.0289 26.1383C58.07 26.1479 58.1142 26.1575 58.1648 26.1671C58.1901 26.1719 58.2153 26.1767 58.2422 26.1832C58.2564 26.1864 58.2706 26.1895 58.2849 26.1912C58.3054 26.1944 58.3259 26.196 58.3465 26.1992C58.5139 26.2216 58.7304 26.1751 58.9073 26.0551C58.9136 26.0695 58.8473 26.1319 58.7351 26.1863C58.6261 26.2456 58.4618 26.276 58.3512 26.2792C58.4855 26.2856 58.6261 26.26 58.7398 26.2056C58.8536 26.1527 58.9531 26.0839 59.0337 26.0071C59.198 25.8551 59.3133 25.6806 59.4239 25.495C59.6372 25.1205 59.8173 24.6883 60.01 24.1346C60.0052 24.2066 60.0748 24.0866 59.9594 24.4179C60.0163 24.2546 60.0653 24.0994 60.1064 23.9377L59.8457 24.1394C60.021 24.1346 60.1901 24.1314 60.356 24.1282L60.1127 23.9553C60.3528 24.5571 60.5755 25.1189 60.8062 25.6982L60.8457 25.7958L60.9326 25.8182C61.6909 26.0103 62.476 26.22 63.4018 26.5176C62.9895 26.4904 63.3955 26.6009 63.7525 26.7225L63.5645 26.5192C63.604 26.7257 63.6324 26.9194 63.6008 26.9674L63.7478 27.5275L63.822 27.8076C63.8394 27.886 63.8552 27.9452 63.8536 28.0045C63.8568 27.9804 63.8647 27.9564 63.8678 27.9308V27.846C63.8678 27.7852 63.8536 27.6956 63.8473 27.6219C63.8615 27.6844 63.8757 27.7452 63.89 27.806C63.8979 27.8572 63.9089 27.902 63.9137 27.9468C63.9184 28.0349 63.9105 28.1117 63.8821 28.1853C63.8204 28.3309 63.6688 28.4686 63.4903 28.5886C63.3133 28.7118 63.1159 28.8191 62.9215 28.9615C62.8726 28.9951 62.8252 29.0351 62.7778 29.0767L62.743 29.1072L62.7004 29.1584C62.6688 29.1952 62.6546 29.224 62.6388 29.2528C62.574 29.3696 62.5361 29.4737 62.4918 29.5809C62.5313 29.4529 62.5598 29.3312 62.6388 29.1824C62.653 29.16 62.6688 29.1376 62.6846 29.1168C62.7019 29.0944 62.7193 29.0719 62.7304 29.0623L62.8094 28.9855C62.8631 28.9407 62.9168 28.8927 62.9705 28.8543C62.901 28.9023 62.8283 28.9519 62.7588 29.0159L62.7067 29.0623C62.6862 29.0831 62.6625 29.1152 62.6419 29.1424C62.6166 29.1744 62.6103 29.192 62.5977 29.216L62.5629 29.2832C62.4871 29.4512 62.4429 29.6049 62.3939 29.7633C62.3038 30.0754 62.2328 30.3859 62.1632 30.6964C62.2596 30.3491 62.3591 30.0034 62.4855 29.6577C62.3607 30.1682 62.4176 30.149 62.435 30.1682C62.4587 30.1874 62.4508 30.2419 62.2833 30.8932C62.3275 30.6228 62.0653 31.8791 61.9042 32.3849V32.3817C61.8473 32.8794 61.7936 33.3931 61.6372 34.1229C61.5677 34.307 61.5345 33.9469 61.4887 34.0669C61.495 34.331 61.3923 34.9584 61.3007 35.5905L61.4618 35.4401C60.8915 35.4881 60.3212 35.5393 60.0321 35.6097C60.2359 35.5697 60.2422 35.5073 60.1727 35.4993L59.7714 35.6097C59.3086 35.6161 59.2406 35.6097 59.3117 35.5537C57.9262 35.6369 59.762 35.6738 58.1142 35.725C58.2422 35.709 58.1806 35.701 58.4476 35.6706C58.1269 35.6866 57.8109 35.7074 57.5013 35.7298L57.3512 35.741L57.3449 35.8914C57.3164 36.5572 57.3133 37.2022 57.3307 37.8408C57.3401 38.1608 57.3544 38.4777 57.3875 38.7962C57.4065 38.9563 57.4255 39.1147 57.476 39.286C57.4918 39.3308 57.506 39.374 57.5392 39.4252C57.5487 39.4476 57.5834 39.4812 57.6087 39.5052L57.6356 39.5356C57.6514 39.5484 57.6719 39.5788 57.6909 39.6076C57.7098 39.6348 57.7288 39.6637 57.7461 39.6973C57.7746 39.8045 57.7462 39.7901 57.694 39.7197C57.6687 39.6813 57.6324 39.6413 57.5976 39.5996C57.5913 39.5948 57.5834 39.5884 57.5787 39.582L57.5692 39.5724C57.5692 39.5724 57.536 39.542 57.5202 39.526C57.4539 39.454 57.4365 39.3996 57.4144 39.3484C57.3401 39.1483 57.3275 38.9867 57.3038 38.8922C57.2864 38.801 57.2706 38.785 57.2627 38.9259C57.2848 39.0715 57.3038 39.2107 57.3749 39.3916C57.3828 39.414 57.3939 39.438 57.4128 39.4668C57.4302 39.4956 57.4397 39.518 57.4792 39.558C57.4965 39.5756 57.5139 39.5932 57.5313 39.6076C57.5439 39.6188 57.5376 39.614 57.5408 39.6188C57.5439 39.6236 57.5471 39.6268 57.5518 39.63L57.5581 39.6348L57.5692 39.6509L57.5929 39.6829C57.6087 39.7037 57.6245 39.7245 57.6403 39.7517C57.7698 39.9581 57.8899 40.2046 58.0037 40.4479C58.2311 40.9392 58.4444 41.4529 58.6435 41.9635L58.7067 42.1267L58.8646 42.0995C60.0068 41.9075 61.1427 41.7186 62.2233 41.5762L61.8299 41.6194C62.0969 41.4081 63.4065 41.4754 64.4571 41.2321C64.1996 41.2849 64.1301 41.3777 64.198 41.3489C64.5582 41.3009 64.9216 41.2449 65.3007 41.1777L65.446 41.1505C65.4934 41.1409 65.5487 41.1281 65.5772 41.1281C65.6467 41.1153 65.7099 41.1201 65.7715 41.1345C65.8915 41.1665 66.0163 41.2753 66.1285 41.4273C66.2423 41.5778 66.3434 41.7634 66.4524 41.9603C66.563 42.1571 66.6767 42.3684 66.8442 42.5749C66.8852 42.6261 66.9374 42.6741 66.9848 42.7237C67.0369 42.7669 67.108 42.8181 67.1522 42.8501C67.2423 42.9093 67.3323 42.9814 67.416 43.0678C67.5867 43.2374 67.7446 43.4439 67.8931 43.6712C67.8331 43.6023 67.7731 43.5351 67.7099 43.4727C67.8773 43.7384 68.0732 44.0905 68.2439 44.4746L68.2865 44.5706L68.3892 44.593C69.0622 44.737 69.8047 44.8859 70.3639 45.0123C70.642 45.0251 71.1586 45.1372 70.8552 45.0123C71.2328 45.1244 71.6072 45.2236 71.9785 45.3132L72.1475 45.3532L72.1981 45.182C72.2297 45.0747 72.2376 45.0043 72.2502 44.9195C72.2597 44.8379 72.266 44.7579 72.2692 44.6778C72.2755 44.5178 72.2692 44.3625 72.2597 44.2073C72.2439 44.0377 72.2376 43.9432 72.2597 43.8232C72.2818 43.7096 72.3308 43.6007 72.4003 43.4951C72.5425 43.2839 72.7494 43.0918 72.9611 42.9029C73.1728 42.7173 73.3955 42.5156 73.5993 42.3316C74.0196 41.9667 74.473 41.637 74.9374 41.3441C75.4051 41.0544 75.89 40.7968 76.394 40.6191C76.1223 40.7376 75.7779 40.968 75.9864 40.8576C76.296 40.6911 76.6136 40.5391 76.9374 40.4239C77.018 40.3919 77.0986 40.371 77.1807 40.347C77.2186 40.3358 77.2645 40.3214 77.315 40.3054L77.4588 40.2574C77.552 40.2222 77.6357 40.1758 77.7242 40.1342C77.8095 40.091 77.8885 40.0382 77.9706 39.9901C77.8727 40.0029 77.8063 40.0318 77.7036 40.075C77.6515 40.0942 77.5899 40.1182 77.5141 40.1454C77.4398 40.1758 77.3387 40.1902 77.2218 40.2142C77.2866 40.1806 77.375 40.147 77.4714 40.099C77.563 40.043 77.6736 39.9933 77.7795 39.9181C77.9991 39.7837 78.2234 39.6044 78.4382 39.4428C77.6736 40.059 78.5267 39.5532 78.8711 39.2892C78.8032 39.3196 78.8964 39.2043 78.8537 39.2107C79.3229 38.8794 79.3261 38.809 79.3703 38.7114C79.4114 38.609 79.492 38.4777 80.0465 37.9352L80.0196 38.0232C80.1049 37.9224 80.1855 37.8216 80.2645 37.7191L80.2455 37.7351C80.6199 37.5111 80.9849 37.2854 81.413 37.0661C81.68 37.0213 80.8885 37.3894 80.8853 37.4711C81.6547 37.0565 82.334 36.5188 83.0718 36.2243C82.7542 36.4196 82.2835 36.6692 81.9659 36.8645C82.7732 36.5492 82.849 36.4804 83.4225 36.1939L83.3656 36.2211L84.6926 35.5681L84.3467 35.7202C84.9881 35.192 85.7511 34.8527 86.6073 34.3774L86.65 34.3534V34.3086C86.6689 33.9677 86.6784 33.6076 86.6674 33.2219C86.7053 34.6751 86.7306 33.4651 86.8175 33.5836C86.8443 33.3899 86.8791 33.1435 86.9028 32.9738L86.9138 32.897L86.8475 32.801C86.7543 32.6665 86.7053 32.5833 86.7653 32.6361C86.293 32.1752 86.0971 31.7495 85.481 31.1221L85.5268 31.359C85.5378 31.3078 85.5489 31.2501 85.5615 31.1909C85.6042 31.1573 85.7906 30.4755 85.8159 30.65C86.0671 29.7713 85.7005 30.8388 85.6863 30.754C85.8443 30.077 86.1176 29.312 86.4099 28.4734L86.2092 28.6302C86.6579 28.6222 87.1271 28.611 87.6089 28.587L87.3625 28.4206C87.5315 28.8879 87.7195 29.3632 87.9359 29.8354C88.274 30.642 88.4999 31.1109 88.7448 31.5558C88.8064 31.6663 88.8664 31.7703 88.9138 31.8855C88.9612 31.9991 89.0007 32.124 88.977 32.2536C88.9502 32.3833 88.8238 32.4841 88.6879 32.5753C88.62 32.6233 88.5457 32.6697 88.4794 32.7322C88.4162 32.7994 88.3799 32.889 88.3641 32.9866C88.3293 33.1179 88.3246 33.1611 88.3103 33.1435C88.2977 33.1275 88.2835 33.0506 88.2946 32.9514C88.3025 32.8522 88.353 32.7305 88.4257 32.6553C88.462 32.6217 88.4984 32.5897 88.5173 32.5769C88.5378 32.5609 88.5521 32.5513 88.5521 32.5513C88.5268 32.5657 88.5047 32.5769 88.4778 32.5945C88.451 32.6137 88.4225 32.6329 88.3988 32.6553C88.3767 32.6793 88.353 32.7049 88.3325 32.7306C88.3151 32.7578 88.2977 32.7866 88.2819 32.8154C88.2266 32.9338 88.2156 33.0522 88.2108 33.1595C88.2061 33.3771 88.2409 33.5692 88.2661 33.7564C88.2788 33.8493 88.2914 33.9405 88.2977 34.0301C88.3025 34.0765 88.3025 34.1181 88.3056 34.1661C88.3119 34.2222 88.3119 34.2814 88.3293 34.3326C88.3814 34.5487 88.4984 34.7327 88.6405 34.8975C88.5157 34.7695 88.5947 34.9408 88.7606 35.1568C89.0165 35.4017 89.1366 35.4353 89.2614 35.5041C89.3925 35.5633 89.5315 35.6546 89.9249 35.8674C89.7717 35.8354 89.5679 35.7954 89.2661 35.6401C89.4415 35.7506 89.6247 35.8402 89.8111 35.9234C89.9044 35.9634 89.9992 36.0018 90.0939 36.0339C90.1966 36.0691 90.263 36.1011 90.3499 36.1331C90.6753 36.2867 90.9834 36.53 91.2709 36.8021C91.3246 36.8981 91.2282 36.8229 91.0876 36.7124C90.947 36.602 90.759 36.458 90.6405 36.3956C90.9897 36.6356 91.3941 37.0501 91.729 37.4246C92.0639 37.8007 92.3388 38.1336 92.4557 38.2201C92.3499 38.0568 92.2409 37.8952 92.1319 37.7351C92.3357 37.996 92.1777 37.9144 92.0166 37.7319C91.7527 37.447 91.5789 37.2342 91.4699 37.0821C91.3609 36.9301 91.3167 36.8405 91.312 36.8133C91.4494 36.9445 91.5805 37.0821 91.7085 37.223C91.6469 37.0821 91.5205 36.9013 91.3404 36.7108C91.1603 36.5204 90.9312 36.3123 90.6579 36.1427C90.59 36.0995 90.5173 36.0643 90.4462 36.0243C90.3736 35.989 90.2977 35.9618 90.2219 35.9298C90.0624 35.8738 89.9028 35.813 89.7495 35.7394C89.4431 35.5953 89.1571 35.4177 88.936 35.2128C89.0892 35.2929 89.2456 35.3537 89.402 35.4065C89.0592 35.2144 88.7227 34.9824 88.4841 34.6303C88.4336 34.5022 88.4288 34.3838 88.451 34.3758C88.4794 34.363 88.511 34.4622 88.6705 34.6911C88.571 34.5134 88.5252 34.3758 88.5078 34.2686C88.492 34.1661 88.492 34.0669 88.4778 33.9821C88.4557 33.8108 88.4115 33.654 88.4115 33.3003C88.4194 33.2235 88.4257 33.2571 88.4367 33.3275C88.4194 33.1979 88.4083 33.0666 88.4336 32.9498C88.4494 32.8938 88.4683 32.8362 88.5062 32.793C88.5394 32.7466 88.59 32.7129 88.6468 32.6713C88.5884 32.7257 88.6279 32.7274 88.6311 32.7466C88.6342 32.7562 88.6184 32.7722 88.5979 32.7946C88.5742 32.817 88.5363 32.849 88.4968 32.9338C88.5268 32.8714 88.5631 32.825 88.6153 32.7946C88.6879 32.7498 88.759 32.7081 88.8285 32.6649C88.9012 32.6185 88.9786 32.5657 89.0481 32.4857C89.1176 32.4073 89.1619 32.2952 89.1682 32.1944C89.1761 31.9959 89.116 31.8503 89.0639 31.7191C89.007 31.5878 88.9454 31.4742 88.8933 31.3718C88.6848 30.9477 88.5379 30.6148 88.4841 30.3411L88.5363 30.4515C87.7716 28.5694 88.372 30.3059 87.7322 28.9167L87.6579 28.3069L87.6548 28.2749L87.5963 28.2637L87.1666 28.1837L86.9739 28.2909C86.7669 28.2973 86.3562 28.3117 86.4304 28.2685C86.3151 28.2845 86.2377 28.2957 86.1966 28.3053L86.1223 28.3197L86.1129 28.3694C86.0829 28.5294 86.1176 28.4414 86.146 28.3806L86.1666 28.3373L86.1966 28.3405C86.244 28.3453 86.2787 28.3517 86.1966 28.371L86.1713 28.3774V28.3902C86.1729 28.4014 86.1697 28.4318 86.1618 28.4734C85.8001 29.3504 85.4162 30.9253 85.1982 31.2469L85.1792 31.2741L85.2155 31.3398C85.2361 31.3782 85.244 31.399 85.2456 31.4166C85.3483 31.5014 85.3024 31.4214 85.2361 31.3222L85.2092 31.2838L85.2219 31.2533C85.2914 31.0869 85.3704 30.8532 85.2645 31.2677L85.2598 31.2854L85.2693 31.295C85.2929 31.319 85.3404 31.3718 85.3988 31.4342C85.462 31.7543 86.1097 32.2952 86.6216 32.9834L86.6089 32.9466C86.601 33.009 86.5931 33.0714 86.5836 33.1355C86.5726 33.0858 86.5663 33.0186 86.5631 32.9434L86.5852 33.0138C86.3388 32.7754 86.0591 32.4025 86.4936 33.033C86.5046 33.041 86.5157 33.0506 86.5299 33.0602L86.4904 32.9386C86.5378 33.2603 86.4841 33.7676 86.4209 34.2862L86.4999 34.1629C86.1223 34.3374 85.7369 34.5118 85.4462 34.6815C85.4667 34.8015 83.9865 35.5105 82.8601 36.1523C82.9075 36.0899 81.2756 36.9301 80.127 37.5031L80.1002 37.5175L80.0718 37.5495C79.9296 37.7079 79.7905 37.8552 79.6689 37.9768L79.6784 37.9384C79.6104 38.1881 78.7416 39.0875 78.0133 39.6028C78.0022 39.5228 78.1223 39.4204 78.4714 39.0907C78.2597 39.2699 78.0401 39.4348 77.8142 39.582C77.7431 39.6461 77.6562 39.7197 77.5267 39.7949C77.4619 39.8269 77.3877 39.8797 77.2976 39.9085C77.2534 39.9245 77.206 39.9421 77.1539 39.9613C77.0938 39.9789 77.0291 39.9997 76.9611 40.0206C77.0228 39.9725 77.097 39.9245 77.1523 39.8765C76.5709 40.0254 76.0449 40.3038 75.5109 40.6143C74.9769 40.9312 74.4256 41.2881 73.8126 41.7042C73.8031 41.7618 74.0733 41.6338 74.1918 41.6178C74.3134 41.6034 74.266 41.6738 73.6767 42.1635C73.6072 42.1667 73.5109 42.1379 73.8221 41.8771C73.7194 41.9603 73.4682 42.1972 73.2581 42.3588C73.3956 42.2052 73.5409 42.0515 73.6926 41.9059C73.4161 42.0979 73.3608 42.1731 73.3182 42.2324C73.2755 42.2916 73.2518 42.3444 73.0464 42.5124C73.0148 42.4564 72.7162 42.7301 72.7431 42.6437C72.8442 42.5492 73.1175 42.3668 73.2518 42.2164C73.0259 42.4068 72.7605 42.6021 72.5298 42.7861C72.2976 42.9654 72.108 43.159 72.0117 43.2662C72.0433 43.2502 72.059 43.263 72.0369 43.3319C72.0164 43.3991 71.9453 43.5287 71.8963 43.7832C71.8853 43.8648 71.8742 43.94 71.8789 44.0072C71.8789 44.0409 71.8805 44.0713 71.8821 44.1017C71.8837 44.1273 71.8853 44.1497 71.8869 44.1721C71.8932 44.2601 71.8932 44.3241 71.8932 44.3737C71.89 44.4714 71.8805 44.5034 71.8695 44.5226C71.8442 44.5578 71.8268 44.545 71.7936 44.8459C71.7968 44.8763 71.7968 44.9115 71.7936 44.9499C71.7936 44.9691 71.7905 44.9883 71.7889 45.0075C71.7889 45.0235 71.781 45.0523 71.7826 45.0523L72.0654 44.8827C71.751 44.8299 71.3402 44.7371 71.3118 44.8043C70.9879 44.7371 70.9358 44.6826 70.8157 44.6314C70.2344 44.5562 68.138 44.0969 68.7636 44.3273L68.909 44.3641C68.8805 44.3593 68.8489 44.3545 68.8142 44.3497C68.6941 44.3305 68.5724 44.3113 68.4492 44.2905L68.5251 44.3529C68.3165 43.9352 68.0859 43.5287 67.7984 43.1462C67.653 42.9574 67.4919 42.7733 67.2881 42.6277C67.1127 42.5092 66.9927 42.3204 66.8821 42.1219C66.7715 41.9219 66.6767 41.7074 66.563 41.4962C66.4492 41.2881 66.3213 41.0672 66.1017 40.904L66.0179 40.8464C65.9879 40.8288 65.9547 40.8176 65.9231 40.8048C65.86 40.7728 65.7904 40.7632 65.7209 40.7552C65.6514 40.7391 65.5851 40.7552 65.5187 40.76C65.446 40.7664 65.4034 40.7792 65.3449 40.7872C65.1238 40.8272 64.9026 40.8656 64.6846 40.904V40.872C63.5693 41.0848 62.1901 41.2689 61.397 41.4513C61.0653 41.4994 60.6056 41.5074 60.7414 41.4497C59.961 41.5826 59.8173 41.6354 58.8125 41.7426L58.9768 41.8435C58.961 41.7906 58.9294 41.6914 58.8947 41.5842C58.9515 41.7122 58.9879 41.7938 59.0068 41.8323L58.8062 41.709C59.0937 41.637 58.4286 41.7362 59.4255 41.6034C59.1774 41.6306 58.9721 41.653 58.8014 41.6722L59.0432 41.821C58.9405 41.4994 58.8583 41.2529 58.7477 40.9776C58.6372 40.7023 58.5044 40.3967 58.2691 39.9693C58.3923 40.1454 58.3338 39.9357 58.179 39.6172C58.1616 39.5772 58.1348 39.534 58.1111 39.4908C58.0984 39.4684 58.0858 39.4476 58.0732 39.4252L58.0242 39.3548L57.9721 39.2828C57.9452 39.2539 57.9168 39.2235 57.8867 39.1963L57.8646 39.1755L57.8583 39.1707L57.8552 39.1675V39.1659C57.9484 39.0363 57.7288 39.3404 57.7509 39.3084C57.754 39.302 57.7588 39.2956 57.7635 39.2892C57.7809 39.2651 57.8046 39.2459 57.8299 39.2347C57.8457 39.2219 57.8662 39.2059 57.8852 39.1931V39.1915C57.8852 39.1915 57.8852 39.1915 57.882 39.1835C57.863 39.1435 57.8425 39.0603 57.8283 38.9867C57.8125 38.913 57.8014 38.8394 57.792 38.7754C57.7967 38.9002 57.8046 39.0267 57.8251 39.1307C57.8299 39.1579 57.8346 39.1803 57.8394 39.1979L57.8441 39.2171C57.8441 39.2171 57.8504 39.2171 57.8394 39.2283C57.8172 39.2443 57.803 39.2491 57.7872 39.2635C57.7793 39.2699 57.773 39.2779 57.7667 39.286L57.7572 39.2988L57.7525 39.3052V39.3084C57.7367 39.3308 57.8899 39.1195 57.8251 39.2091L57.8267 39.2107L57.8536 39.2379L57.9057 39.2956C57.9436 39.3372 57.9531 39.3644 57.9784 39.3996C57.9499 39.3628 57.931 39.3308 57.8852 39.2876L57.8236 39.2283L57.8157 39.2219C57.8725 39.1435 57.7383 39.3276 57.7525 39.3084V39.3052V39.302L57.7604 39.294C57.7667 39.2844 57.7746 39.2747 57.7825 39.2667C57.7904 39.2587 57.7999 39.2523 57.8078 39.2459C57.8141 39.2395 57.8315 39.2331 57.8267 39.2347C57.8172 39.2283 57.7935 39.1595 57.7793 39.1051C57.7493 38.9835 57.7319 38.849 57.7193 38.7178C57.6956 38.4505 57.6877 38.1865 57.6861 37.9192L57.7999 38.2041C57.8172 37.399 57.8251 36.634 57.8299 35.9202L57.5266 36.2339C58.8362 36.0899 60.0037 35.909 61.1474 35.9698C61.7509 35.853 59.8947 36.0066 60.4334 35.8802C60.7904 35.8594 61.1538 35.8546 61.4808 35.8562H61.6466L61.6925 35.6594C61.8473 34.9984 62.0084 34.451 62.0463 34.2318C62.1996 33.5148 62.2249 33.1707 62.2485 32.8186C62.2738 32.4665 62.2959 32.1048 62.4729 31.359C62.4002 31.543 62.2501 31.7015 62.4729 30.5748C62.6024 30.0546 62.743 29.7537 62.8173 29.6689C62.8931 29.5857 62.8915 29.6897 62.8141 30.0098C62.7478 30.2515 62.7083 30.3683 62.6988 30.3555C62.6277 30.69 62.5456 31.1349 62.6783 30.7332L62.6735 30.5908C62.7114 30.4659 62.7667 30.2851 62.8252 30.0898C62.8852 29.8994 62.9563 29.6897 63.0258 29.5457C63.0337 29.5249 63.0432 29.5153 63.0511 29.5009C63.0574 29.4929 63.07 29.4657 63.0685 29.4737L63.0527 29.4593C63.0321 29.44 63.0148 29.4208 62.9958 29.4L62.9832 29.384L62.9768 29.376C63.1569 29.5681 63.0274 29.4288 63.0669 29.4721L63.0716 29.4689C63.0843 29.4593 63.0969 29.4497 63.108 29.4416C63.1522 29.4048 63.2059 29.376 63.2407 29.3552C63.3181 29.3152 63.3433 29.312 63.2881 29.3664C63.4318 29.2624 63.5408 29.1936 63.5882 29.1552C63.6388 29.1168 63.634 29.1104 63.5914 29.128C63.5108 29.1648 63.2565 29.2784 63.0732 29.424C63.277 29.264 63.5535 29.1456 63.8046 28.9823C63.9326 28.9007 64.0606 28.8031 64.1759 28.6734C64.2928 28.5486 64.386 28.3694 64.4192 28.1853C64.4413 28.0925 64.4381 28.0028 64.4366 27.9132C64.4287 27.83 64.4113 27.7372 64.3971 27.6668C64.3671 27.5387 64.337 27.4075 64.3054 27.273C64.2438 27.0042 64.1791 26.7177 64.1127 26.3976L64.0764 26.2216L63.8978 26.1639C63.8536 26.1495 63.7952 26.1303 63.7351 26.1127C63.792 26.1351 63.8489 26.1591 63.8931 26.1815L64.0874 26.2744L64.0969 26.4024C64.1064 26.5368 64.0985 26.6057 64.0622 26.4472C64.059 26.4328 64.0558 26.4184 64.0542 26.412L64.0258 26.2696L63.8805 26.2232C61.9673 25.6198 63.0163 26.0471 61.6814 25.6758C61.0321 25.4341 61.7509 25.5734 61.0416 25.3829L61.2154 25.5478C61.1759 25.4485 61.1253 25.3173 61.0606 25.1493C60.8062 24.3202 61.0921 24.9428 61.2375 25.2565C61.0132 24.7251 60.8378 24.2114 60.6893 23.7457L60.6151 23.5104L60.3417 23.4976C60.1632 23.4896 59.9942 23.4816 59.8315 23.4752L59.5582 23.4624L59.4523 23.7681C59.3354 24.109 59.1948 24.4179 59.0811 24.6531C59.1585 24.4595 59.2248 24.2562 59.2833 24.0514C59.1774 24.4179 59.0526 24.7075 58.9089 24.9684C58.9863 24.882 59.0605 24.7876 59.1332 24.6883C58.9689 25.026 58.7999 25.2565 58.7793 25.2309C58.6988 25.3781 58.7588 25.3461 58.8014 25.3509C58.822 25.3525 58.8362 25.3621 58.8204 25.4085C58.8046 25.4534 58.7604 25.543 58.645 25.6454C58.5566 25.695 58.465 25.7254 58.3686 25.7078C58.2074 25.6742 58.0289 25.6294 57.863 25.5798C57.5313 25.4774 57.2454 25.3557 57.1806 25.2773C57.5534 25.4357 57.7351 25.4902 57.8125 25.5062C57.8899 25.5238 57.8662 25.4998 57.8362 25.4742C57.8062 25.4469 57.7683 25.4165 57.8188 25.4181C57.8694 25.4181 58.0068 25.4582 58.3212 25.5286C58.0779 25.487 57.7777 25.3941 57.4239 25.2453C57.3749 25.2149 57.4823 25.2453 57.5803 25.2757C57.16 25.0917 56.9357 24.9876 56.7793 24.9332C56.6261 24.8772 56.5376 24.8644 56.4175 24.834L55.8536 24.6883L55.8662 25.1221C55.8709 25.2981 55.8615 25.5606 55.7556 26.2168C55.7335 25.9991 55.5897 26.5801 55.5581 26.8505C55.6656 26.188 55.7003 26.5497 55.6466 27.1626C55.5692 27.5499 55.5281 27.8076 55.506 27.9868L55.4791 28.2029L55.6529 28.2925C55.972 28.4574 56.1316 28.5118 56.4349 28.683L55.8931 28.3581C56.0305 28.3934 56.2659 28.5118 56.5992 28.6878L56.5092 28.4958C56.4776 28.691 56.4397 28.9279 56.397 29.1936C56.3433 29.248 56.4886 28.523 56.4223 28.7807C56.3717 29.6113 55.9894 30.5972 55.8488 31.7415C55.7588 32.092 55.7398 31.9831 55.7019 32.02L55.9436 31.7463C55.9247 31.7367 55.8725 31.7383 55.7256 31.7735C54.6213 32.1752 54.4112 32.1112 53.3891 32.4457L53.1979 32.5081L53.1316 32.6729C53.1 32.7498 53.0637 32.8442 53.0226 32.9466C53.2501 32.6217 53.2595 32.5513 52.9404 33.4524L53.2422 32.7241L53.2911 32.6073L53.4238 32.5641L54.7761 32.1224L53.4523 32.6361C54.0889 32.4457 54.7825 32.1864 55.1679 32.084C54.5407 32.3368 54.6008 32.3 54.9231 32.268C54.4238 32.3512 53.9546 32.5209 53.4602 32.6937L53.3875 32.7193L53.3638 32.7786C53.209 33.1771 53.0447 33.5884 52.8204 34.0093L52.6624 33.9021C52.4886 34.2446 52.3369 34.5743 52.1948 34.9039L52.4602 34.6943C51.9783 34.7871 51.5076 34.8943 51.0004 35.0048L51.3053 35.1232C51.16 34.9456 51.0099 34.7615 50.8535 34.5695L50.7429 34.4334L50.5865 34.4574C50.1205 34.5278 49.6102 34.5967 49.0336 34.6543L49.6924 34.6047C49.4791 34.6927 48.7887 34.7471 48.1868 34.8255L48.0289 34.8463L47.9957 35.0032C47.9641 35.1456 47.9372 35.2833 47.9151 35.4097C47.8677 35.3345 47.7556 35.741 47.656 36.0115C47.6987 35.9922 47.457 36.9685 47.4064 37.4486L47.577 37.2486C47.4649 37.3062 47.389 37.3542 47.3638 37.3894L46.4775 37.6407C45.5423 37.9784 45.1157 38.2153 44.5991 38.4697L44.8408 38.5513C44.6149 38.2569 44.3748 37.9288 44.0573 37.4134L44.0178 37.3494L43.9388 37.3462C43.9214 37.3462 43.8961 37.3446 43.8709 37.343C43.8866 37.3414 43.9024 37.3382 43.9151 37.3366C43.9214 37.3366 43.9261 37.335 43.9309 37.3334C43.9325 37.3334 43.934 37.3334 43.9356 37.3334H43.9372L44.0667 37.4086C44.0699 37.4086 44.0715 37.4086 44.0699 37.4054C44.2753 37.6247 44.0383 37.1702 44.596 37.9736C44.438 37.7207 44.2911 37.4807 44.19 37.3286L44.0952 37.1862H43.9404C43.7776 37.1846 43.6813 37.1894 43.6765 37.2086C43.3669 37.1606 42.201 37.2518 41.7129 37.1782C41.498 37.199 41.4206 37.2582 40.8803 37.2438L40.7365 37.2406L40.716 37.3862C40.7144 37.3974 40.7113 37.423 40.7065 37.4502C40.6844 37.5143 40.6765 37.4438 40.6765 37.4438C40.7065 37.4502 40.5849 38.3865 40.7271 37.8744C40.558 38.5177 40.4222 39.3772 40.2974 40.2686L40.2847 40.3534L40.3432 40.4143C40.6813 40.768 41.0256 41.1265 41.3558 41.4705L41.4048 41.5202H41.4727C42.3069 41.5346 43.0746 41.5586 43.6197 41.6338C44.7002 41.6338 45.9846 41.6402 46.9799 41.653L46.8772 41.621C46.9625 41.6786 47.0225 41.7202 47.0841 41.7618C47.0178 41.7394 47.0636 41.7858 46.904 41.6674C47.4838 42.1027 47.6876 42.2004 47.9135 42.3108C48.1347 42.426 48.3954 42.5428 49.0004 43.1014C49.1426 43.2582 49.16 43.3079 49.1316 43.2903C49.1015 43.2742 49.0131 43.199 48.9135 43.1174C48.7176 42.9542 48.4854 42.7685 48.6766 42.9478C48.6876 43.0246 48.7903 43.1382 48.9388 43.2839C49.0099 43.3559 49.1015 43.4375 49.1805 43.5239C49.2263 43.5687 49.2579 43.6103 49.2911 43.6504C49.3227 43.6952 49.3543 43.7464 49.3827 43.804C49.5012 44.0313 49.5534 44.3545 49.6766 44.7066C49.7398 44.8811 49.833 45.0651 49.9657 45.214C49.9973 45.2524 50.032 45.2876 50.0699 45.318C50.1063 45.35 50.1426 45.3836 50.1805 45.4092C50.2184 45.4348 50.2548 45.4605 50.2911 45.4861C50.3211 45.5069 50.3511 45.5261 50.3812 45.5469C50.3385 45.5261 50.3022 45.5101 50.2548 45.4845C50.2058 45.4556 50.1553 45.43 50.1063 45.3964C50.1553 45.4364 50.2105 45.4733 50.2643 45.5085C50.3101 45.5357 50.3559 45.5629 50.4033 45.5901C50.4996 45.6445 50.6023 45.6989 50.7098 45.7517C50.9278 45.8574 51.1584 45.9598 51.4254 46.0622L51.2659 45.6781C51.0621 46.2671 50.8377 46.9377 50.5534 47.637C50.5534 47.637 50.5613 47.5666 50.5281 47.6178C50.3654 48.2116 50.0494 49.1175 49.7208 50.0201L49.7556 49.9705C49.5328 50.1865 49.3101 50.4042 49.0952 50.6123L49.1379 50.5883C48.9104 50.6651 48.7003 50.7339 48.5012 50.8011C48.8756 50.5995 49.0699 50.5803 48.803 50.5755C48.2326 50.7643 49.0099 50.6507 47.8725 51.0268C47.487 51.0988 46.6513 51.3181 46.517 51.2684L47.5944 50.9292C47.0083 50.9916 46.1995 51.3661 45.6244 51.5245L45.6829 51.4541C45.2563 51.5901 44.9404 51.7006 44.6797 51.7966L44.5754 51.835L44.5328 51.907C44.1126 52.6048 43.9593 52.9521 43.1773 54.0996L43.3163 53.9604C43.0841 54.4149 42.9498 54.5846 42.814 54.7478L42.8724 54.703C42.6607 54.7494 42.4522 54.791 41.9783 54.9959L41.6481 54.9719C41.0841 55.1863 39.7602 55.7049 38.6939 56.0906L38.6386 56.1114L38.6259 56.1642C38.588 56.313 38.5564 56.4363 38.5264 56.5547C38.5422 56.4459 38.5628 56.3178 38.5943 56.1546L38.607 56.0938L38.6844 56.0602C39.3447 55.7705 40.3874 55.3832 41.0699 55.1095C40.4569 55.3112 39.0177 55.7961 38.6575 55.9753L38.528 56.0394L38.5106 56.1306C38.5059 56.153 38.5043 56.1642 38.5043 56.1754C38.5075 56.161 38.5106 56.1466 38.5138 56.1306L38.5375 56.025L38.6575 55.9785C38.8993 55.8841 39.1915 55.7609 39.4348 55.7001C39.2089 55.8073 38.9577 55.9161 38.6749 56.0314L38.5817 56.0698L38.5659 56.1466C38.4664 56.6411 38.3305 57.2077 38.1646 57.8415L38.2041 57.7838C38.0351 57.9055 37.8503 58.0351 37.656 58.1679C37.6844 57.9983 36.9672 58.48 36.1109 59.0146C35.6828 59.2818 35.2183 59.5603 34.8013 59.7748C34.3874 59.9892 34.0082 60.1285 33.7744 60.1797C32.945 60.575 32.0698 60.8919 31.1709 61.1656L30.7949 61.2808L30.9845 61.6361C31.4758 62.5595 31.9798 63.507 32.5153 64.5153L32.6164 64.7041H32.8376C33.2673 64.7105 33.7112 64.7121 34.1678 64.7089C33.4679 64.5713 34.1962 64.6305 34.5864 64.5985L34.3558 64.4609C34.4411 64.5937 34.5122 64.6721 34.5359 64.6033C34.8534 65.1619 34.9672 65.3779 34.9829 65.4339L35.8092 67.1992C35.9798 67.6313 35.4806 66.6839 35.4711 66.7559C36.1283 67.9978 35.6812 67.3145 36.0793 68.1563C36.0588 68.017 36.2183 68.2523 36.4443 68.6572L36.6338 68.9981L36.9814 68.8509C37.1583 68.7757 37.3763 68.6876 37.607 68.5964L36.964 68.8093L36.6117 68.9261L36.4822 68.6348L36.2973 68.2187C36.3874 68.3675 36.4679 68.502 36.5311 68.6076L36.6891 68.8717L36.945 68.7581C37.6228 68.4556 37.9593 68.3515 38.3368 68.2235C38.5248 68.1595 38.7207 68.0891 38.9703 67.977C39.2199 67.865 39.5217 67.7178 39.9214 67.4713C39.7413 67.5929 39.5612 67.7098 39.3795 67.8234C39.6086 67.6954 39.9293 67.5385 40.3147 67.2856C40.3637 67.2536 40.4111 67.2232 40.468 67.1768C40.5154 67.1384 40.5628 67.1 40.6102 67.0616C40.6686 67.0104 40.7413 66.9576 40.8234 66.9079C40.9846 66.8071 41.1741 66.7143 41.3716 66.6327C41.765 66.471 42.1963 66.343 42.547 66.2758C42.637 66.2614 42.6971 66.2486 42.7729 66.2502C42.8487 66.2502 42.9325 66.2502 43.0083 66.255C43.1631 66.2614 43.3037 66.2758 43.419 66.2838C43.5754 66.3494 43.765 66.455 43.3716 66.3654C43.8993 66.4982 44.4522 66.7287 44.7982 67.1096C44.972 67.3033 45.0762 67.5161 45.1299 67.7866C45.1884 68.0987 45.2405 68.414 45.2405 68.6828C45.2405 68.8141 45.2216 68.9341 45.1916 68.9853C45.1821 68.9949 45.1773 69.0093 45.1679 69.0189C45.1552 69.0253 45.1521 69.0381 45.1363 69.0477C45.1189 69.0541 45.111 69.0669 45.0889 69.0749L45.0225 69.0989C44.9198 69.1262 44.7871 69.1374 44.6528 69.139C44.5849 69.139 44.5154 69.1358 44.4475 69.1342C44.3748 69.131 44.3021 69.1262 44.231 69.1229C43.6544 69.0909 43.1094 69.0541 42.6181 69.0573C42.6813 69.0381 42.7445 69.0173 42.8076 69.0013C42.5723 69.0157 42.3669 69.0493 42.1441 69.0973C41.9214 69.147 41.6844 69.1918 41.3669 69.3022C41.3906 69.2734 41.5501 69.1758 41.3163 69.2718C41.2516 69.3086 41.1378 69.3694 41.0019 69.4814C40.934 69.5311 40.8645 69.6143 40.7966 69.6863C40.7492 69.7423 40.7034 69.8015 40.6465 69.8624C40.4269 70.1072 40.1473 70.3713 39.9166 70.5553C40.032 70.4305 40.1441 70.3057 40.2547 70.1808C39.5944 70.7474 39.0493 71.2163 38.5485 71.6468L38.3574 71.8101L38.4127 72.0261C38.5564 72.5863 38.7002 73.1016 38.844 73.6346L38.8724 73.7402L38.934 73.7914C39.152 73.9707 39.3748 74.1531 39.607 74.3452L39.5596 74.0235C39.4364 74.2444 39.3068 74.4748 39.1662 74.7149C39.1331 74.6925 39.0319 74.8013 38.885 74.9918L39.2642 74.8509C38.7365 74.6029 37.6638 74.2123 37.0398 73.9851L37.0762 73.9771C36.4474 73.761 35.8613 73.569 35.3021 73.3913L35.0683 73.3177L34.8897 73.4633C34.4837 73.7946 34.0998 74.1163 33.7239 74.4316L33.43 74.6781L33.6306 74.9758C34.3289 76.0128 35.0082 76.9987 35.7665 78.151C35.8502 78.3175 35.9529 78.5079 36.073 78.7208L36.2025 78.9513L36.479 78.8488C37.2847 78.5511 38.3748 78.0934 39.5201 77.6085L39.1504 77.5701C39.5075 77.8229 39.8708 78.0806 40.231 78.3367L40.0651 77.9606C39.9577 78.7704 39.8471 79.5642 39.7365 80.2748L39.6828 80.6205L40.032 80.7405C40.1331 80.7758 40.2215 80.8062 40.31 80.8366C40.0256 80.7277 40.2452 80.7357 40.5628 80.8046L40.7113 80.8366L40.7918 80.7918C40.8677 80.7485 40.953 80.7037 41.0399 80.6621C41.5928 80.4477 42.498 79.9051 42.4648 80.062L42.2705 80.1452C42.4791 80.1148 42.8203 79.9899 43.2121 79.8267L43.3053 79.7883L43.3779 79.6971C43.4617 79.5898 43.5502 79.4778 43.6418 79.3642L43.7508 79.2249L43.7302 79.0425C43.6844 78.6424 43.637 78.2166 43.5928 77.8341L43.4095 77.6949C43.4001 77.1219 43.3527 76.4738 43.2863 75.7952L43.0604 76.1729C44.8187 75.5103 46.7508 74.6397 47.9609 74.2236L48.1331 74.1643L48.171 73.9547C48.2232 73.6666 48.2753 73.4249 48.3322 73.2393C48.3733 72.6327 48.4759 71.8869 48.5154 71.2851L48.5992 71.33C48.6797 70.789 48.7477 70.3361 48.814 69.896L48.6955 70.1392C49.0826 69.7535 49.457 69.379 49.923 68.9053L49.6687 69.0285C49.9752 68.9917 50.4586 68.9357 51.0415 68.8669L50.6324 68.9773C51.784 68.8573 52.0573 68.558 53.1189 68.4348L53.3243 68.4956L53.0684 68.3948L53.111 68.5228C53.705 69.203 54.2864 69.9024 54.8709 70.5938L54.9957 70.7426L55.1995 70.7234C56.3228 70.621 57.4428 70.5057 58.5392 70.3185C58.5092 70.3425 58.4539 70.3873 58.1285 70.4273C58.4081 70.4001 58.8409 70.3601 59.3038 70.3153L59.5455 70.2929L59.6482 70.0576C59.9705 69.3198 60.3212 68.4988 60.4081 68.1723L60.2849 68.3323C60.4002 68.2203 60.4255 68.1675 60.3496 68.1803C60.4113 68.2347 61.1459 67.6377 61.8726 67.0232L62.0226 66.8967L62.0021 66.7287C61.9436 66.2678 61.8852 65.8068 61.841 65.4499L61.9421 65.6148C61.8173 64.997 61.762 64.7826 61.6956 64.296L61.6719 64.1168L61.5203 64.096C61.3133 64.0672 61.0305 64.0191 60.6119 63.9439C60.3149 63.8703 60.3639 63.8207 60.7556 63.9247C59.882 63.7023 59.9342 63.8127 59.119 63.635L59.2691 63.8095C59.2612 63.7039 59.2533 63.579 59.2422 63.435C59.2706 63.5582 59.2975 63.6783 59.3228 63.8063L59.13 63.5822L59.2264 63.5902C59.1853 63.5822 59.1458 63.5726 59.1316 63.5694L59.3354 63.8047C59.2959 63.3102 59.2517 63.0909 59.2106 62.9132C59.168 62.7388 59.1253 62.6156 59.0368 62.3435C58.95 62.0154 58.833 61.5193 58.6561 61.0919C58.5692 60.8791 58.4649 60.6822 58.3559 60.5334C58.2469 60.3846 58.1379 60.2853 58.1016 60.2437C58.0779 60.2373 58.0495 60.2229 58.0068 60.2133C57.9863 60.2085 57.9642 60.2021 57.9405 60.1957C57.9152 60.1893 57.8915 60.1829 57.8741 60.1797C57.7951 60.1653 57.6956 60.1429 57.5866 60.1093C57.3686 60.0421 57.1032 59.9252 56.8773 59.7444C56.833 59.674 57.01 59.7844 57.1063 59.826C56.9373 59.714 56.7935 59.5971 56.6719 59.4739C56.5502 59.3507 56.4491 59.2178 56.3354 59.0754C56.3054 59.0386 56.2706 58.997 56.2248 58.9554C56.179 58.9121 56.1237 58.8753 56.0779 58.8513C55.9863 58.8017 55.9104 58.7729 55.8362 58.7409C55.6861 58.6801 55.5613 58.6305 55.4381 58.5681C55.1964 58.4464 54.9878 58.3008 54.8472 58.1087C54.7761 58.0127 54.7256 57.9071 54.6972 57.7934C54.6703 57.6814 54.6561 57.5262 54.645 57.3805C54.6703 57.3517 54.6735 57.2733 54.6687 57.1725C54.6908 57.3437 54.7145 57.5118 54.743 57.6638C54.7493 57.7038 54.7572 57.7374 54.7651 57.7646C54.7714 57.795 54.7825 57.8222 54.7919 57.8511C54.8125 57.9071 54.8393 57.9599 54.8709 58.0095C54.9957 58.2096 55.1869 58.3568 55.3543 58.4608C55.5234 58.5664 55.6703 58.6321 55.7698 58.6785C55.8709 58.7249 55.9199 58.7489 55.8946 58.7393C55.9025 58.7201 55.8425 58.6753 55.7651 58.6257C55.6908 58.5761 55.6055 58.5216 55.5439 58.4736C55.4839 58.4256 55.4491 58.3872 55.4744 58.3808C55.4997 58.3728 55.5787 58.3984 55.7714 58.456C55.5834 58.3872 55.3701 58.2944 55.1885 58.1615C55.0984 58.0959 55.0163 58.0191 54.9547 57.9327C54.9215 57.8895 54.8962 57.8447 54.8741 57.7966C54.852 57.747 54.8362 57.7022 54.8172 57.6238C54.6814 57.0268 54.5913 56.3546 54.5518 55.8089C54.555 55.7545 54.5565 55.7017 54.5644 55.6617L54.585 55.7737C54.5723 55.5896 54.5534 55.4184 54.5313 55.2615L54.5249 55.2215V55.2135C54.5044 55.1527 54.4886 55.0951 54.4712 55.0391C54.4033 54.6934 54.3622 54.4741 54.2848 54.1444C54.3006 54.0676 54.2295 53.6947 54.1426 53.2818L53.7951 53.7715C54.1395 53.7299 54.5139 53.6867 54.7651 53.6563C54.7098 53.5715 55.4381 53.5027 54.7477 53.5075C54.8362 53.5043 54.6434 53.5299 54.2753 53.5763C54.1916 53.5891 54.0937 53.6019 54.04 53.6131C54.051 53.6099 54.0637 53.6051 54.0763 53.6003L53.7793 53.6355L54.0099 53.3106C54.0874 53.6691 54.1616 54.026 54.2516 54.3829C54.1379 54.0644 54.0384 53.7315 53.961 53.3218L53.7745 53.5843C53.9088 53.5715 54.0526 53.5619 54.2058 53.5571C54.4839 53.4674 54.7919 53.3714 54.9657 53.3234C55.7398 53.3618 57.2122 53.261 57.4255 53.3138C57.4491 53.3106 57.4713 53.3074 57.4981 53.3042L57.5534 53.2962L57.5866 53.2818C59.0463 52.6592 60.9847 51.907 61.98 51.3709L61.7778 51.3309C61.8536 51.3901 61.9168 51.4349 61.9752 51.4765C62.3433 51.7982 62.3481 51.899 62.4634 52.0447C62.2485 51.8622 62.0068 51.6285 61.8805 51.5421C62.6166 52.1839 63.9847 53.5267 64.2343 53.6003C65.089 54.4885 63.6609 53.2018 64.8963 54.3557L64.7067 54.2245C65.1016 54.6454 65.4824 55.0263 65.8552 55.3816L65.9089 55.4328L65.98 55.4536C66.7288 55.6745 67.435 55.8537 68.1443 56.0266L68.3181 56.0698L68.405 55.9401C68.7841 55.3768 69.1601 54.8118 69.5756 54.2229L69.4271 54.2821C69.7889 54.3349 70.1601 54.3925 70.5472 54.4613L70.4398 54.2773C70.3387 54.5654 70.2297 54.8646 70.1112 55.1735L70.0954 55.2151L70.108 55.2679C70.1902 55.596 70.2707 55.9417 70.3497 56.305C70.2928 56.0538 70.2644 55.9289 70.2691 55.8729C70.3134 56.0394 70.356 56.2058 70.4003 56.3738L70.4319 56.4923L70.5598 56.5019C71.1554 56.5483 71.7541 56.5883 72.3576 56.6251L72.503 56.6347L72.5551 56.4907C72.6609 56.1946 72.8047 55.8921 72.9753 55.6312C73.0622 55.5 73.1602 55.3832 73.266 55.292C73.3734 55.2023 73.4856 55.1463 73.5915 55.1543C74.2676 55.1927 74.9422 55.1943 75.6183 55.1911H75.7194L75.77 55.1031C76.315 54.1572 76.8616 53.2146 77.413 52.2863C77.691 51.8222 77.9659 51.3613 78.2408 50.9019C78.5125 50.4474 78.7921 50.0025 79.1286 49.644C79.3166 49.4423 79.4762 49.3111 79.612 49.2167C79.6815 49.1735 79.7431 49.1303 79.8032 49.1015C79.8695 49.0662 79.9296 49.0358 79.9864 49.0054C80.2582 48.8582 80.4225 48.7029 80.6847 48.4389C80.7732 48.4069 80.8553 48.3668 80.9422 48.33C81.2234 48.0051 81.4635 47.6563 81.6736 47.2898C81.8695 46.9761 82.0449 46.6752 82.1966 46.3663C82.3466 46.0574 82.4762 45.7373 82.5173 45.3692L82.3182 45.5229C83.2187 45.7821 84.1634 46.0414 85.4588 46.1326L85.1855 46.0286C85.5757 46.0926 86.1997 46.163 86.7116 46.2047C87.2219 46.2495 87.62 46.2671 87.5521 46.3023C87.6342 46.2927 87.8143 46.2463 88.1271 46.2799L88.1524 46.3311C88.481 46.3135 88.8096 46.2831 89.1382 46.2207C89.4636 46.155 89.7969 46.0686 90.0908 45.867C90.2677 45.7613 90.3736 45.6285 90.4336 45.5245C90.4905 45.4204 90.5157 45.374 90.5442 45.3372C90.5947 45.2684 90.6137 45.2844 90.6405 45.2812C90.6943 45.2748 90.778 45.1804 91.2014 44.1625C91.3499 43.7816 91.541 43.2342 91.7211 42.8501C91.8965 42.4644 92.0703 42.2388 91.9597 42.3348C91.7496 42.5653 91.4905 43.0054 91.4368 43.0054C91.5426 42.7797 91.6595 42.5605 91.8033 42.3572C91.7859 42.258 91.8491 42.0675 91.7527 42.0755C91.6674 42.0787 91.3309 42.3092 90.887 43.1622C90.729 43.5767 90.5947 43.988 90.4589 44.3978L90.2361 44.7547L90.6453 43.7464C90.3435 44.2937 90.2551 44.6762 90.1255 45.0955C90.0876 45.1356 90.0465 45.1948 89.9992 45.2732C89.9644 45.318 89.9439 45.334 89.887 45.3772C89.8206 45.4716 89.6737 45.5693 89.5078 45.6429C89.3404 45.7181 89.1524 45.7757 88.9581 45.8237C88.8838 45.8029 89.0118 45.7581 89.0576 45.7261C89.1018 45.6893 89.075 45.6845 88.6816 45.7021C88.1271 45.8013 89.233 45.8045 88.2993 45.8942C88.0007 45.8654 87.8964 45.8318 87.778 45.8141C87.6595 45.7965 87.5299 45.7933 87.1777 45.8013C87.0813 45.7549 87.2314 45.7437 87.5094 45.7405C86.8854 45.7661 85.8585 45.6173 85.5252 45.6477C85.2187 45.5645 84.6911 45.4893 84.2519 45.4092C83.8111 45.3308 83.4604 45.2524 83.5031 45.1884C83.3656 45.1852 82.8854 45.1372 82.4209 45.0587L82.0544 44.9963L82.0449 45.35C82.0402 45.5245 82.0149 45.7133 81.958 45.8734C81.9975 45.39 81.9248 45.8622 81.6342 46.3983C81.4904 46.664 81.3103 46.9425 81.1571 47.1233C81.0054 47.3058 80.8964 47.3986 80.9027 47.3186C80.8142 47.485 80.661 47.7027 80.4493 47.9203C80.2392 48.138 79.9706 48.3652 79.6863 48.4837C79.2297 48.6645 78.8632 49.0038 78.5931 49.3479C78.3198 49.6952 78.1144 50.0521 77.9501 50.3738C77.9801 50.2986 78.0417 50.1481 78.116 50.0425C77.6815 50.7371 77.5488 50.9163 77.2645 51.3341C77.3182 51.4861 76.7147 52.5712 76.4414 53.1874C75.8442 53.9668 76.6167 52.6 76.3624 52.8049C76.473 52.8145 75.5883 54.3205 75.8284 54.0772C75.454 54.5894 75.4572 54.6182 75.2802 54.8118L75.6136 54.6198C75.6057 54.6102 75.5583 54.5974 75.5014 54.5814C75.3719 54.7366 74.8174 54.6054 74.2091 54.6806C73.6767 54.6246 73.6531 54.567 73.4714 54.5622C73.3971 54.5541 73.3197 54.5669 73.1554 54.6294C72.999 54.6998 72.7889 54.8534 72.582 55.1399C72.3734 55.3944 72.4271 55.2647 72.5535 55.0647C72.6183 54.9655 72.7147 54.8502 72.8094 54.7622C72.86 54.719 72.9042 54.6822 72.9343 54.6566C72.969 54.631 72.9943 54.6182 72.9943 54.6182L73.0211 54.623ZM54.0605 56.1674H54.0589C54.0321 55.9241 54.0084 55.7177 53.9941 55.5848C54.0084 55.7065 54.0273 55.8745 54.0605 56.1674ZM54.6924 58.5713C54.5787 58.4528 54.4586 58.3008 54.3733 58.1087C54.3512 58.0623 54.3354 58.0095 54.3164 57.9599C54.3038 57.9087 54.2864 57.8511 54.2785 57.803C54.2595 57.707 54.2437 57.611 54.2295 57.515C54.2485 57.4269 54.2896 57.5118 54.3306 57.755C54.3117 57.691 54.3085 57.7966 54.3622 57.9951C54.3875 58.0927 54.4381 58.1983 54.4949 58.3024C54.5566 58.4016 54.6261 58.4992 54.694 58.5729L54.6924 58.5713ZM54.179 53.4578C54.269 53.8211 54.2769 53.9476 54.2706 54.002C54.2311 53.8291 54.1853 53.6291 54.1237 53.365C54.1189 53.3554 54.1095 53.3346 54.1031 53.3234C54.1268 53.3554 54.1505 53.3906 54.1774 53.4578H54.179Z" fill="#6B562F"/>
    <path d="M54.2987 53.5811C54.3524 53.5731 54.3808 53.5667 54.4503 53.5571C54.3745 53.5587 54.3018 53.5603 54.2276 53.5619C54.1833 53.5763 54.1391 53.5923 54.0996 53.6051C54.166 53.5971 54.2355 53.5891 54.2987 53.5811Z" fill="#6B562F"/>
    <path d="M68.7619 44.3337L68.7129 44.3225C68.7525 44.3337 68.7889 44.345 68.8126 44.3562C68.7809 44.345 68.7809 44.3418 68.7619 44.3354V44.3337Z" fill="#6B562F"/>
    <path d="M47.4922 73.5787H47.5159L47.5238 73.3706L47.4922 73.5787Z" fill="#6B562F"/>
    <path d="M78.8682 39.2939C78.8919 39.2827 78.9345 39.2571 79.0135 39.1963C79.004 39.1963 78.9424 39.2411 78.8682 39.2939Z" fill="#6B562F"/>
    <path d="M83.4209 36.1955L84.135 35.853C83.8237 35.9971 83.5994 36.1075 83.4209 36.1955Z" fill="#6B562F"/>
    <path d="M86.849 33.6735C86.838 33.6173 86.8269 33.6013 86.8174 33.5852C86.8174 33.5884 86.8174 33.5916 86.8174 33.5932L86.8506 33.6719L86.849 33.6735Z" fill="#6B562F"/>
    <path d="M56.4678 28.0125C56.5183 28.0397 56.5705 28.0653 56.6147 28.0893C56.9638 28.2637 56.7284 28.1405 56.4678 28.0125Z" fill="#6B562F"/>
    <path d="M61.8964 32.3913C61.9217 32.1737 61.9486 31.9576 61.9833 31.7319C61.9043 32.0904 61.849 32.3705 61.8964 32.3913Z" fill="#6B562F"/>
    <path d="M41.9724 37.8999C41.9724 37.8999 41.9724 37.8999 41.9756 37.8999C41.9266 37.8999 41.8839 37.8967 41.835 37.8967L41.9724 37.9015V37.8999Z" fill="#6B562F"/>
    <path d="M62.1866 30.7925C62.0871 31.1478 62.0286 31.4503 61.9844 31.7319C62.0507 31.4375 62.1329 31.0918 62.1866 30.7925Z" fill="#6B562F"/>
    <path d="M91.8623 37.719L91.9855 37.8822C91.9855 37.8822 91.9997 37.8822 92.0124 37.8934L91.8623 37.719Z" fill="#6B562F"/>
    <path d="M92.0117 37.8936L92.1586 38.0696C92.0954 37.9864 92.0402 37.9144 92.0117 37.8936Z" fill="#6B562F"/>
    <path d="M92.4621 38.4457L92.1572 38.0696C92.2568 38.204 92.3768 38.3721 92.4621 38.4457Z" fill="#6B562F"/>
    <path d="M88.1349 33.5885L88.0938 33.5259C88.1048 33.5628 88.1191 33.5836 88.1349 33.5885Z" fill="#6B562F"/>
    <path d="M88.7782 32.1208C88.7813 32.1529 88.775 32.1769 88.7703 32.1929C88.7624 32.2057 88.7529 32.2169 88.7323 32.2377C88.6834 32.2793 88.5696 32.3385 88.4401 32.4121L88.3911 32.4409L88.32 32.4922C88.2726 32.5242 88.2331 32.577 88.1936 32.6234C88.1257 32.7242 88.0767 32.8394 88.0609 32.9403C88.0214 33.1483 88.0436 33.3164 88.0641 33.4716L88.0973 33.526C88.0767 33.4556 88.0578 33.3356 88.0609 33.1675C88.0609 33.0843 88.0736 32.9835 88.1052 32.8747C88.1399 32.7626 88.2063 32.641 88.3074 32.5466C88.4243 32.4505 88.4891 32.4265 88.5633 32.3833C88.6328 32.3449 88.6944 32.3065 88.7323 32.2761C88.7703 32.2425 88.7845 32.2233 88.7876 32.2041C88.7908 32.1817 88.7908 32.1545 88.7813 32.124L88.7782 32.1208Z" fill="#6B562F"/>
    <path d="M85.4957 30.125L85.9602 28.7358C85.8512 28.9695 85.7058 29.2768 85.897 28.6382C85.2445 30.3683 86.085 28.2989 85.4941 30.125H85.4957Z" fill="#6B562F"/>
    <path d="M86.3766 34.147C86.4146 33.3596 86.3261 34.1534 86.3103 34.1102C86.3103 34.1838 86.3103 34.2495 86.3103 34.2863L86.4493 34.0718C86.195 34.2286 86.1571 34.2591 86.4714 34.115L86.3577 34.2911C86.3624 34.2735 86.3688 34.2158 86.3766 34.1486V34.147Z" fill="#6B562F"/>
    <path d="M60.4143 41.4722L60.4807 41.3794C59.8882 41.4754 60.4807 41.4114 60.4143 41.4722Z" fill="#6B562F"/>
    <path d="M57.2543 37.5686C57.2385 37.7671 57.2243 37.9671 57.2148 38.1688L57.3017 38.452C57.2765 38.156 57.2638 37.8631 57.2543 37.5686Z" fill="#6B562F"/>
    <path d="M59.5546 36.13L59.2939 36.1604L60.2892 36.0596L59.5546 36.13Z" fill="#6B562F"/>
    <path d="M42.3685 41.7122L42.1884 41.6082C41.7824 41.6178 41.6955 41.7298 42.3685 41.7122Z" fill="#6B562F"/>
    <path d="M43.2574 53.8965C43.1232 54.0309 42.8767 54.3494 42.6792 54.6535L42.8277 54.5415C42.6966 54.5879 42.5734 54.6359 42.4707 54.6839C42.5939 54.6471 42.7172 54.6087 42.8372 54.5735L42.7061 54.6727C42.9352 54.3558 43.15 54.0725 43.2574 53.8965Z" fill="#6B562F"/>
    <path d="M43.4157 76.4994L43.5026 76.9716L43.373 76.0769L43.4157 76.4994Z" fill="#6B562F"/>
</svg>