<svg xmlns="http://www.w3.org/2000/svg" viewBox="0 0 131 76">
<path d="M36.8995 27.6029C36.8995 29.1667 37.0738 30.4346 37.3788 31.3644C37.7273 32.2942 38.1629 33.3086 38.7728 34.4075C38.9907 34.7456 39.0778 35.0837 39.0778 35.3796C39.0778 35.8022 38.8164 36.2249 38.2501 36.6475L35.5055 38.4226C35.1134 38.6762 34.7213 38.803 34.3728 38.803C33.9371 38.803 33.5015 38.5917 33.0658 38.2113C32.4559 37.5774 31.9331 36.9011 31.4975 36.2249C31.0618 35.5064 30.6262 34.7033 30.147 33.7313C26.7489 37.6196 22.4795 39.5638 17.3389 39.5638C13.6794 39.5638 10.7605 38.5494 8.62585 36.5207C6.49116 34.492 5.40204 31.7871 5.40204 28.4059C5.40204 24.8134 6.70899 21.8971 9.36646 19.6993C12.0239 17.5016 15.5527 16.4027 20.0399 16.4027C21.5211 16.4027 23.0459 16.5295 24.6578 16.7408C26.2697 16.9521 27.9251 17.2902 29.6677 17.6706V14.5853C29.6677 11.3732 28.9707 9.13313 27.6202 7.82292C26.2261 6.51271 23.8736 5.87874 20.5191 5.87874C18.9943 5.87874 17.426 6.0478 15.8141 6.42818C14.2022 6.80856 12.6338 7.27348 11.1091 7.86519C10.412 8.16104 9.88924 8.3301 9.58428 8.41463C9.27933 8.49916 9.0615 8.54142 8.88724 8.54142C8.27733 8.54142 7.97237 8.11877 7.97237 7.23121V5.16024C7.97237 4.484 8.0595 3.97682 8.27733 3.68097C8.49515 3.38511 8.88724 3.08926 9.49715 2.79341C11.0219 2.03264 12.8517 1.39867 14.9863 0.89149C17.121 0.342048 19.3864 0.0884588 21.7825 0.0884588C26.9667 0.0884588 30.7569 1.22961 33.1965 3.51191C35.5926 5.79421 36.8124 9.25992 36.8124 13.9091V27.6029H36.8995ZM19.2121 34.0271C20.6498 34.0271 22.131 33.7735 23.6993 33.2663C25.2677 32.7592 26.6618 31.8293 27.838 30.5614C28.5351 29.7584 29.0578 28.8708 29.3192 27.8564C29.5806 26.8421 29.7549 25.6164 29.7549 24.1794V22.4043C28.4915 22.1084 27.141 21.8548 25.7469 21.6858C24.3528 21.5167 23.0023 21.4322 21.6518 21.4322C18.7329 21.4322 16.5982 21.9816 15.1606 23.1228C13.723 24.2639 13.0259 25.87 13.0259 27.9832C13.0259 29.9697 13.5487 31.449 14.6378 32.4633C15.6834 33.5199 17.2082 34.0271 19.2121 34.0271ZM54.1949 38.5917C53.4107 38.5917 52.8879 38.4649 52.5394 38.1691C52.1909 37.9155 51.8859 37.3238 51.6245 36.5207L41.3867 3.85003C41.1254 3.00473 40.9947 2.45529 40.9947 2.15943C40.9947 1.4832 41.3432 1.10281 42.0402 1.10281H46.3096C47.1373 1.10281 47.7037 1.22961 48.0086 1.52546C48.3571 1.77905 48.6185 2.37076 48.8799 3.17379L56.1988 31.1531L62.995 3.17379C63.2128 2.32849 63.4742 1.77905 63.8227 1.52546C64.1712 1.27187 64.7812 1.10281 65.5653 1.10281H69.0505C69.8783 1.10281 70.4446 1.22961 70.7931 1.52546C71.1416 1.77905 71.4466 2.37076 71.6209 3.17379L78.5041 31.4912L86.0409 3.17379C86.3023 2.32849 86.6072 1.77905 86.9122 1.52546C87.2607 1.27187 87.827 1.10281 88.6112 1.10281H92.6628C93.3598 1.10281 93.7519 1.44093 93.7519 2.15943C93.7519 2.37076 93.7083 2.58208 93.6648 2.83567C93.6212 3.08926 93.5341 3.42738 93.3598 3.89229L82.8606 36.563C82.5992 37.4083 82.2943 37.9577 81.9458 38.2113C81.5973 38.4649 81.0309 38.634 80.2903 38.634H76.5437C75.716 38.634 75.1496 38.5072 74.8011 38.2113C74.4526 37.9155 74.1476 37.366 73.9734 36.5207L67.2208 9.25992L60.5118 36.4785C60.294 37.3238 60.0326 37.8732 59.684 38.1691C59.3355 38.4649 58.7256 38.5917 57.9414 38.5917H54.1949ZM110.176 39.7329C107.911 39.7329 105.645 39.4793 103.467 38.9721C101.289 38.4649 99.5896 37.9155 98.4569 37.2815C97.7599 36.9011 97.2807 36.4785 97.1064 36.0981C96.9321 35.7177 96.845 35.2951 96.845 34.9147V32.7592C96.845 31.8716 97.1935 31.449 97.847 31.449C98.1084 31.449 98.3698 31.4912 98.6312 31.5757C98.8926 31.6603 99.2846 31.8293 99.7203 31.9984C101.202 32.6324 102.813 33.1395 104.512 33.4777C106.255 33.8158 107.954 33.9848 109.697 33.9848C112.441 33.9848 114.576 33.5199 116.057 32.5901C117.538 31.6603 118.323 30.3078 118.323 28.5749C118.323 27.3915 117.93 26.4194 117.146 25.6164C116.362 24.8134 114.881 24.0949 112.746 23.4186L106.429 21.5167C103.249 20.5446 100.897 19.1076 99.4589 17.2057C98.0213 15.3461 97.2807 13.2751 97.2807 11.0773C97.2807 9.30219 97.6727 7.73839 98.4569 6.38592C99.2411 5.03344 100.287 3.85003 101.594 2.9202C102.901 1.94811 104.382 1.22961 106.124 0.722431C107.867 0.215253 109.697 0.00392914 111.614 0.00392914C112.572 0.00392914 113.574 0.046194 114.532 0.172988C115.534 0.299783 116.449 0.468842 117.364 0.637901C118.235 0.849225 119.063 1.06055 119.847 1.31414C120.632 1.56773 121.241 1.82132 121.677 2.07491C122.287 2.41302 122.723 2.75114 122.984 3.13153C123.245 3.46964 123.376 3.93456 123.376 4.52626V6.51271C123.376 7.40027 123.028 7.86519 122.374 7.86519C122.026 7.86519 121.459 7.69613 120.719 7.35801C118.235 6.25912 115.447 5.70968 112.354 5.70968C109.871 5.70968 107.911 6.09006 106.56 6.89309C105.209 7.69613 104.512 8.92181 104.512 10.6547C104.512 11.8381 104.948 12.8524 105.819 13.6555C106.691 14.4585 108.303 15.2615 110.612 15.98L116.798 17.8819C119.934 18.854 122.2 20.2065 123.55 21.9394C124.901 23.6722 125.554 25.6587 125.554 27.8564C125.554 29.6738 125.162 31.3222 124.422 32.7592C123.637 34.1962 122.592 35.4641 121.241 36.4785C119.891 37.5351 118.279 38.2959 116.406 38.8453C114.445 39.437 112.398 39.7329 110.176 39.7329Z" fill="#282F3D"/>
<path d="M118.41 60.2736C104.077 70.5439 83.2527 75.9961 65.3475 75.9961C40.254 75.9961 17.6438 66.9937 0.566316 52.0319C-0.784199 50.8485 0.435621 49.2424 2.04753 50.1723C20.5191 60.5694 43.3036 66.8669 66.8723 66.8669C82.7735 66.8669 100.243 63.6547 116.319 57.0614C118.715 56.0048 120.762 58.583 118.41 60.2736Z" fill="#EB9E3F"/>
<path d="M124.378 53.6802C122.548 51.3979 112.267 52.5814 107.606 53.1308C106.211 53.2999 105.994 52.1164 107.257 51.2289C115.447 45.6499 128.909 47.256 130.477 49.1156C132.046 51.0176 130.042 64.0774 122.374 70.3326C121.198 71.3047 120.065 70.7975 120.588 69.5296C122.331 65.3453 126.208 55.9203 124.378 53.6802Z" fill="#EB9E3F"/>
</svg>