<svg viewBox="0 0 57 82" xmlns="http://www.w3.org/2000/svg">
<path fill-rule="evenodd" clip-rule="evenodd" d="M29.8033 2.56657C29.8033 4.63972 29.8859 6.2736 29.7595 7.89107C29.7138 8.47652 29.1673 9.02297 28.8495 9.58692C28.5232 9.03719 27.9592 8.50532 27.9157 7.93408C27.7893 6.26412 27.8707 4.57848 27.8707 2.66427C27.1569 3.0022 26.6662 3.19504 26.2143 3.45496C18.6297 7.81597 11.0659 12.2131 3.45276 16.5238C2.29868 17.1774 1.87745 17.8693 1.88288 19.2053C1.937 33.2355 1.91545 47.2659 1.91947 61.2961C1.91983 61.8757 1.96805 62.4553 2.00495 63.2777C3.70813 62.2902 5.18552 61.3566 6.74074 60.5772C7.21932 60.3373 7.91016 60.5188 8.50382 60.5075C8.22836 61.0755 8.10269 61.8578 7.65041 62.172C6.12442 63.2321 4.48226 64.126 2.69506 65.197C11.0527 70.0979 19.1616 74.876 27.3158 79.576C27.7681 79.8366 28.7 79.6376 29.229 79.3376C33.2451 77.0588 37.2177 74.7035 41.2017 72.3686C45.1783 70.0385 49.152 67.704 53.388 65.2182C51.5467 64.122 49.9064 63.2176 48.3563 62.1786C47.9051 61.876 47.7122 61.19 47.401 60.6796C48.0293 60.6297 48.7768 60.3366 49.2641 60.5743C50.8764 61.3598 52.3947 62.3368 54.0854 63.3196C54.1486 62.8647 54.2071 62.6412 54.2071 62.4181C54.2124 47.7803 54.2268 33.1429 54.1647 18.5054C54.1621 17.9039 53.574 17.0943 53.026 16.7407C50.0657 14.8305 47.0349 13.0289 44.0235 11.1978C39.413 8.39487 34.7985 5.5981 29.8033 2.56657ZM56.1112 41.1719C56.1115 48.8265 56.0914 56.4816 56.1324 64.1358C56.1389 65.3494 55.8149 66.1025 54.6915 66.7514C46.2191 71.6458 37.7814 76.6002 29.3635 81.5872C28.3796 82.1701 27.6687 82.1154 26.7148 81.5511C18.2406 76.5386 9.72403 71.5976 1.27027 66.5517C0.653229 66.1831 0.0785638 65.1602 0.0752759 64.4388C0.00659366 48.8863 0.0321668 33.3339 8.81964e-06 17.7814C-0.00217427 16.659 0.400786 16.0313 1.36124 15.4841C10.1259 10.4884 18.8748 5.46504 27.5993 0.399374C28.5214 -0.135773 29.1892 -0.135044 30.0817 0.413226C38.2626 5.43953 46.4548 10.4476 54.6809 15.3995C55.7685 16.0546 56.1419 16.7924 56.1347 18.0253C56.0871 25.7405 56.1104 33.4564 56.1112 41.1719Z" fill="#49DDF0"/>
<path fill-rule="evenodd" clip-rule="evenodd" d="M40.4666 34.6168C39.0436 35.4509 37.9374 36.099 36.5772 36.8963C37.9889 37.7242 39.1294 38.3931 40.4666 39.1772V34.6168ZM32.7066 29.1662C28.826 25.8904 27.323 25.7224 23.2302 29.0809C21.477 30.5197 22.7469 32.9323 22.5591 35.2391C26.1445 33.0934 29.355 31.1719 32.7066 29.1662ZM39.5656 25.0046C35.8758 22.7083 32.4592 20.5444 28.9853 18.4764C28.6244 18.2617 27.8447 18.476 27.3928 18.729C24.7993 20.1802 22.2424 21.6975 19.6811 23.2056C18.7261 23.7677 17.7927 24.3659 16.6579 25.0658C18.1481 25.9345 19.3406 26.6523 20.5586 27.3242C20.8574 27.4889 21.3294 27.6803 21.5695 27.5589C23.4615 26.6031 25.4763 25.7719 27.1017 24.4665C27.714 23.9748 27.3983 22.3329 27.505 21.2152C27.5108 21.155 27.4845 21.0756 27.5145 21.0366C27.81 20.6483 28.1147 20.267 28.4165 19.8839C28.7281 20.251 29.2213 20.5787 29.3112 20.9935C29.4621 21.6891 29.347 22.4404 29.3598 23.1677C29.3817 24.3929 33.8062 27.9927 35.0023 27.7587C35.1159 27.7365 35.2189 27.6512 35.3227 27.5881C36.6488 26.7817 37.9739 25.9743 39.5656 25.0046ZM33.5702 49.0891C33.4621 47.8387 33.812 46.1877 33.1439 45.4273C31.9923 44.116 30.3005 43.115 28.6441 42.4825C27.9342 42.2117 26.7623 43.2393 25.7704 43.5926C23.1462 44.5262 22.3414 46.2235 22.3695 49.0764C22.3973 51.8728 23.1817 53.4421 25.6761 54.6991C27.4188 55.5772 28.5834 55.7274 30.379 54.7552C32.8165 53.4356 34.2274 51.9657 33.5702 49.0891ZM15.8451 51.1032C14.9372 55.6228 15.2039 56.2651 18.7012 58.3623C19.8447 59.0484 20.9904 59.7316 22.1375 60.4114C23.7223 61.3505 25.3097 62.2855 27.1532 63.3744C27.1532 62.1769 27.0655 61.3782 27.1912 60.6141C27.2511 60.2485 27.715 59.9488 27.9964 59.6189C28.3251 59.9634 28.8625 60.2674 28.9385 60.6604C29.0887 61.4351 28.9827 62.2589 28.9827 63.3733C32.837 61.0869 36.331 59.0346 39.7929 56.9293C40.1462 56.7146 40.4991 56.1948 40.5221 55.7974C40.6079 54.313 40.5564 52.8206 40.5564 51.0664C39.7417 51.4809 39.2098 51.72 38.7082 52.0117C35.6164 53.811 32.5038 55.578 29.4595 57.4546C28.4355 58.086 27.6727 58.0638 26.656 57.4459C23.1375 55.3089 19.5587 53.2711 15.8451 51.1032ZM15.8798 26.8944C15.6979 27.2458 15.5978 27.349 15.5978 27.4521C15.5806 34.1943 15.5627 40.9361 15.5839 47.678C15.585 48.1074 15.7695 48.7249 16.0829 48.932C17.4292 49.82 18.8554 50.587 20.563 51.5782C20.563 49.8157 20.685 48.4264 20.5345 47.067C20.3123 45.0671 20.9148 43.7708 22.8751 42.9608C24.8238 42.1555 26.6936 40.1998 28.5107 40.3015C30.4295 40.4087 32.3266 42.2419 34.0663 43.5434C34.7572 44.0599 35.281 45.1404 35.3859 46.023C35.5901 47.7454 35.4458 49.5091 35.4458 51.3055C39.7026 50.0588 40.5696 48.947 40.5699 44.9155C40.5699 44.3082 40.5188 43.6946 40.5864 43.0946C40.7121 41.9798 40.2371 41.3156 39.2778 40.7623C36.654 39.2487 34.0586 37.6823 31.5141 36.0411C31.0991 35.7735 30.9997 35.0178 30.7546 34.4878C31.3391 34.4721 32.1461 34.202 32.4709 34.4841C34.1609 35.9525 35.6332 35.4192 37.183 34.2968C37.9659 33.7292 38.8671 33.3267 39.6793 32.7952C40.0106 32.5783 40.4739 32.2291 40.4896 31.9203C40.5714 30.3265 40.5276 28.7258 40.5276 26.7941C39.5726 27.3431 38.9976 27.6621 38.4335 27.9997C33.9491 30.6812 29.5085 33.4401 24.9626 36.0137C23.2032 37.01 22.1251 38.0752 22.4404 40.2468C22.5131 40.747 21.8573 41.3528 21.5369 41.9102C21.2129 41.3525 20.6258 40.8027 20.6086 40.2359C20.5151 37.1409 20.6053 34.0405 20.5235 30.9448C20.5071 30.3291 20.1794 29.5056 19.7117 29.1604C18.5522 28.3048 17.2286 27.6705 15.8798 26.8944ZM13.663 40.973C13.6626 36.0582 13.7039 31.1427 13.6341 26.2291C13.6162 24.9794 13.9969 24.2307 15.0914 23.6088C19.1027 21.3296 23.0794 18.9889 27.0366 16.6179C28.038 16.0179 28.8425 15.98 29.8566 16.6314C33.5337 18.9929 37.2487 21.2965 40.985 23.5636C42.0145 24.1884 42.5088 24.8679 42.5008 26.1602C42.4408 36.1107 42.4481 46.062 42.4945 56.0129C42.5 57.2042 42.0967 57.8906 41.0854 58.4775C37.2009 60.7308 33.3463 63.0365 29.5085 65.3688C28.5261 65.9656 27.73 66.0571 26.6823 65.41C22.8609 63.0511 18.9909 60.769 15.1027 58.5209C14.0283 57.9001 13.6136 57.1626 13.6326 55.8988C13.7083 50.9246 13.6637 45.9486 13.663 40.973Z" fill="#49DDF0"/>
</svg>
