<svg xmlns="http://www.w3.org/2000/svg" width="170" height="92" viewBox="0 0 170 92" fill="none">
<path d="M108.232 41.9554C106.343 42.7394 104.311 43.1205 102.267 43.0742C99.4125 43.0742 97.2009 42.2673 95.6499 40.6533C94.0157 38.8152 93.1775 36.4047 93.3189 33.95C93.2468 32.7377 93.4201 31.5232 93.8285 30.3794C94.237 29.2354 94.8721 28.1856 95.6958 27.2926C97.2865 25.703 99.538 24.9115 102.45 24.9175C104.335 24.9217 106.213 25.1401 108.048 25.5685V28.4572C106.38 27.8037 104.616 27.4258 102.827 27.3384C102.035 27.2858 101.242 27.4137 100.508 27.7124C99.7733 28.0111 99.1163 28.4726 98.5867 29.0624C97.5424 30.4697 97.0319 32.2018 97.1457 33.95C97.0464 35.7045 97.6098 37.4324 98.7243 38.7919C99.2793 39.3898 99.9591 39.8582 100.716 40.1641C101.472 40.4699 102.287 40.6057 103.102 40.5617C104.89 40.5358 106.648 40.0897 108.232 39.2595V41.9554Z" fill="white"/>
<path d="M111.306 42.6069V25.3855H114.977V32.3638H122.053V25.3855H125.724V42.6069H122.053V34.7848H114.977V42.6069H111.306Z" fill="white"/>
<path d="M147.365 42.6069V25.3855H151.035V42.6069H147.365Z" fill="white"/>
<path d="M155.192 42.6069V25.3855H158.358L166.37 37.1139V25.3855H169.261V42.6069H165.993L158.074 30.8783V42.6069H155.192Z" fill="white"/>
<path d="M94.2103 66.4768V63.5881C95.7123 64.2509 97.324 64.6302 98.9642 64.7068C99.7391 64.7516 100.507 64.5388 101.148 64.1017C101.412 63.9009 101.622 63.6389 101.761 63.3385C101.9 63.038 101.964 62.7083 101.947 62.3777C101.963 61.864 101.779 61.3642 101.433 60.9838C100.867 60.4527 100.223 60.0105 99.524 59.6725L98.4043 59.0581C97.1569 58.4278 96.0345 57.5764 95.0913 56.5455C94.4562 55.7698 94.1122 54.7967 94.1186 53.7946C94.0963 53.1369 94.2272 52.4831 94.5012 51.8846C94.7751 51.2863 95.1846 50.7598 95.697 50.3465C96.8985 49.4337 98.3834 48.9726 99.891 49.0445C101.466 49.0741 103.031 49.2927 104.553 49.6955V52.3915C103.21 51.8744 101.796 51.5651 100.359 51.4745C99.6844 51.4389 99.0159 51.6188 98.4502 51.9879C98.2305 52.1366 98.0516 52.3378 97.9297 52.5733C97.8079 52.8088 97.747 53.071 97.7528 53.336C97.7732 53.7576 97.9385 54.1592 98.2208 54.473C98.7713 55.0002 99.3884 55.4534 100.056 55.8211L101.268 56.4721C102.57 57.1188 103.745 57.9947 104.737 59.0581C105.47 60.0663 105.791 61.3154 105.636 62.5519C105.481 63.7883 104.861 64.9195 103.902 65.7155C102.493 66.7204 100.784 67.2152 99.0559 67.1185C97.4212 67.0935 95.7951 66.8782 94.2103 66.4768Z" fill="white"/>
<path d="M113.029 66.6596V51.7216H106.88V49.4016H122.812V51.7216H116.663V66.6229L113.029 66.6596Z" fill="white"/>
<path d="M142.656 66.6593V49.438H149.08C152.622 49.438 154.394 50.8594 154.394 53.7205C154.391 54.7517 154.071 55.7571 153.476 56.5998C152.857 57.4978 152.003 58.2085 151.007 58.6539L156.595 66.6593H152.366L148.08 59.5801H146.033V66.6593H142.656ZM146.015 57.2233H146.859C149.465 57.2233 150.778 56.1688 150.778 54.0598C150.778 52.5099 149.621 51.7305 147.327 51.7305H146.023L146.015 57.2233Z" fill="white"/>
<path d="M133.535 49.438H129.993L123.284 66.6593H125.891L131.204 52.8767L136.61 66.6593H140.243L133.535 49.438Z" fill="white"/>
<path d="M138.232 25.3848H134.698L127.991 42.6063H130.597L135.911 28.8329L141.307 42.6063H144.942L138.232 25.3848Z" fill="white"/>
<path d="M140.239 35.719H131.76V38.0941H140.239V35.719Z" fill="white"/>
<path d="M135.122 59.6081H126.642V61.9832H135.122V59.6081Z" fill="white"/>
<path d="M66.2136 75.5135C76.3278 66.1971 72.1395 45.4309 56.8591 29.1312C41.5785 12.8313 20.992 7.17011 10.8778 16.4865C0.763547 25.8029 4.95165 46.569 20.2322 62.8688C35.5127 79.1687 56.0992 84.8299 66.2136 75.5135Z" fill="url(#paint0_linear_0_66)"/>
<path d="M41.238 76.6328C52.2194 69.7462 54.2412 53.3835 45.7539 40.0857C37.2664 26.7878 21.484 21.5905 10.5026 28.4771C-0.478665 35.3638 -2.50041 51.7265 5.98689 65.0245C14.4743 78.3223 30.2568 83.5195 41.238 76.6328Z" fill="url(#paint1_linear_0_66)"/>
<path d="M51.2722 65.4661C65.0735 65.4661 76.2617 54.4975 76.2617 40.9669C76.2617 27.4362 65.0735 16.4676 51.2722 16.4676C37.4708 16.4676 26.2825 27.4362 26.2825 40.9669C26.2825 54.4975 37.4708 65.4661 51.2722 65.4661Z" fill="url(#paint2_linear_0_66)"/>
<defs>
<linearGradient id="paint0_linear_0_66" x1="75.3357" y1="76.6769" x2="8.23093" y2="12.5515" gradientUnits="userSpaceOnUse">
<stop stop-color="#1D2087"/>
<stop offset="0.1" stop-color="#1C258B"/>
<stop offset="0.21" stop-color="#193395"/>
<stop offset="0.33" stop-color="#1449A7"/>
<stop offset="0.46" stop-color="#0C6ABF"/>
<stop offset="0.59" stop-color="#0392DE"/>
<stop offset="0.62" stop-color="#009FE8"/>
<stop offset="1" stop-color="white" stop-opacity="0"/>
</linearGradient>
<linearGradient id="paint1_linear_0_66" x1="7.05325" y1="33.0593" x2="45.4957" y2="76.66" gradientUnits="userSpaceOnUse">
<stop stop-color="#00B8EE"/>
<stop offset="0.09" stop-color="#0ABBEF" stop-opacity="0.96"/>
<stop offset="0.24" stop-color="#25C2F0" stop-opacity="0.86"/>
<stop offset="0.42" stop-color="#50CEF3" stop-opacity="0.69"/>
<stop offset="0.64" stop-color="#8CDFF7" stop-opacity="0.45"/>
<stop offset="0.89" stop-color="#D9F4FC" stop-opacity="0.15"/>
<stop offset="1" stop-color="white" stop-opacity="0"/>
</linearGradient>
<linearGradient id="paint2_linear_0_66" x1="66.6129" y1="61.6041" x2="36.9422" y2="20.9855" gradientUnits="userSpaceOnUse">
<stop stop-color="#00B6ED"/>
<stop offset="0.09" stop-color="#0CB9EE" stop-opacity="0.95"/>
<stop offset="0.25" stop-color="#2DC3F0" stop-opacity="0.83"/>
<stop offset="0.47" stop-color="#61D2F4" stop-opacity="0.62"/>
<stop offset="0.73" stop-color="#AAE7F9" stop-opacity="0.33"/>
<stop offset="1" stop-color="white" stop-opacity="0"/>
</linearGradient>
</defs>
</svg>