<svg viewBox="0 0 308 82" xmlns="http://www.w3.org/2000/svg">
<path d="M41.7564 21.4391C28.7429 21.4534 15.9404 18.1468 4.55847 11.8313V13.0562C15.0894 19.3848 23.954 28.1448 30.4112 38.6039C36.8684 49.0632 40.7307 60.9176 41.6753 73.1766H42.6379C43.5748 61.0516 47.3659 49.3208 53.7011 38.944C60.0364 28.5673 68.7358 19.8394 79.0879 13.4742V11.7848C67.6693 18.1352 54.8188 21.4584 41.7564 21.4391Z" fill="#2D2D2D"/>
<path d="M42.1508 81.3966C45.9336 81.3966 49.0001 78.3271 49.0001 74.5406C49.0001 70.754 45.9336 67.6843 42.1508 67.6843C38.3682 67.6843 35.3018 70.754 35.3018 74.5406C35.3018 78.3271 38.3682 81.3966 42.1508 81.3966Z" fill="#2D2D2D"/>
<path d="M6.8492 20.1501C10.6319 20.1501 13.6984 17.0806 13.6984 13.2941C13.6984 9.50754 10.6319 6.43794 6.8492 6.43794C3.0665 6.43794 0 9.50754 0 13.2941C0 17.0806 3.0665 20.1501 6.8492 20.1501Z" fill="#2D2D2D"/>
<path d="M77.1987 20.1501C80.9812 20.1501 84.0477 17.0806 84.0477 13.2941C84.0477 9.50754 80.9812 6.43794 77.1987 6.43794C73.4159 6.43794 70.3494 9.50754 70.3494 13.2941C70.3494 17.0806 73.4159 20.1501 77.1987 20.1501Z" fill="#2D2D2D"/>
<path d="M14.9744 57.2415C17.8828 57.2415 20.2403 54.8814 20.2403 51.9702C20.2403 49.0589 17.8828 46.6988 14.9744 46.6988C12.0661 46.6988 9.7085 49.0589 9.7085 51.9702C9.7085 54.8814 12.0661 57.2415 14.9744 57.2415Z" fill="#2D2D2D"/>
<path d="M69.0717 57.2415C71.9799 57.2415 74.3377 54.8814 74.3377 51.9702C74.3377 49.0589 71.9799 46.6988 69.0717 46.6988C66.1634 46.6988 63.8058 49.0589 63.8058 51.9702C63.8058 54.8814 66.1634 57.2415 69.0717 57.2415Z" fill="#2D2D2D"/>
<path d="M42.1218 10.5425C45.03 10.5425 47.3877 8.18251 47.3877 5.27127C47.3877 2.36003 45.03 0 42.1218 0C39.2134 0 36.8558 2.36003 36.8558 5.27127C36.8558 8.18251 39.2134 10.5425 42.1218 10.5425Z" fill="#2D2D2D"/>
<path d="M108.857 51.7948C106.293 51.8652 103.762 51.1962 101.567 49.8675C99.5297 48.5717 97.9168 46.7069 96.9273 44.5033C95.8192 42.044 95.2706 39.3692 95.3207 36.6719C95.275 34.0011 95.8238 31.3537 96.9273 28.9217C97.9317 26.7045 99.5576 24.827 101.607 23.5169C103.52 22.3875 105.671 21.723 107.887 21.5768C110.103 21.4305 112.322 21.8067 114.366 22.6751C115.987 23.4113 117.398 24.5407 118.472 25.961C119.604 27.484 120.363 29.2518 120.688 31.1219H118.368C117.999 28.9152 116.838 26.9191 115.103 25.5082C113.302 24.1897 111.11 23.5169 108.88 23.5982C106.764 23.5195 104.674 24.0843 102.885 25.2179C101.096 26.3516 99.6924 28.0011 98.8584 29.9493C97.9314 32.0671 97.4704 34.3599 97.5072 36.6719C97.4611 39.0315 97.9219 41.3736 98.8584 43.5396C99.6707 45.4256 101.031 47.0234 102.761 48.1258C104.609 49.2442 106.739 49.8065 108.897 49.7455C110.415 49.7668 111.917 49.4455 113.293 48.805C114.588 48.1844 115.713 47.258 116.57 46.1055C117.457 44.9157 118.074 43.5468 118.379 42.094H120.699C120.372 43.9675 119.62 45.741 118.501 47.2783C117.444 48.7124 116.05 49.863 114.442 50.628C112.691 51.4325 110.782 51.8312 108.857 51.7948Z" fill="#2D2D2D"/>
<path d="M132.448 30.4671V32.4525C132.309 32.4525 132.164 32.4525 132.007 32.4525C131.196 32.4175 130.388 32.5658 129.642 32.8864C128.896 33.2071 128.231 33.6917 127.698 34.3045C126.577 35.6943 126.007 37.4491 126.098 39.2332V51.14H124.039V30.5833H126.098V34.0666C126.608 32.9838 127.412 32.0666 128.418 31.4193C129.49 30.7577 130.731 30.421 131.99 30.4497H132.431L132.448 30.4671Z" fill="#2D2D2D"/>
<path d="M150.58 30.5822L143.475 48.4687L136.33 30.5822H134.115L142.449 51.0869L141.341 53.8386C141 54.8247 140.372 55.6862 139.537 56.3116C138.785 56.77 137.924 57.0185 137.044 57.0315V58.9298C138.38 58.925 139.685 58.5207 140.79 57.7688C141.959 56.8298 142.845 55.5863 143.354 54.1754L152.801 30.5764L150.58 30.5822Z" fill="#2D2D2D"/>
<path d="M154.017 58.9534V30.5884H156.07V34.4895C156.848 33.1131 157.966 31.9597 159.317 31.1398C160.669 30.3284 162.219 29.9085 163.795 29.9266C165.555 29.9044 167.283 30.3988 168.765 31.3489C170.231 32.3001 171.399 33.6463 172.134 35.2327C172.952 37.0037 173.358 38.9367 173.324 40.8871C173.358 42.8377 172.952 44.7708 172.134 46.5415C171.395 48.1193 170.228 49.4571 168.765 50.4022C167.281 51.3409 165.555 51.8252 163.8 51.7953C162.222 51.8161 160.67 51.3894 159.323 50.5646C157.972 49.7345 156.854 48.5737 156.076 47.1917V58.9534H154.017ZM163.586 49.926C164.996 49.9662 166.386 49.5794 167.573 48.816C168.759 48.0525 169.689 46.9482 170.238 45.6475C170.896 44.1468 171.219 42.5201 171.183 40.8813C171.183 38.1141 170.493 35.9158 169.113 34.2864C168.438 33.4844 167.59 32.8468 166.632 32.4223C165.674 31.9979 164.633 31.7976 163.586 31.8365C162.551 31.7948 161.521 31.9908 160.574 32.4095C159.627 32.828 158.789 33.4582 158.123 34.2516C156.754 35.8771 156.07 38.0753 156.07 40.8464C156.037 42.4849 156.359 44.111 157.015 45.6127C157.576 46.9021 158.496 48.0026 159.665 48.7825C160.831 49.5427 162.195 49.9406 163.586 49.926Z" fill="#2D2D2D"/>
<path d="M181.316 51.3079C179.617 51.3079 178.387 50.8784 177.622 50.0308C176.804 49.0608 176.39 47.8144 176.462 46.5476V32.4754H172.889V30.5886H176.462V25.4916H178.515V30.5886H183.265V32.4754H178.503V46.4954C178.503 47.5926 178.746 48.353 179.239 48.7768C179.963 49.268 180.834 49.4937 181.705 49.4154C182.227 49.4111 182.748 49.3703 183.265 49.2934V51.1396C182.62 51.2404 181.968 51.2966 181.316 51.3079Z" fill="#2D2D2D"/>
<path d="M191.797 51.8021C190.026 51.8539 188.277 51.3872 186.768 50.459C185.257 49.5309 184.051 48.1818 183.294 46.5772C182.449 44.8 182.028 42.8503 182.066 40.8821C182.028 38.916 182.449 36.9682 183.294 35.1929C184.051 33.5884 185.257 32.2393 186.768 31.3112C188.277 30.3831 190.026 29.9163 191.797 29.9681C193.554 29.9213 195.286 30.3912 196.778 31.3199C198.272 32.2487 199.459 33.5952 200.195 35.1929C201.028 36.9714 201.442 38.9179 201.406 40.8821C201.442 42.8484 201.028 44.7968 200.195 46.5772C199.459 48.175 198.272 49.5215 196.778 50.4502C195.286 51.379 193.554 51.8489 191.797 51.8021ZM191.797 49.9095C193.203 49.946 194.589 49.5664 195.78 48.8182C196.925 48.0535 197.816 46.9667 198.345 45.6948C198.982 44.1662 199.29 42.5206 199.249 40.8647C199.29 39.2092 198.98 37.5635 198.345 36.0347C197.808 34.7615 196.908 33.675 195.758 32.9114C194.564 32.1674 193.179 31.79 191.773 31.8259C190.344 31.7858 188.932 32.163 187.714 32.9114C186.55 33.6707 185.637 34.7572 185.087 36.0347C184.439 37.5604 184.124 39.2073 184.165 40.8647C184.124 42.5223 184.439 44.1691 185.087 45.6948C185.635 46.9732 186.549 48.0602 187.714 48.8182C188.936 49.5816 190.356 49.9674 191.797 49.9269V49.9095Z" fill="#2D2D2D"/>
<path d="M214.002 51.1396L203.388 22.2H208.684L216.976 45.0964L225.316 22.2H230.612L219.975 51.1396H214.002Z" fill="#2D2D2D"/>
<path d="M234.758 27.3844C234.356 27.3909 233.957 27.3139 233.587 27.1579C233.216 27.0021 232.882 26.7708 232.607 26.4788C232.319 26.1937 232.092 25.8534 231.939 25.4783C231.787 25.1031 231.712 24.701 231.719 24.2961C231.714 23.8895 231.789 23.486 231.941 23.1091C232.093 22.7324 232.319 22.3898 232.607 22.1016C232.879 21.8028 233.211 21.5655 233.582 21.4054C233.953 21.2452 234.354 21.1659 234.758 21.1727C235.582 21.1833 236.369 21.5158 236.953 22.0992C237.535 22.6826 237.867 23.471 237.879 24.2961C237.884 24.704 237.805 25.1087 237.646 25.4844C237.487 25.8602 237.252 26.1988 236.956 26.4788C236.669 26.7704 236.327 27.0011 235.95 27.1567C235.572 27.3123 235.167 27.3897 234.758 27.3844ZM232.381 51.14V30.2407H237.141V51.14H232.381Z" fill="#2D2D2D"/>
<path d="M250.462 30.0479C249.28 30.0176 248.115 30.341 247.117 30.9769C246.145 31.6224 245.37 32.5246 244.877 33.5834V30.257H240.158V51.1562H244.877V40.637C244.793 39.0076 245.344 37.4093 246.415 36.1784C246.932 35.6251 247.562 35.19 248.263 34.9024C248.963 34.6149 249.718 34.4819 250.474 34.5123C250.666 34.5123 250.851 34.5123 251.025 34.5123V30.0653C250.851 30.0537 250.666 30.0479 250.462 30.0479Z" fill="#2D2D2D"/>
<path d="M267.844 33.1945C267.122 32.0384 266.081 31.1168 264.846 30.5414C263.39 29.8813 261.803 29.5579 260.205 29.595C258.706 29.5736 257.218 29.8622 255.833 30.4427C254.642 30.934 253.6 31.728 252.81 32.7462C252.019 33.7644 251.508 34.9715 251.326 36.2481H256.066C256.265 35.5622 256.67 34.9542 257.224 34.5065C258.089 33.8662 259.151 33.5517 260.224 33.6181C261.302 33.5587 262.366 33.8882 263.222 34.5471C263.573 34.8228 263.855 35.1758 264.047 35.5786C264.238 35.9813 264.336 36.4229 264.329 36.8693C264.344 37.0736 264.317 37.2787 264.25 37.4723C264.184 37.666 264.079 37.8439 263.941 37.9954C263.537 38.3152 263.041 38.4963 262.526 38.5122L258.421 39.1682C255.957 39.5823 254.088 40.3156 252.812 41.3683C252.182 41.8955 251.682 42.5611 251.35 43.3133C251.02 44.0654 250.868 44.8839 250.904 45.7049C250.878 46.7716 251.133 47.8263 251.639 48.7644C252.182 49.6888 252.991 50.4274 253.96 50.8834C255.089 51.4147 256.326 51.675 257.574 51.6438C258.968 51.6456 260.337 51.251 261.516 50.506C262.698 49.7779 263.657 48.7399 264.29 47.5047V51.1214H268.887V37.1188C268.915 35.7385 268.552 34.3787 267.844 33.1945ZM264.29 41.6411C264.308 42.7546 264.077 43.858 263.61 44.869C263.198 45.7738 262.546 46.5487 261.725 47.1099C260.907 47.6587 259.938 47.9444 258.953 47.9285C258.051 47.984 257.159 47.7074 256.448 47.1505C256.146 46.8755 255.909 46.5371 255.753 46.1595C255.596 45.782 255.525 45.3745 255.544 44.9662C255.565 44.5581 255.673 44.1592 255.864 43.7983C256.056 43.4371 256.324 43.1229 256.651 42.8778C257.551 42.3274 258.561 41.977 259.608 41.8502L262.404 41.3974L263.511 41.1478C263.785 41.0984 264.048 41.0022 264.29 40.8633V41.6411Z" fill="#2D2D2D"/>
<path d="M272.14 51.1398V21.3408H276.82V51.1398H272.14Z" fill="#2D2D2D"/>
<path d="M279.987 51.1398V21.3408H284.672V51.1398H279.987Z" fill="#2D2D2D"/>
<path d="M303.158 30.2578L297.162 45.5491L291.135 30.2578H286.288L294.818 51.0874L294.284 52.4865C294.037 53.1835 293.587 53.7901 292.992 54.2281C292.285 54.6265 291.479 54.8119 290.672 54.7622H290.352V58.9131H290.672C292.33 58.9836 293.972 58.5615 295.393 57.6998C296.63 56.8947 297.643 55.5401 298.431 53.636L308 30.2462L303.158 30.2578Z" fill="#2D2D2D"/>
</svg>
