<svg xmlns="http://www.w3.org/2000/svg" viewBox="0 0 240 66">
    <path d="M47.1306 0H52.6586V66H47.1306V0Z" fill="#333333"/>
    <path d="M2.76639 5.62008L2.76639 0L30.548 -1.23461e-06L30.548 5.62008L2.76639 5.62008Z" fill="#333333"/>
    <path d="M37.7047 0H43.2327V56.417H37.7047V0Z" fill="#333333"/>
    <path d="M0.00100231 0H5.52895V66H0.00100231V0Z" fill="#333333"/>
    <path d="M9.42691 9.583H14.9549V66H9.42691V9.583Z" fill="#333333"/>
    <path d="M18.8519 9.583H24.3799V56.417H18.8519V9.583Z" fill="#333333"/>
    <path d="M28.2778 0H33.8058V56.417H28.2778V0Z" fill="#333333"/>
    <path d="M9.497 15.2031L9.497 9.583L24.3799 9.583L24.3799 15.2031L9.497 15.2031Z" fill="#333333"/>
    <path d="M28.3497 56.4169L28.3497 50.7968L43.2327 50.7968L43.2327 56.4169L28.3497 56.4169Z" fill="#333333"/>
    <path d="M37.7036 56.4169L37.7036 50.7968L43.2316 50.7968L43.2316 56.4169L37.7036 56.4169Z" fill="#333333"/>
    <path d="M18.8537 65.9999L18.8537 60.3798L51.4544 60.3798L51.4544 65.9999L18.8537 65.9999Z" fill="#333333"/>
    <path fill-rule="evenodd" clip-rule="evenodd" d="M91.2236 17.5088V39.1208L75.8414 17.5088H70.2692V48.5634H75.8414V26.9514L91.2236 48.5634H96.7955V17.5088H91.2236Z" fill="#333333"/>
    <path fill-rule="evenodd" clip-rule="evenodd" d="M125.787 17.5088V45.2666H110.405V17.5088H104.833V48.5634H131.359V17.5088H125.787Z" fill="#333333"/>
    <path fill-rule="evenodd" clip-rule="evenodd" d="M137.79 17.5088V48.5634H157.937L159.493 45.2666H143.455V17.5088H137.79Z" fill="#333333"/>
    <path fill-rule="evenodd" clip-rule="evenodd" d="M163.511 48.5634H169.138V17.5088H163.511V48.5634Z" fill="#333333"/>
    <path fill-rule="evenodd" clip-rule="evenodd" d="M198.934 17.5088V39.1208L183.552 17.5088H177.98V48.5634H183.552V26.9514L198.934 48.5634H204.506V17.5088H198.934Z" fill="#333333"/>
    <path fill-rule="evenodd" clip-rule="evenodd" d="M231.456 17.5088L221.644 31.1842H216.466V17.5088H210.938V48.5634H216.466V34.4808H221.644L231.767 48.5634H238.269L226.861 32.8122L237.879 17.5088H231.456Z" fill="#333333"/>
</svg>