<svg xmlns="http://www.w3.org/2000/svg" viewBox="0 0 353 34">
  <path d="M122.697 17.0352H116.663V10.9962H122.697V17.0352H125.568L126.252 17.0755L126.579 17.1057L127.137 17.2164L127.399 17.2768L127.841 17.463L128.047 17.5636L128.384 17.8354L128.54 17.9814L128.781 18.3437L128.887 18.5349L129.043 19.003L129.108 19.2546L129.189 19.8333L129.234 20.8449V23.0743H122.697M148.343 17.0352H141.805V23.0743H135.268V20.7946L135.324 20.1303L135.359 19.8132L135.485 19.2546L135.56 18.9929L135.771 18.54L135.887 18.3286L136.189 17.9763L136.349 17.8102L136.742 17.5486L136.948 17.4328L137.441 17.2567L137.702 17.1812L138.301 17.0906L139.321 17.0352H141.805V10.9962H148.343V17.0352Z" fill="#D53636"/>
  <path d="M29.3065 33.2552L29.5629 33.4263L29.7942 33.4867L30.3273 33.5823L30.7195 33.6075L31.5945 33.6427H29.1657V32.8878L29.2059 33.1545M9.69507 33.2552L9.95152 33.4263L10.1828 33.4867L10.7159 33.5823L11.1081 33.6075L11.9831 33.6427H9.55427V32.8878L9.59449 33.1545M44.7391 33.6427H41.7371L43.2004 33.6075L43.8943 33.542L44.1256 33.4867L44.5128 33.3508L44.6134 33.2552L44.7441 33.0488M167.954 33.6427H164.937L166.4 33.6075L167.094 33.542L167.325 33.4867L167.713 33.3508L167.813 33.2552L167.954 33.0337M45.4079 6.46181L45.3476 6.65808L45.247 7.22676L45.2017 7.54381L45.1263 8.42451L45.0911 8.91267L45.0358 10.1809L45.0107 10.8703L44.9704 12.6116L44.9604 13.0796L44.9403 14.1214L44.9352 14.6548L44.9151 15.8425L44.9101 16.4515L44.8699 19.9843L44.7441 32.8576L44.6084 32.3544L44.3871 32.1329H44.2513L44.1357 31.9366L44.0703 31.6146L44.0401 31.3579L43.9798 30.7842L43.9547 30.4067L43.9094 29.5864L43.8893 29.0933L43.8541 28.0364L43.839 27.4275L43.8139 26.1442L43.8038 25.4195L43.7887 23.9147L43.7837 23.0844V20.4322L43.8038 16.9849L43.8189 15.0524L43.834 14.2472L43.8641 12.7324L43.8893 12.1134L43.9345 10.9559L43.9697 10.4929L44.0401 9.63233L44.0854 9.29011L44.1809 8.65601L44.2413 8.40438L44.5128 7.54885L44.7039 7.22173L45.3325 6.34103L45.5286 6.14979M297.525 25.2886L298.51 26.5619L297.877 25.968L297.575 25.5604L297.47 25.3339L297.299 24.8609L297.253 24.579L297.238 24.4583M319.314 19.4911L309.307 19.6471L306.285 19.7025L305.395 19.7176L303.916 19.7578L303.222 19.783L302.101 19.8333L301.578 19.8635L300.758 19.934L300.376 19.9742L299.788 20.0648L299.521 20.1202L299.109 20.241L298.37 20.6889L298.44 20.6083L298.822 20.3467L299.662 19.8585L300.2 19.6572L301.357 19.2898L302.061 19.1489L303.554 18.8922L304.439 18.8067L306.295 18.6507L307.371 18.6054L309.624 18.545L319.314 19.4911L318.308 17.3171L318.454 16.3558L318.675 15.8626L318.811 15.7771L319.238 15.4399L319.314 15.3141M319.314 14.5189V15.1681L319.168 15.0121L318.992 14.9467L318.569 14.8259L318.248 14.7806L317.529 14.6901L317.046 14.6599L316 14.5995L315.346 14.5793L313.958 14.5441L313.124 14.534L311.363 14.5189M47.8065 5.8579L48.0378 6.04411L48.5005 6.46684L48.7268 6.75873L49.1844 7.39284L49.4106 7.78538L49.8582 8.62582L50.0744 9.12404L50.8136 10.6992L50.9594 10.9811L50.7432 10.5935L49.7828 8.76673L49.4106 8.03701L48.7268 6.94997L48.3899 6.46684L47.7562 5.86797L47.6406 5.77738M178.011 6.46684H173.083L174.617 6.44671L175.492 6.41652L175.859 6.39136L176.548 6.336L176.819 6.30077L177.317 6.21522L177.498 6.16489L177.815 6.05417L177.905 5.98875L178.011 5.88307M178.011 5.66667L177.996 5.60628L177.905 5.51066L177.684 5.31942L177.508 5.2087L177.312 4.97217L177.196 4.71551L177.151 4.55447L177.005 3.82475V3.41711L177.151 2.37034L177.252 2.12877L177.312 2.05329L177.438 1.93754H177.508L177.865 1.7161L178.011 1.38899M46.2779 5.65157L46.4337 5.58111L46.5594 5.56602M167.808 32.3544L167.587 32.1329H167.451L167.315 31.8612L167.235 31.4183L167.2 31.0861L167.134 30.3514L167.109 29.8884L167.054 28.897L167.034 28.3283L166.993 27.1356L166.948 25.1276L166.938 24.4079L166.913 21.4337L166.943 16.8037L166.973 15.3393L167.009 13.8999L167.029 13.2256L167.074 11.9121L167.099 11.3132L167.154 10.1658L167.19 9.67259L167.255 8.74156L167.295 8.36915L167.371 7.69982L167.416 7.47839L167.501 7.12108L167.552 7.07075L167.954 6.89461V32.8878M9.86101 6.97513L9.95655 7.07075L10.0923 7.47839L10.1778 8.00178L10.213 8.36915L10.2884 9.1794L10.3186 9.67259L10.379 10.7194L10.4091 11.3132L10.4594 12.5512L10.5198 14.6095L10.5348 15.3393L10.5801 18.3487L10.5851 19.8937V22.9686L10.57 24.4079L10.5499 25.8171L10.5298 26.4763L10.4996 27.7546L10.4745 28.3283L10.4292 29.4204L10.3991 29.8884L10.3387 30.754L10.3086 31.0861L10.2331 31.68L10.1929 31.8612L10.1074 32.1329H10.0571L9.7001 32.3544L9.55427 32.6815V6.86945M29.3115 1.7161L29.5277 1.93754H29.6685L29.7842 2.18917L29.8546 2.60184L29.8847 2.92895L29.9451 3.66371L29.9702 4.14683L30.0205 5.19864L30.0406 5.83777L30.0809 7.19153L30.1261 9.63736L30.1563 12.516L30.1714 15.8173V17.0352L30.1613 20.4775L30.1513 22.561L30.1362 23.497L30.1161 25.2987L30.0959 26.0888L30.0607 27.5935L30.0406 28.2327L29.9954 29.4355L29.9702 29.9236L29.9149 30.8144L29.8847 31.1415L29.8194 31.7152L29.7842 31.8813L29.7087 32.1329H29.6685L29.3115 32.3544L29.1657 32.6815V1.18265M177.916 0.96122L177.735 0.840438L177.569 0.790113L177.181 0.694494L176.89 0.659266L176.236 0.58881L175.788 0.558615L174.813 0.513322L174.179 0.493191L172.822 0.462996L171.977 0.452931L170.177 0.437833L167.974 0.427768H166.119H178.011V1.18265M151.863 6.46684V0.427768H152.868V6.46684M32.1828 0.427768L30.7195 0.462996L30.0255 0.528419L29.7942 0.583777L29.407 0.719657L29.3065 0.815275L29.1657 1.03671V0.427768H32.1828Z" fill="#2D2D2D"/>
  <path d="M48.8122 0.181172L49.2296 0.251628L49.9889 0.478094L50.361 0.60894L51.06 1.00651L51.402 1.23298L52.0909 1.87715L52.4378 2.23446L53.162 3.19568L53.5341 3.71906L54.3487 5.06276L54.7711 5.78745L55.7265 7.58407L55.9729 8.06217L56.5059 9.12404L56.7775 9.66756L57.6625 11.4843L58.3011 12.823L59.337 15.0121L59.7494 15.8878L60.4986 17.4831L61.5345 19.6572L61.8563 20.3366L62.4497 21.5545L62.7414 22.1433L63.2643 23.1951L63.5158 23.6983L64.1996 25.0068L64.607 25.7416L64.8081 26.0938L65.1651 26.6827L65.3411 26.9645L65.6579 27.4224L65.9697 27.8502L66.4977 28.3535L66.7491 28.5497L67.2118 28.6504L67.438 28.6554L67.8856 28.434L68.6047 27.82L68.6902 27.7345L68.8309 27.4879L68.9014 27.347L69.012 26.9393L69.0673 26.7078L69.1528 26.0737L69.193 25.7214L69.2533 24.8005L69.2835 24.2972L69.3237 23.024L69.3439 22.3396L69.364 20.6536L69.3791 19.7528L69.3891 17.5838V17.0101L69.3941 15.762V0.427768H75.4284V15.3443L75.4234 17.0906V17.9361L75.4083 20.2208L75.3932 21.5696L75.3832 22.2238L75.358 23.3964L75.3429 23.9651L75.3027 24.9816L75.2776 25.4748L75.2223 26.3455L75.1619 27.1859L74.9859 28.4994L74.8853 29.1033L74.6088 30.0394L74.4579 30.4671L74.0707 31.1365L73.8595 31.4535L73.3416 31.9819L72.3811 32.7519L72.2152 32.8727L71.7475 33.0941L71.4961 33.2049L70.8826 33.3961L70.2389 33.5823L68.7153 33.839L67.9459 33.9446L66.4424 34H66.0854L65.4417 33.9497L65.1299 33.9195L64.617 33.8037L64.2751 33.7081L63.6566 33.4665L63.3548 33.3307L62.7866 32.9683L62.505 32.767L61.9519 32.2336L61.6703 31.9366L61.092 31.1767L60.7953 30.759L60.1466 29.7173L59.8147 29.1536L59.0655 27.7798L58.6733 27.045L57.7832 25.2786L56.2445 22.1332L54.2129 17.8807L53.7101 16.8138L53.4637 16.2954L53.0262 15.3644L52.463 14.1415L52.292 13.7792L51.9048 12.9236L51.7439 12.5462L51.6333 12.2543L51.2762 11.4994L51.241 11.4642L51.1002 11.2327L51.0198 11.0968L50.8136 10.6992L50.0744 9.12404L49.8582 8.62582L49.4106 7.78538L49.1844 7.39284L48.7268 6.75873L48.5005 6.46684L48.0378 6.04411L47.8065 5.8579L47.3439 5.6415L47.1126 5.56098L46.66 5.55595L46.4337 5.58111L45.9862 5.78745L45.7649 5.9183L45.3325 6.34103L44.7039 7.22173L44.5128 7.54885L44.2413 8.40438L44.1809 8.65601L44.0854 9.29011L44.0401 9.63233L43.9697 10.4929L43.9345 10.9559L43.8893 12.1134L43.8641 12.7324L43.834 14.2472L43.8189 15.0524L43.8038 16.9849L43.7837 20.4322V23.0844L43.7887 23.9147L43.8038 25.4195L43.8139 26.1442L43.839 27.4275L43.8541 28.0364L43.8893 29.0933L43.9094 29.5864L43.9547 30.4067L43.9798 30.7842L44.0401 31.3579L44.0703 31.6146L44.1357 31.9366L44.2513 32.1329H44.3871L44.6084 32.3544L44.7542 32.8878V33.0337L44.6134 33.2552L44.5128 33.3508L44.1256 33.4867L43.8943 33.542L43.2004 33.6075L41.7371 33.6427H38.7199V18.847L38.725 17.1308V16.2954L38.74 14.0409L38.7551 12.7022L38.7602 12.053L38.7903 10.8854L38.8004 10.3218L38.8406 9.31024L38.8607 8.82208L38.911 7.95145L38.9663 7.11101L39.1272 5.79248L39.2178 5.18857L39.4642 4.24748L39.5999 3.81468L39.9419 3.14032L40.1329 2.82327L40.5956 2.29988L41.4404 1.56009L41.8477 1.23801L42.8936 0.739787L43.4468 0.513322L44.7089 0.2164L45.3576 0.0956187L46.7304 0.0201303M334.274 0.523387L335.41 0.543517L337.376 0.583777L338.312 0.603908L339.901 0.649201L340.66 0.674364L341.932 0.734754L342.531 0.76495L344.004 0.875666L344.788 0.971285L345.155 1.02161L345.769 1.13736L347.217 1.59532L347.956 1.92747L349.138 2.63203L349.691 2.99941L350.551 3.84991L350.948 4.30284L351.572 5.39491L352.326 7.41297L352.497 7.98668L352.713 8.9177L352.799 9.36057L352.864 10.1557L352.879 10.5533L352.799 11.3837L352.517 12.8733L352.351 13.6332L351.778 15.0625L351.456 15.757L350.627 16.9849L350.184 17.5687L349.163 18.5249L347.474 19.5515L347.061 19.7226L346.408 20.09L346.272 20.1755L346.086 20.3316L345.965 20.5077V20.5278L346.035 20.6889L346.086 20.7895L346.242 21.0915L346.332 21.2575L346.568 21.6803L346.694 21.9067L346.996 22.4352L347.318 22.9888L348.117 24.3425L349.48 26.6122L349.963 27.4023L350.843 28.902L351.265 29.6267L351.964 30.8748L352.281 31.4535L352.718 32.3141L352.809 32.5003L352.925 32.767L353 33.0136V33.1243L352.824 33.2954L352.703 33.376L352.281 33.4917L352.035 33.542L351.351 33.6075L350.013 33.6427H347.021L344.482 29.511L344.135 28.9423L343.496 27.8552L343.194 27.3319L342.686 26.4059L342.46 25.968L342.143 25.3088L341.942 24.73V24.5539L341.796 24.2721L341.439 24.0808H341.304L341.082 23.9248L340.936 23.5574V23.4819L340.846 23.2504L340.786 23.1246L340.595 22.8176L339.77 21.7709L339.498 21.479L339.021 21.0814L338.769 20.9103L338.12 20.7191L337.934 20.6838L337.477 20.6385L337.23 20.6234L336.632 20.6134L336.31 20.6083L335.531 20.6234L334.113 20.6637L329.622 20.8097L329.341 33.6427H323.337V25.1024L323.362 23.1548L323.377 22.2137L323.432 20.5832L323.447 20.2057L323.477 19.5414L323.497 19.2244L323.533 18.701L323.553 18.4594L323.593 18.1072L323.658 17.78L323.704 17.6643L323.96 17.3774L324.116 17.2265L324.543 16.9044L326.218 15.9784L326.686 15.7771L327.651 15.4902L328.169 15.3644L329.476 15.1983L329.838 15.1631L330.688 15.1128L331.131 15.0876L332.177 15.0574L332.725 15.0474L334.002 15.0323L336.235 15.0222H337.306L339.332 14.9819L340.308 14.9568L342.008 14.8763L342.4 14.8511L343.099 14.8008L343.426 14.7756L343.974 14.7152L344.23 14.685L344.607 14.6246L344.954 14.524L345.241 14.368L345.774 13.6735L346.03 13.2809L346.433 12.2946L346.609 11.7913L346.79 10.7697L346.714 9.47632L346.629 9.19449L346.171 8.45974L345.326 7.45826L345.08 7.22676L344.477 6.91474L344.296 6.84429L343.808 6.7386L343.541 6.68828L342.837 6.61782L342.45 6.58259L341.454 6.5373L340.916 6.51717L339.559 6.49201L338.829 6.48194L337.044 6.47188L333.801 6.46684H323.337V0.342214M25.6457 6.46684H15.5885V33.6427H11.9831L11.1081 33.6075L10.7159 33.5823L10.1828 33.4867L9.95152 33.4263L9.69507 33.2552L9.59449 33.1545L9.55427 32.8878V32.6815L9.7001 32.3544L10.0571 32.1329H10.1074L10.1929 31.8612L10.2331 31.68L10.3086 31.0861L10.3387 30.754L10.3991 29.8884L10.4292 29.4204L10.4745 28.3283L10.4996 27.7546L10.5298 26.4763L10.5499 25.8171L10.57 24.4079L10.5851 22.9686V19.8937L10.5801 18.3487L10.5348 15.3393L10.5198 14.6095L10.4594 12.5512L10.4091 11.3132L10.379 10.7194L10.3186 9.67259L10.2884 9.1794L10.213 8.36915L10.1778 8.00178L10.0923 7.47839L9.95655 7.07075L9.86101 6.97513L9.38832 6.81409L9.10672 6.7386L8.28707 6.62285L7.8345 6.57253L6.69804 6.50711L4.67656 6.46684H0V0.427768H25.6457M35.1999 33.6427H31.5945L30.7195 33.6075L30.3273 33.5823L29.7942 33.4867L29.5629 33.4263L29.3065 33.2552L29.2059 33.1545L29.1657 32.8878V32.6815L29.3115 32.3544L29.6685 32.1329H29.7087L29.7842 31.8813L29.8194 31.7152L29.8847 31.1415L29.9149 30.8144L29.9702 29.9236L29.9954 29.4355L30.0406 28.2327L30.0607 27.5935L30.0959 26.0888L30.1161 25.2987L30.1362 23.497L30.1513 22.561L30.1613 20.4775L30.1714 17.0352V15.8173L30.1563 12.516L30.1261 9.63736L30.0809 7.19153L30.0406 5.83777L30.0205 5.19864L29.9702 4.14683L29.9451 3.66371L29.8847 2.92895L29.8546 2.60184L29.7842 2.18917L29.6685 1.93754H29.5277L29.3115 1.7161L29.1657 1.18265V1.03671L29.3065 0.815275L29.407 0.719657L29.7942 0.583777L30.0255 0.528419L30.7195 0.462996L32.1828 0.427768H35.1999M110.533 0.447898L110.945 0.457963L111.629 0.503256L111.941 0.523387L112.368 0.578745L112.64 0.679396V0.694494L112.499 0.915927L112.408 1.05181L111.931 1.74127L111.478 2.37537L111.232 2.71758L110.337 3.95056L109.638 4.90675L109.281 5.39994L105.851 10.0249L99.0627 19.1237V33.6427H93.0284V19.3854L86.4661 10.6338L85.561 9.43102L83.8915 7.17644L82.755 5.62137L82.393 5.13322L81.7443 4.23742L81.4376 3.80965L80.9045 3.0598L80.2458 2.12374L80.0648 1.86205L79.8133 1.47957L79.6222 1.15246L79.5669 1.00651L79.6273 0.790113L79.6977 0.694494L80.0798 0.56868L80.3162 0.518354L81.0956 0.457963L82.8204 0.427768H86.2901L91.0421 7.42806L91.6908 8.38928L92.9077 10.1306L93.491 10.9559L94.4867 12.3147L94.713 12.6217L95.1102 13.14L95.3013 13.3816L95.603 13.754L95.7438 13.9201L95.9399 14.1314L96.1008 14.2321L96.1209 14.222L96.2567 14.056L96.3422 13.9503L96.5886 13.6231L96.7294 13.4369L97.2624 12.7022L97.6949 12.0983L98.1475 11.4642L99.2437 9.89402L101.084 7.23179L105.756 0.427768H109.673M167.974 0.427768L170.177 0.437833L171.977 0.452931L172.822 0.462996L174.179 0.493191L174.813 0.513322L175.788 0.558615L176.236 0.58881L176.89 0.659266L177.181 0.694494L177.569 0.790113L177.735 0.840438L177.916 0.96122L178.011 1.18265V1.38899L177.865 1.7161L177.508 1.93754H177.438L177.312 2.05329L177.252 2.12877L177.151 2.37034L177.005 3.41711V3.82475L177.151 4.55447L177.196 4.71551L177.312 4.97217L177.508 5.2087L177.684 5.31942L177.905 5.51066L177.996 5.60628L178.041 5.77235V5.85287L177.905 5.98875L177.815 6.05417L177.498 6.16489L177.317 6.21522L176.819 6.30077L176.548 6.336L175.859 6.39136L175.492 6.41652L174.617 6.44671L173.083 6.46684H172.294L170.941 6.50711L170.302 6.53227L169.276 6.62285L168.809 6.67318L168.135 6.81409L167.552 7.07075L167.501 7.12108L167.416 7.47839L167.371 7.69982L167.295 8.36915L167.255 8.74156L167.19 9.67259L167.154 10.1658L167.099 11.3132L167.074 11.9121L167.029 13.2256L167.009 13.8999L166.973 15.3393L166.943 16.8037L166.913 21.4337L166.938 24.4079L166.948 25.1276L166.993 27.1356L167.034 28.3283L167.054 28.897L167.109 29.8884L167.134 30.3514L167.2 31.0861L167.235 31.4183L167.315 31.8612L167.451 32.1329H167.587L167.808 32.3544L167.954 32.8878V33.0337L167.813 33.2552L167.713 33.3508L167.325 33.4867L167.094 33.542L166.4 33.6075L164.937 33.6427H161.92V6.46684H152.868V0.427768H166.119M195.953 0.513322L197.834 0.548549L198.734 0.56868L200.293 0.654233L201.032 0.704559L202.314 0.840438L202.928 0.920959L203.984 1.12226L204.486 1.22795L205.361 1.4997L205.784 1.64062L206.533 1.98283L207.559 2.58674L208.208 3.02457L209.243 4.16193L209.716 4.76584L210.405 6.16489L210.707 6.88455L211.059 8.44464L211.19 9.23475L211.205 10.8603L211.169 11.6705L210.853 13.2658L210.651 14.0509L210.008 15.5204L209.646 16.23L208.675 17.4781L206.865 18.9879L206.267 19.3502L205.326 20.0548L205.13 20.2108L204.854 20.4775L204.678 20.7593V20.7895L204.748 20.9657L204.793 21.0713L204.949 21.3884L205.04 21.5645L205.271 22.0024L205.397 22.2339L205.703 22.7724L206.02 23.341L206.815 24.7099L208.182 26.9896L208.665 27.7848L209.55 29.2694L209.968 29.979L210.667 31.1969L210.827 31.4787L211.099 31.9719L211.225 32.2034L211.426 32.5808L211.516 32.7519L211.632 32.9985L211.702 33.2049V33.2652L211.456 33.376L211.295 33.4263L210.777 33.5118L210.496 33.5471L209.782 33.6024L208.56 33.6276L205.417 33.6175L197.472 20.5228L192.644 20.6687L187.817 20.8097L187.535 33.6427H184.136L182.889 33.542L182.612 33.5118L182.205 33.4364L182.029 33.3961L181.868 33.3055L181.833 33.2753L181.772 33.074L181.747 32.9532L181.697 32.5959L181.652 32.2084L181.586 31.0459L181.561 30.4168L181.531 28.122L181.546 26.4361L181.556 25.5906L181.632 23.0693L181.712 21.5444L181.757 20.8197L181.863 19.6371L181.893 19.3653L181.958 18.9275L182.059 18.4242L182.2 17.9059L182.753 16.9144L182.899 16.688L183.221 16.3156L183.688 15.9281L183.779 15.8777L184.096 15.7821L184.277 15.7368L184.78 15.6462L185.051 15.6009L185.725 15.5204L186.082 15.4751L186.922 15.3996L187.364 15.3644L188.36 15.294L188.883 15.2587L190.034 15.1933L190.628 15.1631L191.925 15.1128L194.022 15.0373L195.138 15.0071L196.984 14.9517L197.854 14.9216L199.252 14.8662L199.9 14.836L200.926 14.7655L201.394 14.7303L202.113 14.6448L202.445 14.5995L202.928 14.4787L203.149 14.4183L203.476 14.2573L204.205 13.5829L204.547 13.1602L204.954 12.1637L205.11 11.6504L205.15 10.5784L205.125 10.045L204.808 9.02339L203.933 7.69982L203.622 7.39284L203.048 6.99023L202.882 6.89964L202.435 6.7688L202.188 6.70841L201.52 6.62285L201.147 6.58259L200.167 6.53227L199.624 6.51214L198.236 6.48697L197.859 6.48194L197.009 6.47691L196.572 6.47188L195.586 6.46684H181.481L181.783 0.679396L191.337 0.538484L192.619 0.523387L194.877 0.513322M235.875 0.115749L236.383 0.19627L237.338 0.468028L237.801 0.619005L238.63 1.04677L239.681 1.85702L239.787 1.96773L240.074 2.40053L240.229 2.65719L240.617 3.37685L240.823 3.77442L241.306 4.77087L241.557 5.30432L242.13 6.57253L242.432 7.23683L243.096 8.76169L244.182 11.3283L244.564 12.2493L245.389 14.2623L246.711 17.5385L248.954 23.18L249.306 24.0607L251.584 29.823L251.805 30.3866L252.162 31.3025L252.323 31.7202L252.554 32.3091L252.725 32.7872L252.796 32.9885L252.786 33.2703L252.751 33.386L252.434 33.5219L252.223 33.5722L251.453 33.5974H251.227L250.669 33.5823L249.648 33.542L246.274 33.3911L242.306 23.3763L241.763 21.9973L240.788 19.466L240.556 18.862L240.139 17.7398L239.933 17.1963L239.581 16.225L239.133 14.9618L239.008 14.5844L238.811 13.9905L238.726 13.7188L238.63 13.3564L238.6 13.0998L238.671 13.0293L238.57 12.6821L238.138 12.0429L237.941 11.8265L237.625 11.3686L237.403 10.8603V10.8099L237.318 10.5332L237.268 10.3721L237.102 9.92422L236.393 8.21818L236.247 7.90113L235.95 7.35761L235.799 7.10598L235.493 6.69834L235.332 6.51214L235.015 6.24541L234.854 6.12463L234.527 5.99378L234.366 5.94346L234.044 5.95352L233.883 5.97365L233.562 6.1196L233.406 6.21018L233.099 6.50207L232.651 7.09592L232.601 7.1714L232.405 7.58407L232.289 7.82564L231.968 8.54026L231.797 8.92777L231.369 9.90409L231.143 10.4224L230.63 11.6303L230.358 12.2543L229.77 13.6483L228.82 15.913L226.743 20.9355L221.533 33.6427H217.968L217.375 33.6377L217.093 33.6326L216.635 33.6125L216.208 33.5924L215.695 33.4917L215.489 33.4313L215.328 33.225L215.283 33.1092L215.353 32.762L215.368 32.7016L215.524 32.294L215.62 32.0423L215.911 31.2874L216.077 30.8697L216.5 29.8129L216.726 29.2493L217.254 27.9257L217.531 27.2362L218.154 25.6963L218.481 24.9011L219.18 23.175L222.011 16.2451L223.434 12.828L224.264 10.8653L224.666 9.92422L225.385 8.29366L225.727 7.51362L226.336 6.18502L226.627 5.56098L227.14 4.51924L227.382 4.03612L227.804 3.26613L228.005 2.91385L228.352 2.39047L228.784 1.86708L229.116 1.55506L229.916 1.05181L230.333 0.820308L231.264 0.468028L231.746 0.312019L232.762 0.120782L233.275 0.0402605L234.326 0.00503256L234.849 0M270.195 0.518354L271.527 0.578745L273.855 0.80521L274.967 0.941089L276.893 1.33363L277.808 1.55003L279.392 2.12877L280.146 2.44583L281.444 3.23091L282.062 3.65364L283.123 4.67525L283.631 5.21877L284.521 6.49704L285.718 8.7315L285.964 9.26998L286.316 10.2413L286.472 10.7345L286.668 11.8316L286.708 12.1234L286.769 12.7928L286.794 13.1451L286.829 13.9452L286.849 14.368L286.864 15.3393L286.874 17.0352V17.6542L286.859 19.2445L286.829 20.1252L286.814 20.548L286.769 21.2777L286.744 21.6249L286.668 22.2389L286.583 22.8327L286.316 23.8292L285.718 25.339L285.341 26.1593L284.516 27.5734L284.089 28.2478L283.108 29.3952L282.595 29.9387L281.413 30.8396L280.785 31.2623L279.332 31.9467L278.567 32.2587L276.792 32.7419L275.857 32.9583L273.695 33.2652L272.563 33.4011L269.968 33.5521L265.513 33.6427H264.869L263.19 33.6276L262.229 33.6075L261.772 33.5924L260.977 33.5571L260.595 33.537L259.951 33.4867L259.338 33.4313L258.493 33.2652L258.126 33.1747L257.684 32.9281L257.568 32.8425L257.377 32.6412L257.286 32.5305L257.141 32.1883L257.07 31.992L256.97 31.4082L256.919 31.0761L256.849 30.1451L256.814 29.6217L256.773 28.2327L256.763 27.8502L256.748 26.9846L256.738 26.5317L256.723 24.9867L256.718 23.8091L256.713 23.1951V21.8363L256.708 21.1368V13.6835L256.713 12.2342V11.5296L256.718 10.2614L256.723 9.65246L256.728 8.55536L256.733 8.02694L256.748 7.08585L256.753 6.63292L256.773 5.83777L256.794 5.07786L256.849 3.9254L256.879 3.40705L256.97 2.66223L257.015 2.33008L257.141 1.88218L257.206 1.68591L257.377 1.42925L257.684 1.14239L257.87 1.00651L258.508 0.80521L258.694 0.759917L259.162 0.679396L259.408 0.644168L260.007 0.583777L260.324 0.553582L261.073 0.513322L261.47 0.493191L262.385 0.462996L262.863 0.452931L263.959 0.437833L265.83 0.427768H267.414M319.565 6.21522L308.713 6.48194L307.572 6.51214L307.024 6.52724L305.058 6.57756L302.78 6.65808L301.648 6.72351L301.13 6.75873L300.346 6.84429L299.989 6.88958L299.466 7.00533L299.23 7.07075L298.888 7.22676L298.148 7.90616L297.887 8.23327L297.525 8.96803L297.369 9.34547L297.233 10.1456L297.193 10.5432L297.284 11.3484L297.681 12.4858L297.791 12.6921L298.093 13.0444L298.264 13.2105L298.717 13.4923L298.968 13.6282L299.617 13.8496L299.969 13.9503L300.849 14.1163L301.321 14.1918L302.478 14.3076L303.092 14.3579L304.56 14.4334L305.339 14.4636L307.16 14.4988L310.338 14.5189H311.363L313.124 14.534L313.958 14.5441L315.346 14.5793L316 14.5995L317.046 14.6599L317.529 14.6901L318.248 14.7806L318.569 14.8259L318.992 14.9467L319.168 15.0121L319.314 15.1681L319.349 15.2487L319.238 15.4399L318.811 15.7771L318.675 15.8626L318.454 16.3558L318.308 17.3171L319.314 19.4911L309.624 18.545L307.371 18.6054L306.295 18.6507L304.439 18.8067L303.554 18.8922L302.061 19.1489L301.357 19.2898L300.2 19.6572L299.662 19.8585L298.822 20.3467L298.44 20.6083L297.887 21.2274L297.646 21.5545L297.359 22.3144L297.188 23.6178V23.9802L297.253 24.579L297.299 24.8609L297.47 25.3339L297.575 25.5604L297.877 25.968L298.51 26.5619L298.822 26.8034L299.491 27.1356L299.682 27.206L300.175 27.3218L300.441 27.3721L301.135 27.4476L301.513 27.4828L302.473 27.5332L302.996 27.5533L304.303 27.5784L305.002 27.5885L306.727 27.5986L309.85 27.6036H319.867L319.565 33.3911L308.698 33.4766L306.129 33.4615L304.877 33.4515L302.624 33.3911L302.096 33.376L301.135 33.3407L300.673 33.3206L299.883 33.2703L299.511 33.2501L298.646 33.1696L298.284 33.1092L297.736 32.9985L296.725 32.7016L296.238 32.5406L295.348 32.143L294.92 31.9266L294.151 31.4233L293.779 31.1566L293.13 30.5477L292.823 30.2256L292.29 29.511L292.044 29.1385L291.631 28.3182L291.44 27.8955L291.149 26.9695L290.842 25.4597L290.741 24.7351L290.887 23.185L291.008 22.41L291.516 20.9405L291.802 20.241L292.567 19.1036L292.768 18.852L293.205 18.4594L293.894 18.0518L294.317 17.8908L294.825 17.5989L295.026 17.4479L295.076 17.1007L295.041 16.9144L294.608 16.4112L294.473 16.2703L294.1 15.9432L293.406 15.3695L292.919 14.9819L292.235 14.2422L292.099 14.0761L291.938 13.7993L291.903 13.5175L291.978 13.3967L291.943 13.1149L291.657 12.7575L291.516 12.667L291.38 12.3851L291.44 11.9473L291.526 11.8114L291.491 11.3988L291.184 10.7798L291.073 10.6489L290.953 10.2513L290.902 10.0299L290.887 9.48638L290.897 8.9177L291.194 7.53375L291.38 6.83422L291.958 5.46536L292.114 5.14328L292.461 4.5595L293.029 3.83481L293.351 3.4926L294.005 2.91889L294.337 2.64713L295.061 2.1942L295.438 1.98283L296.303 1.64062L296.766 1.48461L297.852 1.23801L298.43 1.12729L299.808 0.96122L300.542 0.890764L302.287 0.790113L303.212 0.749852L305.4 0.704559L305.978 0.694494L307.23 0.684429L309.257 0.679396H319.565M262.742 6.71847L262.471 27.6841L269.234 27.5181L271.241 27.4627L271.839 27.4426L272.845 27.3973L273.317 27.3721L274.107 27.3117L274.474 27.2815L275.087 27.201L275.661 27.1155L276.445 26.8538L276.807 26.7078L277.416 26.2951L277.994 25.8623L278.914 24.881L279.337 24.3626L279.97 23.1548L280.257 22.5157L280.644 21.0009L280.986 18.2883L281.066 17.0252L280.961 14.7806L280.911 14.2422L280.745 13.2457L280.649 12.7575L280.393 11.8668L280.257 11.429L279.915 10.6439L279.734 10.2614L279.306 9.582L279.085 9.25489L278.572 8.6862L277.707 7.96152L277.28 7.66963L276.546 7.27709L276.164 7.10598L275.188 6.90468L274.911 6.85938L274.238 6.80403L273.876 6.77886L272.996 6.74867L272.523 6.73357L271.381 6.72351L269.32 6.71847H262.742Z" fill="#2D2D2D"/>
  <path d="M129.234 23.0743H135.268V29.1134H129.234V23.0743ZM122.697 4.95708H141.805V10.9962H122.697V4.95708Z" fill="#F1B82B"/>
</svg>