<svg viewBox="0 0 281 66" xmlns="http://www.w3.org/2000/svg">
<path d="M280.742 47.9135L273.676 35.943C276.004 34.9679 277.917 33.2329 279.093 31.0314C280.269 28.83 280.634 26.2972 280.128 23.8614C279.622 21.4256 278.275 19.2363 276.315 17.6637C274.356 16.0911 271.903 15.2316 269.372 15.2308H253.869C253.614 15.2297 253.362 15.2782 253.126 15.3736C252.89 15.4689 252.676 15.6091 252.496 15.7861C252.316 15.9631 252.173 16.1733 252.076 16.4048C251.979 16.6363 251.93 16.8843 251.931 17.1346V48.8654C251.931 49.3703 252.135 49.8546 252.499 50.2116C252.862 50.5687 253.355 50.7692 253.869 50.7692H255.161C255.675 50.7692 256.168 50.5687 256.531 50.2116C256.895 49.8546 257.099 49.3703 257.099 48.8654V36.8077H268.403L276.091 49.8173C276.261 50.1069 276.506 50.3474 276.8 50.5145C277.095 50.6816 277.43 50.7695 277.77 50.7692H279.086C279.427 50.7695 279.761 50.6816 280.056 50.5146C280.35 50.3476 280.595 50.1073 280.766 49.8178C280.936 49.5284 281.025 49.2 281.025 48.8657C281.026 48.5314 280.936 48.203 280.766 47.9135H280.742ZM257.099 20.3077H269.372C270.914 20.3077 272.393 20.9094 273.483 21.9806C274.574 23.0517 275.186 24.5044 275.186 26.0192C275.186 27.534 274.574 28.9868 273.483 30.0579C272.393 31.129 270.914 31.7308 269.372 31.7308H257.099V20.3077Z" fill="#17244B"/>
<path d="M240.949 15.2308H213.818C213.564 15.2297 213.311 15.2782 213.076 15.3736C212.84 15.4689 212.626 15.6091 212.446 15.7861C212.266 15.9631 212.123 16.1733 212.026 16.4048C211.929 16.6363 211.879 16.8843 211.88 17.1346V18.4038C211.879 18.6542 211.929 18.9022 212.026 19.1337C212.123 19.3651 212.266 19.5754 212.446 19.7524C212.626 19.9294 212.84 20.0696 213.076 20.1649C213.311 20.2602 213.564 20.3087 213.818 20.3077H224.8V48.8654C224.8 49.3703 225.004 49.8546 225.368 50.2116C225.731 50.5687 226.224 50.7692 226.738 50.7692H228.03C228.543 50.7672 229.035 50.5659 229.398 50.2093C229.761 49.8527 229.966 49.3697 229.968 48.8654V20.3077H240.949C241.463 20.3077 241.956 20.1071 242.32 19.7501C242.683 19.393 242.887 18.9088 242.887 18.4038V17.1346C242.887 16.8846 242.837 16.637 242.74 16.406C242.642 16.1751 242.5 15.9652 242.32 15.7884C242.14 15.6116 241.926 15.4714 241.691 15.3757C241.456 15.28 241.204 15.2308 240.949 15.2308Z" fill="#17244B"/>
<path d="M212.526 45.6923H195.085V17.1346C195.086 16.8843 195.037 16.6363 194.94 16.4048C194.843 16.1733 194.7 15.9631 194.52 15.7861C194.34 15.6091 194.126 15.4689 193.89 15.3736C193.654 15.2782 193.402 15.2297 193.147 15.2308H191.855C191.6 15.2297 191.348 15.2782 191.112 15.3736C190.877 15.4689 190.663 15.6091 190.482 15.7861C190.302 15.9631 190.16 16.1733 190.063 16.4048C189.966 16.6363 189.916 16.8843 189.917 17.1346V48.8654C189.917 49.3703 190.121 49.8546 190.485 50.2116C190.848 50.5687 191.341 50.7692 191.855 50.7692H212.526C213.04 50.7692 213.533 50.5687 213.897 50.2116C214.26 49.8546 214.464 49.3703 214.464 48.8654V47.5962C214.465 47.3459 214.416 47.0978 214.319 46.8664C214.222 46.6349 214.079 46.4246 213.899 46.2476C213.719 46.0706 213.505 45.9304 213.269 45.8351C213.034 45.7398 212.781 45.6913 212.526 45.6923Z" fill="#17244B"/>
<path d="M179.582 17.1346C179.583 16.8843 179.533 16.6363 179.436 16.4048C179.339 16.1733 179.197 15.9631 179.016 15.7861C178.836 15.6091 178.622 15.4689 178.387 15.3736C178.151 15.2782 177.898 15.2297 177.644 15.2308H176.352C176.097 15.2297 175.844 15.2782 175.609 15.3736C175.373 15.4689 175.159 15.6091 174.979 15.7861C174.799 15.9631 174.656 16.1733 174.559 16.4048C174.462 16.6363 174.413 16.8843 174.414 17.1346V36.8077C174.414 39.3324 173.393 41.7536 171.576 43.5388C169.759 45.324 167.294 46.3269 164.724 46.3269C162.154 46.3269 159.69 45.324 157.873 43.5388C156.055 41.7536 155.034 39.3324 155.034 36.8077V17.1346C155.034 16.6297 154.83 16.1454 154.467 15.7884C154.103 15.4314 153.611 15.2308 153.097 15.2308H151.805C151.55 15.2297 151.297 15.2782 151.062 15.3736C150.826 15.4689 150.612 15.6091 150.432 15.7861C150.252 15.9631 150.109 16.1733 150.012 16.4048C149.915 16.6363 149.866 16.8843 149.867 17.1346V36.8077C149.867 40.6788 151.432 44.3914 154.218 47.1287C157.005 49.866 160.784 51.4039 164.724 51.4039C168.665 51.4039 172.444 49.866 175.23 47.1287C178.016 44.3914 179.582 40.6788 179.582 36.8077V17.1346Z" fill="#17244B"/>
<path d="M140.177 15.2308H138.958C138.57 15.2284 138.19 15.3416 137.868 15.5554C137.547 15.7692 137.299 16.0737 137.157 16.4286L125.966 43.9075L114.774 16.4286C114.632 16.0737 114.384 15.7692 114.063 15.5554C113.741 15.3416 113.361 15.2284 112.973 15.2308H111.754C111.437 15.2306 111.125 15.3067 110.846 15.4524C110.566 15.5981 110.327 15.8089 110.149 16.0664C109.971 16.3239 109.861 16.6203 109.826 16.9296C109.792 17.2389 109.836 17.5517 109.953 17.8406L122.873 49.5714C123.016 49.9257 123.264 50.2295 123.585 50.4432C123.906 50.6569 124.286 50.7705 124.674 50.7692H127.257C127.645 50.7705 128.025 50.6569 128.346 50.4432C128.667 50.2295 128.915 49.9257 129.058 49.5714L141.978 17.8406C142.095 17.5517 142.139 17.2389 142.105 16.9296C142.07 16.6203 141.96 16.3239 141.782 16.0664C141.604 15.8089 141.365 15.5981 141.085 15.4524C140.806 15.3067 140.494 15.2306 140.177 15.2308Z" fill="#17244B"/>
<path d="M27.0106 1.7769C26.6625 1.23177 26.1789 0.782621 25.6054 0.471757C25.0319 0.160894 24.3872 -0.001461 23.7322 -2.10217e-05H3.8765C3.18337 2.78932e-05 2.50293 0.18268 1.90609 0.528906C1.30924 0.875132 0.817817 1.37226 0.483025 1.9685C0.148233 2.56474 -0.0176806 3.23827 0.00257052 3.91892C0.0228217 4.59957 0.228497 5.26243 0.598166 5.83844L4.63552 12.1846L31.0479 8.12306L27.0106 1.7769Z" fill="#D0F5FD"/>
<path d="M31.0796 8.12308C30.7315 7.57794 30.2479 7.1288 29.6744 6.81793C29.1009 6.50707 28.4562 6.34472 27.8012 6.34616H7.9455C7.25237 6.3462 6.57193 6.52886 5.97509 6.87508C5.37824 7.22131 4.88682 7.71844 4.55203 8.31468C4.21723 8.91092 4.05132 9.58445 4.07157 10.2651C4.09182 10.9457 4.2975 11.6086 4.66717 12.1846L10.3679 21.0692L36.7803 17.0077L31.0796 8.12308Z" fill="#51B8FE"/>
<path d="M10.3679 21.0692C9.97964 20.4604 9.77265 19.7569 9.77039 19.0385C9.77039 18.0286 10.1787 17.0601 10.9056 16.346C11.6325 15.6319 12.6183 15.2308 13.6462 15.2308H33.502C34.157 15.2293 34.8016 15.3917 35.3751 15.7026C35.9487 16.0134 36.4322 16.4626 36.7803 17.0077L54.5447 44.6928C54.9349 45.3008 55.1419 46.0048 55.1419 46.7236C55.1419 47.4423 54.9349 48.1463 54.5447 48.7543L44.6208 64.2548C44.2716 64.7988 43.7878 65.2471 43.2145 65.5577C42.6412 65.8684 41.9972 66.0313 41.3425 66.0313C40.6878 66.0313 40.0438 65.8684 39.4705 65.5577C38.8973 65.2471 38.4134 64.7988 38.0642 64.2548L10.3679 21.0692Z" fill="#027BFB"/>
<path d="M60.4392 29.351C60.7872 29.9002 61.272 30.3533 61.8477 30.6674C62.4234 30.9816 63.0711 31.1464 63.7297 31.1464C64.3882 31.1464 65.0359 30.9816 65.6116 30.6674C66.1873 30.3533 66.6721 29.9002 67.0201 29.351L70.4115 24.0361L76.9197 13.8901C77.3099 13.2822 77.5169 12.5781 77.5169 11.8594C77.5169 11.1406 77.3099 10.4366 76.9197 9.82861L71.7519 1.77692C71.4038 1.23179 70.9203 0.782644 70.3467 0.47178C69.7732 0.160917 69.1286 -0.00143812 68.4736 1.86647e-06H48.6178C47.9247 5.07814e-05 47.2443 0.182703 46.6474 0.528929C46.0506 0.875155 45.5591 1.37228 45.2244 1.96852C44.8896 2.56476 44.7237 3.23829 44.7439 3.91894C44.7642 4.59959 44.9698 5.26245 45.3395 5.83846L60.4392 29.351Z" fill="#027BFB"/>
</svg>
