<?xml version="1.0" encoding="UTF-8"?>
<svg width="657px" height="135px" viewBox="0 0 657 135" version="1.1" xmlns="http://www.w3.org/2000/svg" xmlns:xlink="http://www.w3.org/1999/xlink">
    <!-- Generator: Sketch 51.2 (57519) - http://www.bohemiancoding.com/sketch -->
    <title>Full Logo</title>
    <desc>Created with Sketch.</desc>
    <defs></defs>
    <g id="Presentation" stroke="none" stroke-width="1" fill="none" fill-rule="evenodd">
        <g id="Artboard" transform="translate(-45.000000, -51.000000)" fill="#0044CD" fill-rule="nonzero">
            <path d="M299.610637,154.386667 C306.955876,154.386667 312.959721,151.454474 317.622352,145.59 L327.203051,155.546667 C319.602325,164.182265 310.64446,168.5 300.32919,168.5 C290.013919,168.5 281.519118,165.213366 274.84453,158.64 C268.169942,152.066634 264.8327,143.769494 264.8327,133.748333 C264.8327,123.727172 268.233814,115.365589 275.036144,108.663333 C281.838475,101.961078 290.157632,98.61 299.993865,98.61 C310.979789,98.61 320.177169,102.831069 327.586279,111.273333 L318.293001,121.906667 C313.566499,115.977748 307.690396,113.013333 300.664514,113.013333 C295.04381,113.013333 290.237539,114.866093 286.245562,118.571667 C282.253585,122.277241 280.257625,127.271635 280.257625,133.555 C280.257625,139.838365 282.14181,144.881092 285.910238,148.683333 C289.678665,152.485575 294.245418,154.386667 299.610637,154.386667 Z M351.921255,167.726667 L337.550206,167.726667 L337.550206,96 L351.921255,96 L351.921255,167.726667 Z M409.309642,167.726667 L395.800856,167.726667 L395.800856,161.443333 C392.0963,166.147801 387.513579,168.5 382.052553,168.5 C376.591527,168.5 372.008806,166.905016 368.30425,163.715 C364.599694,160.524984 362.747445,156.271693 362.747445,150.955 C362.747445,145.638307 364.663565,141.658902 368.495864,139.016667 C372.328163,136.374431 377.565558,135.053333 384.208211,135.053333 L394.938594,135.053333 L394.938594,134.763333 C394.938594,129.221083 392.032478,126.45 386.220157,126.45 C383.729163,126.45 381.094498,126.94944 378.316081,127.948333 C375.537663,128.947227 373.190415,130.18777 371.274267,131.67 L364.855198,122.293333 C371.625593,117.331086 379.353947,114.85 388.04049,114.85 C394.299912,114.85 399.409567,116.428873 403.369609,119.586667 C407.32965,122.74446 409.309642,127.738855 409.309642,134.57 L409.309642,167.726667 Z M394.842787,147.91 L394.842787,145.396667 L385.836929,145.396667 C380.08848,145.396667 377.2143,147.201093 377.2143,150.81 C377.2143,152.678898 377.900911,154.112773 379.27415,155.111667 C380.64739,156.11056 382.611415,156.61 385.16628,156.61 C387.721146,156.61 389.972587,155.820564 391.920673,154.241667 C393.868759,152.66277 394.842787,150.552236 394.842787,147.91 Z M461.237031,151.583333 C461.237031,156.67447 459.368814,160.766651 455.632322,163.86 C451.895831,166.953349 447.153433,168.5 441.404984,168.5 C437.572685,168.5 433.580768,167.807229 429.42911,166.421667 C425.277453,165.036104 421.541018,162.990014 418.219692,160.283333 L424.542954,151.196667 C429.908173,155.385577 435.624599,157.48 441.692405,157.48 C443.544682,157.48 445.013708,157.109448 446.099527,156.368333 C447.185346,155.627219 447.728246,154.644451 447.728246,153.42 C447.728246,152.19555 446.977766,151.067783 445.476781,150.036667 C443.975797,149.00555 441.804195,148.038893 438.961906,147.136667 C436.119617,146.23444 433.948015,145.461114 432.447031,144.816667 C430.946046,144.172219 429.237507,143.237784 427.321357,142.013333 C423.425186,139.564432 421.47713,135.939469 421.47713,131.138333 C421.47713,126.337198 423.393251,122.422237 427.22555,119.393333 C431.057848,116.364429 436.007827,114.85 442.075633,114.85 C448.143439,114.85 454.211156,116.912202 460.278961,121.036667 L454.91377,130.703333 C450.442754,127.609985 445.987773,126.063333 441.548695,126.063333 C437.109616,126.063333 434.890109,127.287766 434.890109,129.736667 C434.890109,131.090007 435.592687,132.153329 436.997863,132.926667 C438.403038,133.700004 440.734318,134.602217 443.991773,135.633333 C447.249228,136.66445 449.56454,137.453886 450.93778,138.001667 C452.31102,138.549447 453.955692,139.403328 455.87184,140.563333 C459.448651,142.754455 461.237031,146.427752 461.237031,151.583333 Z M511.056667,151.583333 C511.056667,156.67447 509.18845,160.766651 505.451958,163.86 C501.715466,166.953349 496.973069,168.5 491.22462,168.5 C487.392321,168.5 483.400403,167.807229 479.248746,166.421667 C475.097088,165.036104 471.360654,162.990014 468.039328,160.283333 L474.362589,151.196667 C479.727808,155.385577 485.444235,157.48 491.512041,157.48 C493.364318,157.48 494.833343,157.109448 495.919162,156.368333 C497.004981,155.627219 497.547881,154.644451 497.547881,153.42 C497.547881,152.19555 496.797401,151.067783 495.296417,150.036667 C493.795432,149.00555 491.62383,148.038893 488.781541,147.136667 C485.939252,146.23444 483.767651,145.461114 482.266666,144.816667 C480.765681,144.172219 479.057142,143.237784 477.140992,142.013333 C473.244822,139.564432 471.296765,135.939469 471.296765,131.138333 C471.296765,126.337198 473.212886,122.422237 477.045185,119.393333 C480.877484,116.364429 485.827463,114.85 491.895269,114.85 C497.963074,114.85 504.030791,116.912202 510.098597,121.036667 L504.733405,130.703333 C500.262391,127.609985 495.807409,126.063333 491.36833,126.063333 C486.929252,126.063333 484.709744,127.287766 484.709744,129.736667 C484.709744,131.090007 485.412322,132.153329 486.817498,132.926667 C488.222674,133.700004 490.553954,134.602217 493.811408,135.633333 C497.068863,136.66445 499.384175,137.453886 500.757415,138.001667 C502.130655,138.549447 503.775325,139.403328 505.691475,140.563333 C509.268287,142.754455 511.056667,146.427752 511.056667,151.583333 Z M574.768316,133.603333 C574.768316,127.545525 572.852195,122.390021 569.019896,118.136667 C565.187598,113.883312 560.477134,111.756667 554.888365,111.756667 C549.299596,111.756667 544.589133,113.883312 540.756834,118.136667 C536.924535,122.390021 535.008415,127.529414 535.008415,133.555 C535.008415,139.580586 536.924535,144.703868 540.756834,148.925 C544.589133,153.146132 549.299596,155.256667 554.888365,155.256667 C560.477134,155.256667 565.187598,153.146132 569.019896,148.925 C572.852195,144.703868 574.768316,139.596697 574.768316,133.603333 Z M579.846086,158.446667 C573.075692,165.084478 564.740566,168.403333 554.840462,168.403333 C544.940357,168.403333 536.605232,165.068367 529.834837,158.398333 C523.064442,151.7283 519.679296,143.431161 519.679296,133.506667 C519.679296,123.582173 523.064442,115.285033 529.834837,108.615 C536.605232,101.944967 544.940357,98.61 554.840462,98.61 C564.740566,98.61 573.075692,101.944967 579.846086,108.615 C586.616481,115.285033 590.001627,123.582173 590.001627,133.506667 C590.001627,143.431161 586.616481,151.744411 579.846086,158.446667 Z M628.037003,167.726667 L613.186919,167.726667 L595.65424,115.72 L610.504324,115.72 L620.564058,147.136667 L630.623792,115.72 L644.515805,115.72 L654.575539,147.136667 L664.635273,115.72 L679.581164,115.72 L662.048485,167.726667 L647.102594,167.726667 L637.617702,139.403333 L628.037003,167.726667 Z M147.706177,175.063001 C141.334798,181.798825 132.36392,186 122.441065,186 C103.156583,186 87.4676806,170.132323 87.4676806,150.629759 L87.4676806,111 L122.441065,115.257853 C138.515489,115.257853 152.091017,126.28071 156.165731,141.244722 C160.241302,126.28071 173.81651,115.257853 189.890557,115.257853 L224.863118,111 L224.863118,150.629759 C224.863118,170.132323 209.174585,186 189.888911,186 C179.967223,186 170.99731,181.799616 164.626192,175.064902 L156.16977,183.5 L147.706177,175.063001 Z M702,167.726667 L687.628951,167.726667 L687.628951,96 L702,96 L702,167.726667 Z M215.080411,150.629759 C215.080411,136.579525 203.78052,125.148938 189.888911,125.148938 C175.997302,125.148938 164.697411,136.579525 164.697411,150.629759 C164.697411,164.678329 175.997302,176.108915 189.888911,176.108915 C203.78052,176.108915 215.080411,164.678329 215.080411,150.629759 Z M180.401376,150.629641 C180.401376,145.33742 184.657968,141.033652 189.889028,141.033652 C195.120088,141.033652 199.376679,145.33742 199.376679,150.629641 C199.376679,155.920433 195.120088,160.224201 189.889028,160.224201 C184.657968,160.224201 180.401376,155.920433 180.401376,150.629641 Z M122.441065,176.108915 C136.333,176.108915 147.633157,164.678329 147.633157,150.629759 C147.633157,136.579525 136.331355,125.148938 122.441065,125.148938 C108.550775,125.148938 97.2489724,136.579525 97.2489724,150.629759 C97.2489724,164.678329 108.550775,176.108915 122.441065,176.108915 Z M122.441065,140.923146 C127.733282,140.923146 132.039637,145.275682 132.039637,150.631094 C132.039637,155.983616 127.733282,160.337597 122.441065,160.337597 C117.148848,160.337597 112.842492,155.983616 112.842492,150.631094 C112.842492,145.277127 117.148848,140.923146 122.441065,140.923146 Z M76.0611452,87.1677796 L76.0611452,112.009266 C79.1867285,112.497542 81.2704507,113.311337 80.7495201,114.28789 L80.7495201,148.5 L64.079742,142.209345 L64.079742,114.28789 C64.079742,113.311337 66.1634643,112.497542 68.7681172,112.009266 L68.7681172,85.2711068 L45,79.0898139 L154.395419,51 L264.8327,79.4054297 L227.099442,89.2031838 L227.099442,101.419588 C227.099442,101.419588 225.015719,107.153491 191.676163,108.627923 C169.797079,109.447052 159.899398,123.514306 156.773815,126.135519 C148.786213,115.119092 137.499384,109.283226 122.913328,108.627923 C89.5737716,107.317317 87.4900494,101.419588 87.4900494,101.419588 L87.4900494,90.1400557 L76.0611452,87.1677796 Z" id="Full-Logo"></path>
        </g>
    </g>
</svg>