<svg viewBox="0 0 220 135" xmlns="http://www.w3.org/2000/svg" xmlns:xlink="http://www.w3.org/1999/xlink">
    <g transform="translate(-51.000000, -263.000000)" fill="#0044CD" fill-rule="nonzero">
        <path d="M153.706177,387.063001 C147.334798,393.798825 138.36392,398 128.441065,398 C109.156583,398 93.4676806,382.132323 93.4676806,362.629759 L93.4676806,323 L128.441065,327.257853 C144.515489,327.257853 158.091017,338.28071 162.165731,353.244722 C166.241302,338.28071 179.81651,327.257853 195.890557,327.257853 L230.863118,323 L230.863118,362.629759 C230.863118,382.132323 215.174585,398 195.888911,398 C185.967223,398 176.99731,393.799616 170.626192,387.064902 L162.16977,395.5 L153.706177,387.063001 Z M221.080411,362.629759 C221.080411,348.579525 209.78052,337.148938 195.888911,337.148938 C181.997302,337.148938 170.697411,348.579525 170.697411,362.629759 C170.697411,376.678329 181.997302,388.108915 195.888911,388.108915 C209.78052,388.108915 221.080411,376.678329 221.080411,362.629759 Z M186.401376,362.629641 C186.401376,357.33742 190.657968,353.033652 195.889028,353.033652 C201.120088,353.033652 205.376679,357.33742 205.376679,362.629641 C205.376679,367.920433 201.120088,372.224201 195.889028,372.224201 C190.657968,372.224201 186.401376,367.920433 186.401376,362.629641 Z M128.441065,388.108915 C142.333,388.108915 153.633157,376.678329 153.633157,362.629759 C153.633157,348.579525 142.331355,337.148938 128.441065,337.148938 C114.550775,337.148938 103.248972,348.579525 103.248972,362.629759 C103.248972,376.678329 114.550775,388.108915 128.441065,388.108915 Z M128.441065,352.923146 C133.733282,352.923146 138.039637,357.275682 138.039637,362.631094 C138.039637,367.983616 133.733282,372.337597 128.441065,372.337597 C123.148848,372.337597 118.842492,367.983616 118.842492,362.631094 C118.842492,357.277127 123.148848,352.923146 128.441065,352.923146 Z M82.0611452,299.16778 L82.0611452,324.009266 C85.1867285,324.497542 87.2704507,325.311337 86.7495201,326.28789 L86.7495201,360.5 L70.079742,354.209345 L70.079742,326.28789 C70.079742,325.311337 72.1634643,324.497542 74.7681172,324.009266 L74.7681172,297.271107 L51,291.089814 L160.395419,263 L270.8327,291.40543 L233.099442,301.203184 L233.099442,313.419588 C233.099442,313.419588 231.015719,319.153491 197.676163,320.627923 C175.797079,321.447052 165.899398,335.514306 162.773815,338.135519 C154.786213,327.119092 143.499384,321.283226 128.913328,320.627923 C95.5737716,319.317317 93.4900494,313.419588 93.4900494,313.419588 L93.4900494,302.140056 L82.0611452,299.16778 Z"/>
    </g>
</svg>