<svg xmlns="http://www.w3.org/2000/svg" viewBox="0 0 32 32" fill="none">
<path d="M24.3333 7.66667H27.6667C29.5076 7.66667 31 9.15905 31 11V21C31 22.8409 29.5076 24.3333 27.6667 24.3333H24.3333V31L17.6667 24.3333H11C10.0795 24.3333 9.24619 23.9602 8.64298 23.357M8.64298 23.357L14.3333 17.6667H21C22.8409 17.6667 24.3333 16.1743 24.3333 14.3333V4.33333C24.3333 2.49238 22.8409 1 21 1H4.33333C2.49238 1 1 2.49238 1 4.33333V14.3333C1 16.1743 2.49238 17.6667 4.33333 17.6667H7.66667V24.3333L8.64298 23.357Z" stroke="var(--stroke-color, currentcolor)" stroke-width="2" stroke-linecap="round" stroke-linejoin="round"/>
</svg>