<svg xmlns="http://www.w3.org/2000/svg" viewBox="0 0 153 72" fill="none">
    <path fill-rule="evenodd" clip-rule="evenodd" d="M22.4625 47.664C22.4615 46.694 22.294 45.758 21.96 44.856C21.6327 43.9673 21.1297 43.1536 20.481 42.4635C19.815 41.7589 19.0161 41.193 18.1305 40.7985C17.2155 40.3835 16.177 40.176 15.015 40.176C13.852 40.176 12.813 40.384 11.898 40.8C11.0124 41.1945 10.2135 41.7604 9.5475 42.465C8.89897 43.1546 8.39597 43.9678 8.0685 44.856C7.73358 45.7541 7.56385 46.7054 7.5675 47.664C7.5675 48.634 7.7345 49.57 8.0685 50.472C8.4035 51.373 8.8965 52.17 9.5475 52.863C10.2135 53.5676 11.0124 54.1335 11.898 54.528C12.813 54.944 13.852 55.152 15.015 55.152C16.178 55.152 17.2165 54.944 18.1305 54.528C19.0161 54.1335 19.815 53.5676 20.481 52.863C21.1295 52.1734 21.6325 51.3602 21.96 50.472C22.2954 49.574 22.4657 48.6226 22.4625 47.664ZM1.44 35.184H7.4625V38.928H7.5675C8.4825 37.403 9.7145 36.294 11.2635 35.601C12.843 34.9012 14.5535 34.5463 16.281 34.56C18.218 34.56 19.961 34.898 21.51 35.574C23.01 36.216 24.36 37.164 25.4715 38.355C26.5769 39.5567 27.4221 40.9738 27.954 42.5175C28.518 44.1115 28.8 45.8265 28.8 47.6625C28.8 49.5015 28.501 51.218 27.903 52.812C27.3405 54.3472 26.488 55.7598 25.392 56.973C24.3057 58.1598 22.9835 59.1065 21.51 59.7525C19.996 60.4295 18.3415 60.768 16.5465 60.768C15.3485 60.768 14.292 60.6465 13.377 60.4035C12.5327 60.1893 11.7169 59.875 10.947 59.4675C10.3043 59.1282 9.70157 58.7182 9.15 58.245C8.70429 57.8607 8.29734 57.4337 7.935 56.97H7.7775V72H1.44V35.184ZM47.2575 48.8055H45.948C45.075 48.8055 44.0975 48.8395 43.0155 48.9075C41.9785 48.9695 40.958 49.133 39.954 49.398C38.992 49.653 38.18 50.03 37.518 50.529C36.855 51.026 36.5235 51.72 36.5235 52.611C36.5235 53.195 36.654 53.6835 36.915 54.0765C37.177 54.4715 37.518 54.806 37.938 55.08C38.356 55.354 38.8265 55.551 39.3495 55.671C39.8745 55.791 40.3985 55.851 40.9215 55.851C43.0855 55.851 44.6825 55.345 45.7125 54.333C46.7425 53.323 47.2575 51.943 47.2575 50.193V48.8055ZM47.625 56.4675H47.466C46.558 57.8745 45.406 58.895 44.01 59.529C42.614 60.163 41.078 60.48 39.402 60.48C38.2606 60.481 37.1244 60.3251 36.0255 60.0165C34.9731 59.7319 33.9799 59.2615 33.093 58.6275C32.244 58.0154 31.5386 57.2256 31.026 56.313C30.501 55.388 30.239 54.308 30.24 53.073C30.24 51.738 30.485 50.598 30.975 49.653C31.4473 48.7304 32.1172 47.9232 32.937 47.289C33.7999 46.6324 34.7633 46.1198 35.79 45.771C36.8891 45.3901 38.0194 45.106 39.168 44.922C40.3378 44.7357 41.5172 44.6155 42.7005 44.562C43.8875 44.512 45.005 44.487 46.053 44.487H47.622V43.818C47.622 42.274 47.0815 41.1165 46.0005 40.3455C44.9185 39.5745 43.54 39.1885 41.865 39.1875C40.537 39.1875 39.297 39.4195 38.145 39.8835C37.0412 40.3158 36.0286 40.9518 35.16 41.7585L31.863 38.5185C33.2298 37.1316 34.9085 36.0916 36.759 35.4855C38.6248 34.8684 40.5778 34.5559 42.543 34.56C44.323 34.56 45.8245 34.7565 47.0475 35.1495C48.2675 35.5465 49.2795 36.053 50.0835 36.669C50.8865 37.285 51.5055 37.9965 51.9405 38.8035C52.3639 39.5713 52.6817 40.3927 52.8855 41.2455C53.0765 42.0685 53.1895 42.8655 53.2245 43.6365C53.2595 44.4075 53.277 45.0845 53.277 45.6675V59.8635H47.622V56.4675H47.625ZM56.16 35.193H62.3505V39.198H62.4555C63.1415 37.722 64.1215 36.5795 65.3955 35.7705C66.6675 34.9645 68.129 34.561 69.78 34.56C70.159 34.56 70.5285 34.595 70.8885 34.665C71.2495 34.736 71.6195 34.824 71.9985 34.929V41.04C71.4962 40.9035 70.9882 40.7889 70.476 40.6965C69.9907 40.6107 69.4988 40.5671 69.006 40.566C67.561 40.566 66.4 40.838 65.523 41.382C64.645 41.927 63.9745 42.5505 63.5115 43.2525C63.0746 43.8919 62.7593 44.6063 62.5815 45.36C62.4275 46.063 62.3505 46.59 62.3505 46.941V60.48H56.16V35.193ZM94.3995 45.051C94.3625 43.235 93.776 41.804 92.64 40.758C91.5 39.712 89.917 39.1885 87.891 39.1875C85.971 39.1875 84.451 39.7195 83.331 40.7835C82.211 41.8465 81.5265 43.269 81.2775 45.051H94.3995ZM81.2775 49.68C81.4925 51.53 82.24 52.97 83.52 54C84.8 55.03 86.3465 55.544 88.1595 55.542C89.7595 55.542 91.1015 55.225 92.1855 54.591C93.2648 53.9604 94.2299 53.152 95.04 52.2L99.6255 55.542C98.1315 57.326 96.461 58.5945 94.614 59.3475C92.7683 60.1001 90.7933 60.4848 88.8 60.48C86.88 60.48 85.0665 60.171 83.3595 59.553C81.6535 58.937 80.1785 58.063 78.9345 56.931C77.6786 55.7845 76.6709 54.3929 75.9735 52.842C75.2445 51.249 74.88 49.475 74.88 47.52C74.88 45.565 75.245 43.79 75.975 42.195C76.6717 40.6449 77.6784 39.2538 78.933 38.1075C80.178 36.9765 81.6535 36.1025 83.3595 35.4855C85.1052 34.8622 86.9464 34.549 88.8 34.56C90.578 34.56 92.205 34.86 93.681 35.46C95.1192 36.0361 96.4121 36.9233 97.467 38.058C98.514 39.188 99.3315 40.5845 99.9195 42.2475C100.506 43.9105 100.799 45.822 100.8 47.982V49.68H81.2775ZM105.118 35.193H111.114V39.249H111.219C111.815 37.984 112.727 36.8865 113.955 35.9565C115.183 35.0265 116.849 34.561 118.952 34.56C120.636 34.56 122.066 34.841 123.242 35.403C124.415 35.965 125.369 36.7025 126.106 37.6155C126.851 38.5455 127.389 39.6225 127.685 40.776C128 41.97 128.157 43.217 128.157 44.517V60.48H121.845V47.6775C121.845 46.9765 121.81 46.1955 121.74 45.3345C121.675 44.5039 121.489 43.6873 121.188 42.9105C120.899 42.1659 120.418 41.5115 119.793 41.0145C119.162 40.5045 118.303 40.2495 117.216 40.2495C116.164 40.2495 115.279 40.425 114.561 40.776C113.841 41.128 113.244 41.6025 112.771 42.1995C112.294 42.8079 111.946 43.5071 111.747 44.2545C111.531 45.0438 111.424 45.8588 111.429 46.677V60.48H105.12L105.118 35.193ZM131.255 39.996V34.671H136.46V27.414H142.767V34.671H149.708V39.996H142.767V50.958C142.767 52.211 143.004 53.2025 143.478 53.9325C143.952 54.6645 144.889 55.03 146.289 55.029C146.85 55.029 147.464 54.968 148.13 54.846C148.794 54.726 149.32 54.526 149.708 54.246V59.5185C149.04 59.8325 148.226 60.05 147.263 60.171C146.298 60.292 145.447 60.353 144.712 60.354C143.029 60.354 141.654 60.171 140.586 59.805C139.516 59.441 138.675 58.8845 138.063 58.1355C137.449 57.3855 137.028 56.454 136.8 55.341C136.572 54.228 136.458 52.941 136.46 51.48V39.996H131.255ZM1.44 12.96H2.7315V0H1.44V12.96ZM7.2 0H9.2295L17.0745 10.764H17.112V0H18.72V12.96H16.6905L8.8455 2.196H8.8065V12.96H7.2V0ZM31.68 1.4295H27.405V12.96H25.8705V1.4295H21.6V0H31.68V1.4295ZM33.12 0H42.807V1.4295H34.947V5.493H42.285V6.9195H34.9485V11.532H43.1985V12.96H33.1185L33.12 0ZM44.937 5.712H46.4895C46.9905 5.712 47.491 5.7 47.991 5.676C48.509 5.651 48.985 5.571 49.419 5.436C49.854 5.302 50.213 5.092 50.496 4.806C50.778 4.519 50.919 4.107 50.919 3.57C50.919 3.107 50.816 2.7345 50.61 2.4525C50.3984 2.16861 50.116 1.94518 49.791 1.8045C49.4294 1.64709 49.0461 1.54544 48.654 1.503C48.2309 1.45215 47.8051 1.4271 47.379 1.428H44.937V5.712ZM43.2 0H46.9455C47.6495 0 48.3495 0.0365 49.0455 0.1095C49.7435 0.1845 50.368 0.343 50.919 0.585C51.472 0.83 51.921 1.187 52.266 1.656C52.61 2.128 52.782 2.766 52.782 3.57C52.782 4.521 52.4575 5.29 51.8085 5.877C51.1605 6.462 50.264 6.834 49.119 6.993L53.2785 12.96H51.15L47.175 7.14H44.94V12.96H43.1985L43.2 0ZM54.72 0H56.748L64.593 10.764H64.632V0H66.2385V12.96H64.2105L56.3655 2.196H56.3265V12.96H54.7185L54.72 0ZM75.6735 1.977H75.636L72.8835 8.3475H78.2955L75.6735 1.977ZM74.9625 0H76.4415L82.0785 12.96H80.2425L78.8955 9.7755H72.2655L70.8975 12.96H69.1185L74.9625 0ZM90.7185 1.4295H86.445V12.96H84.909V1.4295H80.64V0H90.72L90.7185 1.4295ZM92.1585 12.96H93.45V0H92.1585V12.96ZM105.118 12.891C105.922 12.891 106.658 12.7425 107.327 12.4455C107.977 12.1597 108.563 11.7449 109.048 11.226C109.535 10.7008 109.915 10.0865 110.167 9.417C110.434 8.725 110.566 7.986 110.566 7.2C110.566 6.414 110.434 5.675 110.167 4.983C109.915 4.31349 109.535 3.69921 109.048 3.174C108.563 2.65569 107.977 2.24133 107.327 1.956C106.63 1.65343 105.878 1.50111 105.118 1.509C104.359 1.5009 103.606 1.65322 102.909 1.956C102.258 2.241 101.672 2.655 101.187 3.174C100.701 3.69966 100.321 4.31446 100.068 4.9845C99.802 5.6745 99.669 6.413 99.669 7.2C99.67 7.987 99.803 8.7265 100.068 9.4185C100.335 10.1055 100.708 10.708 101.187 11.226C101.667 11.742 102.241 12.1485 102.909 12.4455C103.577 12.7425 104.314 12.891 105.118 12.891ZM105.118 14.4C104.129 14.4125 103.146 14.229 102.228 13.86C101.374 13.5193 100.599 13.008 99.9505 12.3572C99.3015 11.7064 98.7923 10.93 98.454 10.0755C98.0922 9.16036 97.9104 8.18402 97.9185 7.2C97.9185 6.169 98.097 5.211 98.454 4.326C98.7907 3.47059 99.2994 2.69336 99.9486 2.04241C100.598 1.39146 101.374 0.880622 102.228 0.5415C103.146 0.172534 104.129 -0.0109924 105.118 0.0015C106.169 0.0015 107.131 0.1815 108.007 0.5415C108.861 0.881995 109.637 1.3933 110.286 2.04407C110.935 2.69484 111.445 3.47135 111.783 4.326C112.139 5.21 112.317 6.168 112.318 7.2C112.326 8.18361 112.144 9.15943 111.782 10.074C111.443 10.9296 110.934 11.707 110.285 12.3585C109.633 13.005 108.859 13.5149 108.007 13.8585C107.09 14.2278 106.108 14.4118 105.118 14.4ZM115.199 0H117.227L125.071 10.764H125.11V0H126.717V12.96H124.689L116.844 2.196H116.805V12.96H115.199V0ZM134.714 1.977H134.674L131.922 8.3475H137.334L134.714 1.977ZM133.999 0H135.479L141.116 12.96H139.279L137.932 9.7755H131.303L129.935 12.96H128.155L133.999 0ZM142.556 0H144.335V11.532H151.195V12.96H142.556V0ZM8.331 18.6075C8.03358 18.174 7.61218 17.8405 7.122 17.6505C6.62114 17.4503 6.08639 17.3484 5.547 17.3505C5.144 17.3505 4.7485 17.3955 4.3605 17.4855C3.9705 17.5755 3.6215 17.711 3.3135 17.892C3.0105 18.066 2.7555 18.312 2.5695 18.6075C2.3815 18.9045 2.2875 19.253 2.2875 19.653C2.2875 19.963 2.3415 20.237 2.4495 20.475C2.5575 20.715 2.734 20.931 2.979 21.123C3.224 21.318 3.555 21.499 3.972 21.666C4.39 21.834 4.9005 22.002 5.5035 22.17C6.0935 22.338 6.6655 22.5185 7.2195 22.7115C7.7735 22.9045 8.2635 23.1495 8.6895 23.4465C9.1125 23.7425 9.45 24.1135 9.702 24.5595C9.954 25.0045 10.08 25.5625 10.08 26.2335C10.08 26.9175 9.9285 27.511 9.6255 28.014C9.32535 28.5142 8.91682 28.9406 8.43 29.262C7.90455 29.6049 7.32335 29.8536 6.7125 29.997C6.05599 30.16 5.38193 30.2416 4.7055 30.24C4.2595 30.24 3.813 30.2045 3.366 30.1335C2.92909 30.064 2.4997 29.9535 2.0835 29.8035C1.67665 29.6569 1.28887 29.462 0.9285 29.223C0.570964 28.9853 0.2569 28.688 0 28.344L1.5555 27.201C1.8855 27.704 2.3455 28.085 2.9355 28.344C3.8985 28.764 4.9755 28.8465 5.9895 28.575C6.366 28.479 6.7275 28.326 7.0575 28.1205C7.3745 27.9205 7.6335 27.6725 7.8345 27.3765C8.03744 27.0727 8.14312 26.7143 8.1375 26.349C8.1375 25.924 8.058 25.579 7.899 25.314C7.7162 25.0264 7.46328 24.79 7.164 24.627C6.76853 24.4064 6.34936 24.2313 5.9145 24.105L4.143 23.5635C3.62868 23.4193 3.12455 23.2409 2.634 23.0295C2.19956 22.8467 1.79544 22.5988 1.4355 22.2945C1.09852 22.0066 0.826087 21.6509 0.636 21.2505C0.442 20.8435 0.345 20.356 0.345 19.788C0.345 19.131 0.489 18.557 0.777 18.066C1.066 17.576 1.4545 17.166 1.9425 16.836C2.4525 16.4985 3.0135 16.2465 3.6045 16.092C4.23868 15.9233 4.89227 15.8386 5.5485 15.84C6.4115 15.84 7.1985 15.96 7.9095 16.2C8.64029 16.4508 9.29707 16.8797 9.8205 17.448L8.331 18.6075ZM19.929 19.014C19.562 18.4798 19.0627 18.0498 18.48 17.766C17.8867 17.4849 17.237 17.3432 16.5805 17.3518C15.9241 17.3604 15.2782 17.519 14.6925 17.8155C14.0921 18.1236 13.5588 18.5478 13.1235 19.0635C12.6735 19.6035 12.327 20.2185 12.0975 20.883C11.853 21.5758 11.7288 22.3053 11.73 23.04C11.73 23.84 11.8525 24.585 12.0975 25.275C12.3425 25.965 12.682 26.565 13.116 27.075C13.55 27.585 14.07 27.9885 14.676 28.2855C15.3017 28.5869 15.9886 28.7394 16.683 28.731C17.4229 28.7436 18.1545 28.5736 18.813 28.236C19.4547 27.888 20.0115 27.4024 20.4435 26.814L21.5985 27.84C21.0135 28.665 20.308 29.2715 19.482 29.6595C18.657 30.0465 17.724 30.24 16.683 30.24C15.7864 30.2469 14.8986 30.0623 14.079 29.6985C13.2851 29.3451 12.5708 28.8349 11.979 28.1985C11.3703 27.538 10.8965 26.7651 10.584 25.923C10.239 25.0015 10.0681 24.0239 10.08 23.04C10.08 22.033 10.242 21.0915 10.566 20.2155C10.89 19.3365 11.3455 18.575 11.9325 17.931C12.5205 17.286 13.2315 16.7655 14.0235 16.401C14.8586 16.0227 15.7662 15.8313 16.683 15.84C17.555 15.8385 18.4186 16.0098 19.224 16.344C20.0475 16.689 20.7555 17.259 21.2685 17.988L19.929 19.014ZM24.48 15.84H26.031V21.333H33.009V15.84H34.56V28.8H33.009V22.7595H26.031V28.8H24.48V15.84ZM43.2 28.731C44.004 28.731 44.74 28.582 45.408 28.284C46.0585 27.9987 46.6443 27.5843 47.13 27.066C47.61 26.549 47.983 25.9455 48.249 25.2555C48.515 24.5655 48.648 23.827 48.648 23.04C48.648 22.253 48.515 21.514 48.249 20.823C47.9961 20.1535 47.6161 19.5392 47.13 19.014C46.6443 18.4957 46.0585 18.0813 45.408 17.796C44.7111 17.4932 43.9582 17.3409 43.1985 17.349C42.4393 17.3411 41.6869 17.4934 40.9905 17.796C40.3395 18.081 39.753 18.495 39.2685 19.014C38.7822 19.5397 38.4022 20.1545 38.1495 20.8245C37.8835 21.5145 37.7505 22.253 37.7505 23.04C37.7515 23.827 37.8845 24.566 38.1495 25.257C38.4155 25.947 38.7885 26.55 39.2685 27.066C39.7485 27.582 40.3225 27.988 40.9905 28.284C41.6585 28.582 42.396 28.731 43.2 28.731ZM43.1985 30.24C42.2087 30.252 41.2263 30.068 40.308 29.6985C39.4544 29.3578 38.6794 28.8465 38.0305 28.1957C37.3815 27.5449 36.8723 26.7685 36.534 25.914C36.1729 24.9992 35.9916 24.0234 36 23.04C36 22.008 36.1785 21.05 36.5355 20.166C36.8738 19.3115 37.383 18.5351 38.032 17.8843C38.6809 17.2335 39.4559 16.7222 40.3095 16.3815C41.2275 16.0127 42.2093 15.8292 43.1985 15.8415C44.2495 15.8415 45.213 16.0215 46.089 16.3815C46.9428 16.722 47.7181 17.2333 48.3674 17.8841C49.0166 18.5348 49.526 19.3113 49.8645 20.166C50.2205 21.05 50.3985 22.008 50.3985 23.04C50.4064 24.0235 50.2246 24.9993 49.863 25.914C49.5249 26.7696 49.0155 27.547 48.366 28.1985C47.7143 28.845 46.9402 29.3549 46.089 29.6985C45.1707 30.068 44.1883 30.252 43.1985 30.24ZM59.0385 28.731C59.8415 28.731 60.5775 28.582 61.2465 28.284C61.897 27.9987 62.4828 27.5843 62.9685 27.066C63.4485 26.549 63.8215 25.9455 64.0875 25.2555C64.3535 24.5655 64.4865 23.827 64.4865 23.04C64.4865 22.253 64.3535 21.514 64.0875 20.823C63.8346 20.1535 63.4546 19.5392 62.9685 19.014C62.4828 18.4957 61.897 18.0813 61.2465 17.796C60.5497 17.4932 59.7967 17.3409 59.037 17.349C58.2778 17.3411 57.5254 17.4934 56.829 17.796C56.178 18.081 55.5915 18.495 55.107 19.014C54.6207 19.5397 54.2407 20.1545 53.988 20.8245C53.722 21.5145 53.589 22.253 53.589 23.04C53.589 23.827 53.722 24.566 53.988 25.257C54.254 25.948 54.6265 26.551 55.1055 27.066C55.5855 27.582 56.16 27.988 56.829 28.284C57.497 28.582 58.2345 28.731 59.0385 28.731ZM59.037 30.24C58.0472 30.252 57.0648 30.068 56.1465 29.6985C55.2929 29.3578 54.5179 28.8465 53.869 28.1957C53.22 27.5449 52.7108 26.7685 52.3725 25.914C52.0104 24.9994 51.8281 24.0236 51.8355 23.04C51.8355 22.008 52.0145 21.05 52.3725 20.166C52.7108 19.3115 53.22 18.5351 53.869 17.8843C54.5179 17.2335 55.2929 16.7222 56.1465 16.3815C57.0645 16.0127 58.0463 15.8292 59.0355 15.8415C60.0855 15.8415 61.049 16.0215 61.926 16.3815C62.7798 16.722 63.5551 17.2333 64.2044 17.8841C64.8536 18.5348 65.363 19.3113 65.7015 20.166C66.0575 21.05 66.2355 22.008 66.2355 23.04C66.2434 24.0235 66.0616 24.9993 65.7 25.914C65.3619 26.7696 64.8525 27.547 64.203 28.1985C63.5513 28.845 62.7772 29.3549 61.926 29.6985C61.0077 30.068 60.0253 30.252 59.0355 30.24M69.1155 15.84H70.893V27.372H77.754V28.8H69.114L69.1155 15.84Z" fill="#231F20"/>
</svg>