<svg xmlns="http://www.w3.org/2000/svg" viewBox="0 0 145.69 14.49"><defs><style>.a{fill:#fff;}</style></defs><title>logo</title><path class="a" d="M0.25,7.55A7.12,7.12,0,0,1,7.71.31a6.41,6.41,0,0,1,5.86,3.42L11,5a3.8,3.8,0,0,0-3.3-2,4.36,4.36,0,0,0-4.39,4.6,4.36,4.36,0,0,0,4.39,4.6,3.75,3.75,0,0,0,3.3-2l2.56,1.24a6.45,6.45,0,0,1-5.86,3.44A7.12,7.12,0,0,1,.25,7.55Z" transform="translate(-0.25 -0.31)"/><path class="a" d="M15.1,7.55A7,7,0,0,1,22.41.31a7,7,0,0,1,7.33,7.24,7,7,0,0,1-7.33,7.24A7,7,0,0,1,15.1,7.55Zm11.57,0C26.67,4.92,25,3,22.41,3s-4.24,2-4.24,4.6,1.66,4.6,4.24,4.6S26.67,10.15,26.67,7.55Z" transform="translate(-0.25 -0.31)"/><path class="a" d="M32.26,14.54v-14h5.52c4.39,0,7.43,2.79,7.43,7s-3,7-7.43,7H32.26Zm9.91-7a4.1,4.1,0,0,0-4.39-4.39H35.24v8.76h2.54A4.19,4.19,0,0,0,42.17,7.55Z" transform="translate(-0.25 -0.31)"/><path class="a" d="M47.75,14.54v-14h9.91V3.16H50.73v3h6.78V8.75H50.73v3.17h6.93v2.63H47.75Z" transform="translate(-0.25 -0.31)"/><path class="a" d="M73.39,14.54v-14h7.37c2.67,0,4,1.7,4,3.57a3.11,3.11,0,0,1-2.41,3.21,3.39,3.39,0,0,1,2.69,3.44c0,2.1-1.41,3.78-4.07,3.78h-7.6Zm8.36-9.91A1.51,1.51,0,0,0,80.1,3.1H76.37v3H80.1A1.49,1.49,0,0,0,81.74,4.63ZM82,10.34a1.64,1.64,0,0,0-1.8-1.64H76.37V12h3.84A1.58,1.58,0,0,0,82,10.34Z" transform="translate(-0.25 -0.31)"/><path class="a" d="M87.73,9V0.54h3V8.85a3.29,3.29,0,1,0,6.57,0V0.54h3v8.4c0,3.49-2.06,5.86-6.32,5.86S87.73,12.4,87.73,9Z" transform="translate(-0.25 -0.31)"/><path class="a" d="M103.54,14.54v-14h5.52c4.39,0,7.43,2.79,7.43,7s-3,7-7.43,7h-5.52Zm9.91-7a4.1,4.1,0,0,0-4.39-4.39h-2.54v8.76h2.54A4.19,4.19,0,0,0,113.45,7.55Z" transform="translate(-0.25 -0.31)"/><path class="a" d="M119,14.54v-14h5.52c4.39,0,7.43,2.79,7.43,7s-3,7-7.43,7H119Zm9.91-7a4.1,4.1,0,0,0-4.39-4.39H122v8.76h2.54A4.19,4.19,0,0,0,128.95,7.55Z" transform="translate(-0.25 -0.31)"/><path class="a" d="M137.6,14.54V8.81l-5.4-8.27h3.4l3.48,5.63,3.44-5.63h3.4l-5.35,8.27v5.73h-3Z" transform="translate(-0.25 -0.31)"/><path class="a" d="M65.7,13.63a6.54,6.54,0,0,0-.84-1.69,24.81,24.81,0,0,0-2.1-2.45q-1.14-1.22-1.41-1.55a4.32,4.32,0,0,1-.63-1,2.25,2.25,0,0,1-.19-0.9,1.76,1.76,0,0,1,.7-1.42A2.65,2.65,0,0,1,63,4.07a2.86,2.86,0,0,1,1.81.59A3.09,3.09,0,0,1,65.7,6a2.87,2.87,0,0,1,.88-1.31,2.88,2.88,0,0,1,1.82-.61,2.68,2.68,0,0,1,1.73.57A1.69,1.69,0,0,1,70.84,6a2.92,2.92,0,0,1-.42,1.43,10.21,10.21,0,0,1-1.61,1.95A22,22,0,0,0,66.55,12,6.55,6.55,0,0,0,65.7,13.63Z" transform="translate(-0.25 -0.31)"/></svg>