<svg width="0" height="0" position="absolute"><symbol id="crncyi-arrow-alt-left" xmlns="http://www.w3.org/2000/svg" viewBox="0 0 40 40"><path d="M4 20.5L14.9413 10L17.028 11.7877L9.30664 19.1977H36V21.8008H9.30504L17.028 29.2123L14.9413 31L4 20.5Z"></path></symbol><symbol id="crncyi-arrow-alt-right" xmlns="http://www.w3.org/2000/svg" viewBox="0 0 40 40"><path d="M36 20.5L25.0587 10L22.972 11.7877L30.6934 19.1977H4V21.8008H30.695L22.972 29.2123L25.0587 31L36 20.5Z"></path></symbol><symbol id="crncyi-burger-opened" xmlns="http://www.w3.org/2000/svg" viewBox="0 0 24 16"><path fill-rule="evenodd" clip-rule="evenodd" d="M1.18477 9.52279C1.01476 9.61249 0.95044 9.82158 1.04111 9.98978L2.02618 11.8172C2.11686 11.9854 2.32819 12.049 2.49819 11.9593L11.8358 7.03212C11.9384 6.97797 12.0616 6.97797 12.1642 7.03212L21.5018 11.9593C21.6718 12.049 21.8832 11.9854 21.9738 11.8172L22.9589 9.98978C23.0496 9.82158 22.9852 9.61249 22.8153 9.52279L12.6567 4.16244C12.2463 3.94585 11.7537 3.94585 11.3433 4.16244L1.18477 9.52279Z"></path></symbol><symbol id="crncyi-benefits-coins" xmlns="http://www.w3.org/2000/svg" viewBox="0 0 36 36" fill="none"><path d="M13.6 23.0833C13.6 23.0833 13.6 20.9444 10.6 20.9444M10.6 20.9444C8.2 20.9444 7.6 22.0139 7.6 23.0833C7.6 26.2917 13.6 24.1528 13.6 27.3611C13.6 28.4306 13 29.5 10.6 29.5M10.6 20.9444V19.1111M10.6 29.5C7.6 29.5 7.6 27.3611 7.6 27.3611M10.6 29.5V31.3333M34 5.66667C34 7.69171 30.2392 9.33333 25.6 9.33333C20.9608 9.33333 17.2 7.69171 17.2 5.66667M34 5.66667C34 3.64162 30.2392 2 25.6 2C20.9608 2 17.2 3.64162 17.2 5.66667M34 5.66667V24C34 26.0243 30.2395 27.6667 25.6 27.6667C24.466 27.6667 23.3875 27.5674 22.4005 27.3901M17.2 5.66667V9.33333M17.2 9.33333C17.2 11.3576 20.9605 13 25.6 13C30.2395 13 34 11.3576 34 9.33333M17.2 9.33333V13C17.2 15.0243 20.9605 16.6667 25.6 16.6667C30.2395 16.6667 34 15.0243 34 13M34 16.6667C34 18.691 30.2395 20.3333 25.6 20.3333C24.049 20.3333 22.6015 20.1469 21.355 19.8276M34 20.3333C34 22.3576 30.2395 24 25.6 24C24.505 24 23.4625 23.9053 22.5025 23.7387M20.2 25.2222C20.2 30.6223 15.9019 35 10.6 35C5.29807 35 1 30.6223 1 25.2222C1 19.8221 5.29807 15.4444 10.6 15.4444C15.9019 15.4444 20.2 19.8221 20.2 25.2222Z" stroke-width="1.375" stroke-linecap="round" stroke-linejoin="round"></path></symbol><symbol id="crncyi-burger" xmlns="http://www.w3.org/2000/svg" viewBox="0 0 24 16" fill="none"><path d="M3 5H22" stroke-width="3" stroke-linecap="round"></path><path d="M3 11H22" stroke-width="3" stroke-linecap="round"></path></symbol><symbol id="crncyi-close" viewBox="0 0 24 24" xmlns="http://www.w3.org/2000/svg"><path fill-rule="evenodd" clip-rule="evenodd" d="M16.2929 6.29289C16.6834 5.90237 17.3166 5.90237 17.7071 6.29289C18.0976 6.68342 18.0976 7.31658 17.7071 7.70711L13.4142 12L17.7071 16.2929C18.0976 16.6834 18.0976 17.3166 17.7071 17.7071C17.3166 18.0976 16.6834 18.0976 16.2929 17.7071L12 13.4142L7.70711 17.7071C7.31658 18.0976 6.68342 18.0976 6.29289 17.7071C5.90237 17.3166 5.90237 16.6834 6.29289 16.2929L10.5858 12L6.29289 7.70711C5.90237 7.31658 5.90237 6.68342 6.29289 6.29289C6.68342 5.90237 7.31658 5.90237 7.70711 6.29289L12 10.5858L16.2929 6.29289Z"></path></symbol><symbol id="crncyi-benefits-rocket" xmlns="http://www.w3.org/2000/svg" viewBox="0 0 40 40"><path d="M13.9461 32.3413L7.65886 26.0549C6.99925 25.3954 8.02358 24.3712 8.68319 25.0307L14.9705 31.3171C15.6301 31.9766 14.6057 33.0008 13.9461 32.3413Z"></path><path d="M23.7206 17.3095L19.8297 21.2C19.1701 21.8595 18.1457 20.8353 18.8054 20.1758L22.6963 16.2854C23.3559 15.6258 24.3802 16.65 23.7206 17.3095Z"></path><path d="M9.33986 31.6879L5.76553 35.2617C5.10592 35.9212 4.0816 34.8971 4.74122 34.2375L8.31554 30.6637C8.97515 30.0042 9.99947 31.0284 9.33986 31.6879Z"></path><path d="M5.74852 28.3696C4.84524 29.0058 3.94198 29.6452 3.0387 30.2814C2.27821 30.8184 1.56581 29.5567 2.3232 29.0229C3.22648 28.3867 4.12978 27.7473 5.03306 27.1111C5.79355 26.5741 6.50591 27.8358 5.74852 28.3696Z"></path><path d="M12.8939 34.9677C12.2576 35.8709 11.6182 36.7741 10.9819 37.6772C10.4495 38.433 9.18458 37.7238 9.72314 36.9618C10.3595 36.0587 10.9989 35.1555 11.6353 34.2524C12.1676 33.4966 13.4325 34.2058 12.8939 34.9677Z"></path><path d="M25.6161 9.97252C24.4583 11.2233 24.3807 13.1537 25.6161 14.389C26.8515 15.6242 28.8273 15.5948 30.0332 14.389C31.2391 13.1833 31.2391 11.1783 30.0331 9.97252C28.8272 8.76676 26.867 8.81487 25.6161 9.97252C24.9347 10.6041 23.9073 9.58304 24.5918 8.94835C26.4216 7.25531 29.2416 7.14511 31.0575 8.94833C32.8221 10.7003 32.8113 13.6597 31.0575 15.4132C29.3037 17.1668 26.3502 17.1714 24.5917 15.4132C22.8333 13.655 22.9032 10.7733 24.5918 8.94835C25.2265 8.26399 26.2493 9.28972 25.6161 9.97252Z"></path><path d="M9.53666 23.2973C10.6805 20.3845 12.1736 17.6222 13.8249 14.9686C15.1938 12.7682 16.6558 10.5553 18.3894 8.62016C19.7645 7.08386 21.5587 5.92618 23.3575 4.94698C25.566 3.74432 27.9686 2.73256 30.4456 2.2577C32.3189 1.89923 34.5553 1.7518 36.1865 2.92963C37.7386 4.05005 38.1017 6.04566 37.9776 7.84887C37.8115 10.2837 36.9703 12.6518 35.9584 14.8523C34.9946 16.9457 33.8057 19.0251 32.2583 20.7461C30.5542 22.6424 28.2526 24.1058 26.1309 25.4822C23.1479 27.4158 20.0175 29.1647 16.7039 30.4667C16.4742 30.5567 16.1731 30.4418 16.0086 30.2773L9.72288 23.9925C9.06327 23.3329 10.0876 22.3087 10.7472 22.9683L17.0329 29.2531C16.8017 29.1895 16.5689 29.1274 16.3376 29.0638C21.1784 27.1628 26.0176 24.2827 29.9877 20.9121C33.0561 18.3066 35.0892 14.1322 36.0949 10.2961C36.5295 8.63877 36.9874 6.3871 36.0111 4.82442C35.0458 3.2757 32.8792 3.32845 31.2914 3.57209C29.0596 3.91659 26.8992 4.76079 24.894 5.77258C23.1138 6.67108 21.301 7.72942 19.8778 9.14623C18.1675 10.8501 16.811 12.9668 15.5182 14.9919C13.7613 17.7417 12.1316 20.6219 10.9366 23.6635C10.5982 24.5232 9.19522 24.1632 9.53511 23.2957L9.53666 23.2973Z"></path><path d="M14.3047 15.6275C12.5555 14.338 10.3718 14.4419 8.78411 15.9363C8.40231 16.2964 8.0407 16.6796 7.66977 17.0505C7.33298 17.3873 6.51349 17.9335 6.34122 18.3789C6.22327 18.6862 6.37385 18.6163 6.74633 18.7188C7.3687 18.8879 7.99105 19.0539 8.61341 19.2231C9.61757 19.4946 10.6233 19.7647 11.6275 20.0362C12.5292 20.2799 12.1614 21.6812 11.2596 21.4376C9.86435 21.0605 8.47062 20.6849 7.07534 20.3078C6.5818 20.1744 6.01068 20.0937 5.55439 19.8485C4.62938 19.3488 4.54711 18.233 5.19586 17.4757C6.09293 16.4267 7.17778 15.3358 8.25644 14.4683C10.2182 12.8948 13.0103 12.887 15.0202 14.369C15.762 14.9152 15.0543 16.1815 14.3047 15.6275Z"></path><path d="M19.9679 28.3748C20.2395 29.3789 20.5095 30.3845 20.7811 31.3885C20.9441 31.989 21.1039 32.5896 21.2669 33.1901C21.3709 33.5765 21.3026 33.7845 21.6223 33.6604C22.0414 33.499 22.5582 32.7246 22.8748 32.408C23.2706 32.0123 23.6819 31.6259 24.0652 31.2178C25.5598 29.6303 25.6623 27.4453 24.3741 25.698C23.8216 24.95 25.0849 24.2393 25.6328 24.9826C27.1134 26.9906 27.1087 29.7824 25.5334 31.7454C24.6674 32.8255 23.5748 33.9086 22.5256 34.8056C21.821 35.4077 20.7578 35.403 20.2131 34.5728C19.9151 34.1166 19.8328 33.4384 19.6947 32.9279C19.3176 31.5328 18.942 30.1392 18.5648 28.7442C18.3227 27.8441 19.7226 27.4748 19.9663 28.3764L19.9679 28.3748Z"></path></symbol><symbol id="crncyi-mail" xmlns="http://www.w3.org/2000/svg" viewBox="0 0 21 20"><path d="M20.5 14.7606V6.18917C20.5 6.18917 11.4 12.2368 10.515 12.5506C9.645 12.2511 0.5 6.18917 0.5 6.18917V14.7606C0.5 15.9511 0.765 16.1892 2 16.1892H19C20.2645 16.1892 20.5 15.9801 20.5 14.7606ZM20.4855 4.5087C20.4855 3.64155 20.22 3.33203 19 3.33203H2C0.745 3.33203 0.5 3.70346 0.5 4.57013L0.515 4.70346C0.515 4.70346 9.5495 10.6273 10.515 10.9511C11.535 10.5749 20.5 4.57013 20.5 4.57013L20.4855 4.5087Z"></path></symbol><symbol id="crncyi-linkedin" viewBox="0 0 20 20" xmlns="http://www.w3.org/2000/svg"><path d="M3.76245 1.66675C2.49541 1.66675 1.66699 2.56702 1.66699 3.75031C1.66699 4.90746 2.47073 5.83341 3.71384 5.83341H3.73788C5.02971 5.83341 5.83366 4.90746 5.83366 3.75031C5.80951 2.56702 5.02971 1.66675 3.76245 1.66675Z"></path><path d="M1.66699 6.66675H5.00033V18.3334H1.66699V6.66675Z"></path><path d="M14.2479 6.66675C12.3333 6.66675 11.0495 8.58742 11.0495 8.58742V6.93429H7.50033V18.3334H11.0493V11.9677C11.0493 11.6269 11.0724 11.2867 11.1662 11.043C11.4227 10.3625 12.0066 9.65747 12.9871 9.65747C14.2713 9.65747 14.7849 10.7028 14.7849 12.2352V18.3334H18.3337V11.7974C18.3337 8.29604 16.5827 6.66675 14.2479 6.66675Z"></path></symbol><symbol id="crncyi-fxch" xmlns="http://www.w3.org/2000/svg" viewBox="0 0 40 40" fill="none"><path d="M28.7632 24.7251V15.2197H31.1908V18.846H35.3947V15.2197H38V24.7251H35.3947V20.9339H31.1908V24.7251H28.7632Z" fill="#252727"></path><path d="M17.4539 22.3626H14.7302L16.3289 24.6703H19.2302L17.4539 22.3626Z" fill="#46A0FF"></path><path d="M2 24.6154V15.1648H9.10522V17.1429H4.36841V19.011H9.10522V20.989H4.36841V24.6154H2Z" fill="#252727"></path><path d="M12.6578 19.835L9.10522 15.2197H12.0065L14.0789 17.9668L16.092 15.2197H18.8157L11.7697 24.6152H9.10522L12.6578 19.835Z" fill="#252727"></path><path d="M18.8157 19.5055C18.8157 18.5044 19.1664 17.6405 19.8149 16.8406C20.4634 16.0407 21.3746 15.4581 22.4111 15.1807C23.4476 14.9034 24.5531 14.9462 25.5611 15.3027C26.569 15.6594 27.4247 16.3103 27.9991 17.1576L26.2459 18.1812C25.9107 17.6868 25.4113 17.307 24.8232 17.0988C24.235 16.8907 23.5899 16.8658 22.9851 17.0276C22.3803 17.1895 21.8486 17.5295 21.4702 17.9962C21.0917 18.463 20.8871 18.9213 20.8871 19.5055H18.8157Z" fill="#46A0FF"></path><path d="M18.8157 20.6044C18.8157 21.6055 19.1664 22.3595 19.8149 23.1594C20.4634 23.9593 21.3746 24.5419 22.4111 24.8193C23.4476 25.0966 24.5531 25.0538 25.5611 24.6973C26.569 24.3406 27.4247 23.6897 27.9991 22.8424L26.2459 21.8187C25.9107 22.3132 25.4113 22.693 24.8232 22.9011C24.235 23.1093 23.5899 23.1342 22.9851 22.9724C22.3803 22.8105 21.8486 22.4705 21.4702 22.0038C21.0917 21.537 20.8871 21.1885 20.8871 20.6044H18.8157Z" fill="#252727"></path></symbol><symbol id="crncyi-plus" xmlns="http://www.w3.org/2000/svg" viewBox="0 0 32 32"><path d="M16 32C14.7376 32 13.7143 30.9767 13.7143 29.7143L13.7143 2.28572C13.7143 1.02335 14.7376 1.55092e-07 16 9.99118e-08V9.99118e-08C17.2624 4.4732e-08 18.2857 1.02335 18.2857 2.28572V29.7143C18.2857 30.9767 17.2624 32 16 32V32Z"></path><path d="M32 16C32 17.2624 30.9767 18.2857 29.7143 18.2857L2.28572 18.2857C1.02335 18.2857 1.55092e-07 17.2624 9.99118e-08 16V16C4.4732e-08 14.7376 1.02335 13.7143 2.28572 13.7143L29.7143 13.7143C30.9767 13.7143 32 14.7376 32 16V16Z"></path></symbol><symbol id="crncyi-twitter" xmlns="http://www.w3.org/2000/svg" viewBox="0 0 20 20"><path d="M11.5859 8.72394L17.7905 1.66675H16.3202L10.9328 7.79441L6.62988 1.66675H1.66699L8.17383 10.9329L1.66699 18.3334H3.13735L8.82659 11.8624L13.3708 18.3334H18.3337L11.5859 8.72394ZM3.66714 2.74981H5.92553L16.3209 17.2996H14.0625L3.66714 2.74981Z"></path></symbol><symbol id="crncyi-warn" xmlns="http://www.w3.org/2000/svg" viewBox="0 0 36 32" fill="none"><path d="M18.0001 10.9999V19.3333M18.5002 23C18.5002 23.2761 18.2763 23.5 18.0002 23.5C17.724 23.5 17.5002 23.2761 17.5002 23C17.5002 22.7239 17.724 22.5 18.0002 22.5C18.2763 22.5 18.5002 22.7239 18.5002 23ZM5.2133 31H30.787C33.7411 31 35.6083 27.9055 34.1737 25.3874L21.3869 2.9432C19.9108 0.352264 16.0896 0.352269 14.6135 2.9432L1.82661 25.3874C0.392003 27.9055 2.25926 31 5.2133 31Z" stroke-width="2" stroke-linecap="round"></path></symbol><symbol id="crncyi-sun" xmlns="http://www.w3.org/2000/svg" viewBox="0 0 207.628 207.628"><circle cx="103.814" cy="103.814" r="45.868"></circle><path d="M103.814,157.183c-29.427,0-53.368-23.941-53.368-53.368s23.941-53.368,53.368-53.368s53.368,23.941,53.368,53.368  S133.241,157.183,103.814,157.183z M103.814,65.446c-21.156,0-38.368,17.212-38.368,38.368s17.212,38.368,38.368,38.368  s38.368-17.212,38.368-38.368S124.97,65.446,103.814,65.446z"></path><path d="M103.814,39.385c-4.142,0-7.5-3.358-7.5-7.5V7.5c0-4.142,3.358-7.5,7.5-7.5s7.5,3.358,7.5,7.5v24.385  C111.314,36.027,107.956,39.385,103.814,39.385z"></path><path d="M103.814,207.628c-4.142,0-7.5-3.358-7.5-7.5v-24.385c0-4.142,3.358-7.5,7.5-7.5s7.5,3.358,7.5,7.5v24.385  C111.314,204.271,107.956,207.628,103.814,207.628z"></path><path d="M200.128,111.314h-24.385c-4.142,0-7.5-3.358-7.5-7.5s3.358-7.5,7.5-7.5h24.385c4.142,0,7.5,3.358,7.5,7.5  S204.271,111.314,200.128,111.314z"></path><path d="M31.885,111.314H7.5c-4.142,0-7.5-3.358-7.5-7.5s3.358-7.5,7.5-7.5h24.385c4.142,0,7.5,3.358,7.5,7.5  S36.027,111.314,31.885,111.314z"></path><path d="M154.676,60.452c-1.919,0-3.839-0.732-5.303-2.197c-2.929-2.929-2.929-7.678,0-10.606l17.243-17.242  c2.929-2.929,7.678-2.93,10.606,0c2.929,2.929,2.929,7.678,0,10.606l-17.243,17.242C158.515,59.72,156.595,60.452,154.676,60.452z"></path><path d="M35.709,179.419c-1.919,0-3.839-0.732-5.303-2.197c-2.929-2.929-2.929-7.678,0-10.606l17.243-17.243  c2.929-2.929,7.678-2.929,10.606,0c2.929,2.929,2.929,7.678,0,10.606l-17.243,17.243C39.548,178.687,37.629,179.419,35.709,179.419z"></path><path d="M171.918,179.419c-1.919,0-3.839-0.732-5.303-2.197l-17.243-17.243c-2.929-2.929-2.929-7.678,0-10.606  c2.929-2.929,7.678-2.929,10.606,0l17.243,17.243c2.929,2.929,2.929,7.678,0,10.606  C175.757,178.687,173.838,179.419,171.918,179.419z"></path><path d="M52.952,60.452c-1.919,0-3.839-0.732-5.303-2.197L30.406,41.013c-2.929-2.929-2.929-7.677,0-10.606  c2.929-2.929,7.678-2.93,10.606,0l17.243,17.242c2.929,2.929,2.929,7.677,0,10.606C56.791,59.72,54.872,60.452,52.952,60.452z"></path></symbol><symbol id="crncyi-moon" xmlns="http://www.w3.org/2000/svg" viewBox="0 0 24 24"><path d="M12 22C17.5228 22 22 17.5228 22 12C22 11.5373 21.3065 11.4608 21.0672 11.8568C19.9289 13.7406 17.8615 15 15.5 15C11.9101 15 9 12.0899 9 8.5C9 6.13845 10.2594 4.07105 12.1432 2.93276C12.5392 2.69347 12.4627 2 12 2C6.47715 2 2 6.47715 2 12C2 17.5228 6.47715 22 12 22Z"></path></symbol><symbol id="crncyi-benefits-fingerprint" xmlns="http://www.w3.org/2000/svg" viewBox="0 0 40 40"><path d="M35.574 13.0321C37.2483 17.1996 36.9704 21.859 36.3812 26.2219C36.2845 26.9416 37.4453 26.9348 37.542 26.2219C38.1453 21.7647 38.4039 16.9906 36.6943 12.7322C36.4252 12.0622 35.3013 12.3535 35.5757 13.0321H35.574Z"></path><path d="M5.7115 11.7268C8.29515 7.06061 13.0878 3.81843 18.5224 3.22723C24.1646 2.61375 29.7083 4.88945 33.2663 9.17009C33.7359 9.73559 34.5537 8.9319 34.0877 8.36983C30.2834 3.79273 24.2262 1.39707 18.2182 2.1305C12.4969 2.82795 7.44387 6.21751 4.70896 11.1545C4.35369 11.7954 5.35623 12.366 5.7115 11.7251V11.7268Z"></path><path d="M3.47789 22.8956C4.06884 20.4434 3.68899 17.9243 4.27114 15.4567C4.43823 14.749 3.31967 14.4457 3.15258 15.1568C2.87118 16.3478 2.69701 17.561 2.66359 18.7846C2.62842 20.0904 2.66887 21.3122 2.35933 22.5957C2.18872 23.3034 3.30729 23.605 3.47789 22.8956Z"></path><path d="M3.15239 23.9203C4.1162 21.1597 3.60609 18.2722 4.27267 15.4567C4.43975 14.749 3.32119 14.4457 3.1541 15.1568C2.48928 17.9672 2.99052 20.8786 2.03374 23.6204C1.79279 24.311 2.91319 24.6075 3.15239 23.9203Z"></path><path d="M24.5339 7.76473C28.9766 9.32584 32.1934 13.2209 32.6613 17.8237C33.2223 23.3485 32.0633 29.1902 30.0548 34.3414C29.7892 35.0217 30.9113 35.3165 31.1733 34.6413C32.2972 31.759 33.0939 28.7738 33.5143 25.7167C33.9082 22.8584 34.1633 19.8013 33.7042 16.9378C32.9392 12.1653 29.4638 8.29767 24.8417 6.67315C24.1382 6.42638 23.8339 7.51796 24.5339 7.76301V7.76473Z"></path><path d="M7.91855 18.1912C8.38287 13.2251 11.8952 9.07815 16.7723 7.60615C17.4829 7.39194 17.1804 6.29865 16.4645 6.51628C11.058 8.14766 7.26963 12.7076 6.75782 18.1912C6.69099 18.9161 7.85172 18.911 7.91855 18.1912Z"></path><path d="M5.11154 28.8923C6.47987 26.8394 7.39624 24.5619 7.74448 22.1337C7.84648 21.4226 6.72792 21.1141 6.62591 21.8338C6.28999 24.1747 5.42989 26.3407 4.1108 28.3216C3.70277 28.9334 4.70706 29.5006 5.11334 28.8923H5.11154Z"></path><path d="M28.456 24.2265C27.9495 28.5534 26.6076 32.7312 24.5621 36.6006C24.2209 37.2466 25.2216 37.819 25.5646 37.1712C27.7103 33.1134 29.0857 28.7642 29.6168 24.2265C29.7013 23.505 28.5404 23.5102 28.456 24.2265Z"></path><path d="M15.5676 12.4896C18.2832 10.7486 21.8025 10.5292 24.6376 12.152C27.0859 13.5538 28.5386 16.0762 28.6635 18.818C28.6969 19.5429 29.8577 19.5463 29.8243 18.818C29.6801 15.6787 28.0303 12.7826 25.2233 11.1753C22.047 9.35882 18.0335 9.55588 14.9802 11.5128C14.3594 11.9121 14.9397 12.8906 15.5658 12.4896H15.5676Z"></path><path d="M7.67594 32.2004C9.35382 30.0224 10.6255 27.5616 11.3202 24.9192C11.6491 23.6699 11.8495 22.3847 11.9199 21.0961C12.0025 19.5812 11.8847 18.1709 12.3438 16.692C12.5601 15.9946 11.4398 15.6947 11.2252 16.3922C10.8101 17.7271 10.8066 19.0003 10.7855 20.3781C10.7644 21.7147 10.5938 23.041 10.2737 24.34C9.61764 27.0012 8.3584 29.4466 6.67701 31.6297C6.22852 32.2124 7.23625 32.7762 7.67946 32.2004H7.67594Z"></path><path d="M21.7267 33.2579C21.0865 34.6048 20.3654 35.9037 19.5617 37.1633C19.1659 37.7836 20.1702 38.3508 20.5642 37.7339C21.368 36.4744 22.0907 35.1737 22.7292 33.8285C23.0405 33.1722 22.0415 32.5964 21.7267 33.2579Z"></path><path d="M15.2881 25.7669C15.603 24.4988 15.8245 23.2119 15.9318 21.9112C16.0303 20.7168 15.8315 19.4367 16.1042 18.2663C16.6793 15.8038 19.4969 14.3678 21.9152 15.2469C22.9353 15.6171 23.783 16.3848 24.2333 17.3512C24.7873 18.5405 24.6501 19.9731 24.6079 21.2446C24.5164 23.9744 24.0627 26.658 23.266 29.2764C23.0531 29.9756 24.1735 30.2737 24.3845 29.5763C25.3378 26.4438 25.8004 23.1999 25.7863 19.9337C25.781 18.5936 25.6667 17.3084 24.877 16.1637C24.2351 15.2349 23.3046 14.5323 22.223 14.1553C19.7149 13.2831 16.7673 14.3764 15.501 16.6589C14.8432 17.8448 14.8572 19.0237 14.8431 20.3364C14.8238 22.0706 14.5881 23.7808 14.1695 25.4653C13.9936 26.173 15.1123 26.4746 15.2881 25.7652V25.7669Z"></path><path d="M10.7927 34.7395C11.8303 33.4149 12.7326 32.0131 13.4941 30.5223C13.8265 29.8728 12.8258 29.2987 12.4916 29.9516C11.73 31.4425 10.826 32.8442 9.79012 34.1689C9.33635 34.7481 10.3442 35.3119 10.7927 34.7395Z"></path><path d="M19.1171 29.8799C20.3782 26.624 20.9286 23.07 20.8372 19.5947C20.8178 18.8682 19.657 18.8647 19.6763 19.5947C19.7643 22.9809 19.2261 26.4064 17.9967 29.5801C17.7329 30.2621 18.855 30.5568 19.1153 29.8799H19.1171Z"></path><path d="M16.1938 36.1801C16.7988 35.2033 17.3405 34.1957 17.8206 33.1538C18.1249 32.4958 17.1241 31.92 16.8181 32.5832C16.3379 33.6251 15.7962 34.631 15.1912 35.6094C14.8043 36.2349 15.8068 36.8039 16.1938 36.1801Z"></path></symbol><symbol id="crncyi-benefits-crashed-globe" xmlns="http://www.w3.org/2000/svg" viewBox="0 0 36 36"><path d="M26.3413 7.39486C26.3247 8.22702 26.1826 8.98563 25.1618 8.98563C24.1507 8.98563 23.9824 8.22057 23.9824 7.39486C23.9824 6.56915 24.13 5.83245 25.1039 5.80536C26.1578 5.77698 26.3261 6.53302 26.3427 7.39486C26.3537 7.94189 27.2641 7.94447 27.2531 7.39486C27.2283 6.08663 26.7234 4.95385 25.1632 4.95256C23.621 4.95256 23.0733 6.08921 23.0733 7.39486C23.0733 8.70051 23.621 9.83714 25.1632 9.83714C26.7055 9.83714 27.2283 8.70309 27.2531 7.39486C27.2641 6.84654 26.3537 6.84654 26.3427 7.39486H26.3413Z"></path><path d="M31.0672 14.3997C31.0506 15.2319 30.9086 15.9905 29.8877 15.9905C28.8766 15.9905 28.7083 15.2254 28.7083 14.3997C28.7083 13.574 28.8559 12.8373 29.8298 12.8102C30.8837 12.7818 31.052 13.5379 31.0686 14.3997C31.0796 14.9467 31.99 14.9493 31.979 14.3997C31.9542 13.0915 31.4493 11.9587 29.8891 11.9574C28.3469 11.9574 27.7992 13.094 27.7992 14.3997C27.7992 15.7053 28.3469 16.842 29.8891 16.842C31.4314 16.842 31.9542 15.7079 31.979 14.3997C31.99 13.8514 31.0796 13.8514 31.0686 14.3997H31.0672Z"></path><path d="M35.0881 21.5035C35.0715 22.3357 34.9294 23.0943 33.9086 23.0943C32.8975 23.0943 32.7292 22.3293 32.7292 21.5035C32.7292 20.6778 32.8768 19.9411 33.8507 19.9141C34.9046 19.8857 35.0729 20.6417 35.0894 21.5035C35.1005 22.0506 36.0109 22.0532 35.9999 21.5035C35.9751 20.1953 35.4702 19.0625 33.91 19.0613C32.3677 19.0613 31.8201 20.1979 31.8201 21.5035C31.8201 22.8092 32.3691 23.9458 33.91 23.9458C35.4509 23.9458 35.9751 22.8118 35.9999 21.5035C36.0109 20.9552 35.1005 20.9552 35.0894 21.5035H35.0881Z"></path><path d="M25.1738 28.6041C25.1573 29.4362 25.0152 30.1949 23.9944 30.1949C22.9833 30.1949 22.815 29.4298 22.815 28.6041C22.815 27.7784 22.9626 27.0417 23.9365 27.0146C24.9904 26.9862 25.1587 27.7422 25.1752 28.6041C25.1863 29.1511 26.0967 29.1537 26.0857 28.6041C26.0609 27.2958 25.556 26.1631 23.9958 26.1618C22.4536 26.1618 21.9059 27.2984 21.9059 28.6041C21.9059 29.9097 22.4536 31.0464 23.9958 31.0464C25.5381 31.0464 26.0609 29.9123 26.0857 28.6041C26.0967 28.0557 25.1863 28.0557 25.1752 28.6041H25.1738Z"></path><path d="M32.306 5.37845V9.41152C32.306 9.95984 33.2164 9.95984 33.2164 9.41152V5.37845C33.2164 4.83013 32.306 4.83013 32.306 5.37845Z"></path><path d="M23.9545 16.4166V12.3835C23.9545 11.8352 23.0441 11.8352 23.0441 12.3835V16.4166C23.0441 16.9649 23.9545 16.9649 23.9545 16.4166Z"></path><path d="M22.4455 23.5204V19.4873C22.4455 18.939 21.535 18.939 21.535 19.4873V23.5204C21.535 24.0687 22.4455 24.0687 22.4455 23.5204Z"></path><path d="M28.0645 23.5204V19.4873C28.0645 18.939 27.1541 18.939 27.1541 19.4873V23.5204C27.1541 24.0687 28.0645 24.0687 28.0645 23.5204Z"></path><path d="M32.1515 30.6226V26.5895C32.1515 26.0412 31.2411 26.0412 31.2411 26.5895V30.6226C31.2411 31.1709 32.1515 31.1709 32.1515 30.6226Z"></path><path d="M19.241 0C14.1811 0 9.24537 1.90817 5.66152 5.24841C1.6183 9.017 -0.463299 14.3944 0.0871081 19.7125C0.247126 21.2607 0.609925 22.787 1.19068 24.2449C1.47485 24.957 1.80315 25.655 2.17975 26.3285C2.37977 26.6884 2.72878 27.6638 3.25988 27.6638L2.86672 27.4535C6.39263 32.7226 12.5657 35.9544 19.212 35.9996C19.7983 36.0035 19.7983 35.152 19.212 35.1481C15.8751 35.1262 12.603 34.2914 9.74475 32.6709C8.38046 31.8981 7.13205 30.9602 6.02709 29.8855C5.45462 29.3294 4.91938 28.7372 4.43381 28.1128C4.18136 27.7877 3.75372 26.8149 3.25712 26.8149C3.38817 26.8845 3.51923 26.9555 3.65028 27.0252C0.709258 22.5186 0.0939878 16.9438 2.06938 11.9857C3.74957 7.76811 7.24654 4.28724 11.6098 2.40617C13.9935 1.3779 16.6186 0.855383 19.2423 0.855383C19.8286 0.855383 19.8286 0.00387429 19.2423 0.00387429L19.241 0Z"></path><path d="M27.8311 33.1501C25.1784 34.4531 22.2664 35.1227 19.2702 35.1472C18.6853 35.1524 18.6825 36.0039 19.2702 35.9987C22.4264 35.9729 25.4957 35.2582 28.2905 33.8854C28.8092 33.63 28.3498 32.8959 27.8311 33.1501Z"></path><path d="M19.241 0.852678C22.2385 0.852678 25.1795 1.54551 27.8309 2.84729C28.3495 3.10145 28.8103 2.36734 28.2902 2.11188C25.4982 0.740435 22.3986 0 19.241 0C18.6547 0 18.6547 0.851387 19.241 0.851387V0.852678Z"></path><path d="M19.2108 35.1471C16.776 35.1149 14.7813 33.6106 13.3922 31.8508C11.5244 29.4872 10.4677 26.6036 9.87182 23.7421C9.14898 20.2741 9.09656 16.6358 9.70491 13.1498C10.2153 10.2262 11.174 7.28982 12.9177 4.79205C14.322 2.77938 16.4919 0.853158 19.2218 0.853158C19.8081 0.853158 19.8081 0.00164975 19.2218 0.00164975C16.7002 0.00164975 14.5289 1.45439 13.0073 3.23224C10.9561 5.63066 9.76837 8.61869 9.09243 11.5977C8.25648 15.2863 8.17233 19.131 8.78619 22.8544C9.30487 26.0037 10.356 29.2033 12.2859 31.8585C13.8819 34.0544 16.2367 35.96 19.2108 35.9999C19.7971 36.0077 19.7971 35.1562 19.2108 35.1484V35.1471Z"></path><path d="M19.2409 11.9141C16.2999 11.9063 13.3561 11.6535 10.4868 11.0355C8.03273 10.5078 5.58004 9.73243 3.48739 8.39581C3.00182 8.08617 2.54662 8.82285 3.02805 9.1312C5.17864 10.5052 7.72373 11.3155 10.2454 11.8573C13.1905 12.4908 16.2213 12.7579 19.2409 12.7656C19.8272 12.7669 19.8272 11.9154 19.2409 11.9141Z"></path><path d="M3.25563 27.6626C3.63222 27.6626 4.0847 27.2369 4.40197 27.0653C4.911 26.7905 5.43794 26.5453 5.97593 26.3221C7.27263 25.7854 8.63692 25.3868 10.0122 25.0694C13.0291 24.374 16.1385 24.094 19.2409 24.085C19.8272 24.0837 19.8272 23.2322 19.2409 23.2335C16.1812 23.2425 13.1092 23.5147 10.1254 24.1675C8.79005 24.4604 7.47129 24.8307 6.2008 25.3145C5.63246 25.53 5.07238 25.7648 4.52749 26.0305C4.27505 26.1531 4.02676 26.2808 3.78259 26.4163C3.6681 26.4808 3.09423 26.8098 3.25563 26.8098C2.66936 26.8098 2.66936 27.6613 3.25563 27.6613V27.6626Z"></path><path d="M18.7859 0.426089V35.5703C18.7859 36.1186 19.6964 36.1186 19.6964 35.5703V0.426089C19.6964 -0.122233 18.7859 -0.122233 18.7859 0.426089Z"></path></symbol><symbol id="crncyi-benefits-globe" xmlns="http://www.w3.org/2000/svg" viewBox="0 0 36 37"><path d="M19.5483 34.1627C14.9028 34.6789 10.1753 33.2619 6.64695 30.1762C2.53459 26.58 0.407712 21.1087 1.03135 15.6769C1.21661 14.0619 1.64505 12.4611 2.29415 10.9706C2.58405 10.3074 2.9178 9.6625 3.28972 9.04169C3.48487 8.71643 3.68997 8.39825 3.90634 8.08714C4.04917 7.88208 4.30083 7.66006 4.30083 7.38996L3.83418 7.85663C4.1354 7.85663 4.27823 7.56673 4.44086 7.36026C4.72086 7.00248 5.01504 6.65601 5.32333 6.32227C6.17182 5.40166 7.1193 4.57013 8.15163 3.86164C8.58578 3.56326 9.03406 3.28608 9.49508 3.02871C9.74397 2.89012 9.99563 2.75719 10.2516 2.63133C10.3506 2.58183 10.485 2.52102 10.5769 2.47577C10.5514 2.4885 10.1838 2.65113 10.4793 2.51678C11.5668 2.019 12.6925 1.62304 13.8591 1.35435C15.6169 0.9499 17.4298 0.84101 19.223 1.00929C20.5565 1.13374 21.876 1.43071 23.1402 1.87193C23.6069 2.03456 24.0495 2.23961 24.5077 2.42203C24.5954 2.45739 24.7071 2.4885 24.7891 2.52668C24.9885 2.62001 24.6067 2.45456 24.6279 2.47719C24.7863 2.64971 25.1738 2.74305 25.3887 2.85759C26.6091 3.50528 27.7518 4.2972 28.7756 5.2263C29.3102 5.71136 29.8164 6.22894 30.2874 6.77763C30.5575 7.09299 30.9025 7.86087 31.3748 7.86087L30.9082 7.3942C30.9082 7.73218 31.3098 8.09845 31.4922 8.37421C31.7864 8.81684 32.0578 9.27361 32.3096 9.74169C32.8356 10.7203 33.2599 11.7498 33.5781 12.8147C34.2314 15.0009 34.4082 17.2791 34.1706 19.546C34.1084 20.1428 35.0417 20.1386 35.104 19.546C35.3373 17.3201 35.1732 15.0632 34.575 12.9023C34.2979 11.8997 33.926 10.9239 33.4777 9.98493C33.2486 9.50412 32.9955 9.03462 32.7226 8.57785C32.5868 8.35017 32.4454 8.12532 32.2983 7.90471C32.2644 7.8538 31.8415 7.24147 31.8415 7.39561C31.8415 7.14389 31.628 6.92894 31.3748 6.92894C31.5092 7.00531 31.6435 7.08309 31.7779 7.15945C28.968 3.41194 24.8429 0.880606 20.2342 0.200398C16.2533 -0.386476 12.1268 0.40828 8.7088 2.40931C6.64838 3.61558 4.85947 5.2461 3.43542 7.15945C3.56976 7.08309 3.70412 7.00531 3.83846 6.92894C3.58674 6.92894 3.37175 7.14248 3.37175 7.39561C3.37175 7.28814 2.83153 8.02774 2.7891 8.09421C2.62506 8.34875 2.4667 8.60896 2.3168 8.87199C1.95619 9.5027 1.63658 10.1575 1.35658 10.8278C0.785264 12.1924 0.39074 13.6207 0.180031 15.0858C-0.224417 17.9155 0.0513344 20.8414 1.02003 23.5339C2.82308 28.5443 6.87601 32.5435 11.9132 34.2716C14.3555 35.1088 16.9887 35.386 19.5539 35.1003C20.1436 35.0352 20.1507 34.1005 19.5539 34.167L19.5483 34.1627Z"></path><path d="M25.936 16.7632C25.8144 12.0371 25.0197 6.62235 22.108 2.73201C20.3997 0.449567 17.6406 -0.923577 15.0442 0.814418C13.5014 1.84675 12.4408 3.50131 11.6686 5.15587C10.6306 7.38175 10.0127 9.78864 9.65346 12.2125C8.89688 17.3049 9.12179 22.7508 10.7325 27.6664C11.9091 31.2597 14.8788 36.7919 19.5186 34.7527C20.0673 34.5109 19.5922 33.7076 19.0477 33.9466C15.2719 35.6054 12.7632 30.663 11.7803 27.8559C10.2361 23.4437 9.90663 18.5734 10.3705 13.9448C10.5982 11.6695 11.0492 9.39692 11.8185 7.23892C12.4393 5.49527 13.2892 3.72192 14.603 2.38979C15.3864 1.59503 16.3919 0.947349 17.5402 0.924722C18.8822 0.899268 20.0263 1.73079 20.8833 2.69241C22.3455 4.33425 23.211 6.49225 23.8148 8.57671C24.5855 11.2367 24.932 13.9986 25.0027 16.7618C25.0182 17.3614 25.9516 17.3643 25.936 16.7618V16.7632Z"></path><path d="M31.1373 6.98566C27.165 9.4081 22.1787 10.1081 17.6011 10.1081C13.0235 10.1081 8.04143 9.4081 4.06907 6.98566C4.12422 7.19919 4.18074 7.41132 4.23589 7.62486C9.24483 0.958533 18.6943 -1.03118 25.9347 3.15471C27.8947 4.28745 29.6087 5.81615 30.9691 7.62486C31.3254 8.0986 32.1372 7.63475 31.7752 7.15394C29.2113 3.74724 25.5274 1.29227 21.3415 0.392871C17.0538 -0.527743 12.4889 0.180748 8.70325 2.40097C6.63717 3.6129 4.8652 5.24059 3.42842 7.15253C3.27427 7.35758 3.40016 7.67152 3.59531 7.79173C7.70484 10.2976 12.8609 11.0415 17.5983 11.0415C22.3357 11.0415 27.4959 10.2976 31.6069 7.79173C32.1188 7.4792 31.6507 6.67172 31.136 6.98566H31.1373Z"></path><path d="M19.5489 34.1602C13.6575 34.8149 7.80857 32.3189 4.23641 27.5815C4.18126 27.7951 4.12474 28.0072 4.06959 28.2207C7.86659 25.9058 12.5658 25.1959 16.9426 25.1053C17.5422 25.0926 17.545 24.1593 16.9426 24.172C12.4046 24.2653 7.53426 25.0148 3.59866 27.4147C3.4021 27.5349 3.27621 27.8488 3.43177 28.0539C7.19483 33.0444 13.3096 35.7893 19.5503 35.0949C20.14 35.0299 20.1471 34.0951 19.5503 34.1616L19.5489 34.1602Z"></path><path d="M34.7448 17.1348H31.7921C31.1911 17.1348 31.1911 18.0681 31.7921 18.0681H34.7448C35.3458 18.0681 35.3458 17.1348 34.7448 17.1348Z"></path><path d="M0.457109 18.0681H22.7824C23.3834 18.0681 23.3834 17.1348 22.7824 17.1348H0.457109C-0.143906 17.1348 -0.143906 18.0681 0.457109 18.0681Z"></path><path d="M32.8043 21.7668C35.0768 24.0959 35.7585 27.6398 34.35 30.6081C32.9457 33.5693 29.7766 35.3625 26.517 35.0514C23.2658 34.7417 20.4984 32.3249 19.7121 29.1642C18.9301 26.0206 20.2311 22.6125 22.9293 20.808C26.0249 18.7377 30.1556 19.1831 32.8029 21.7668C33.2328 22.1868 33.8932 21.5278 33.4633 21.1064C30.8726 18.5779 26.9851 17.8369 23.6689 19.3316C20.3089 20.8476 18.2116 24.4806 18.5949 28.1475C18.9739 31.7691 21.607 34.8732 25.158 35.757C28.692 36.6366 32.4536 35.1899 34.5112 32.1933C36.8757 28.7513 36.3482 24.062 33.4633 21.1064C33.0433 20.6751 32.3829 21.3355 32.8029 21.7668H32.8043Z"></path><path d="M25.3378 22.1463V32.4258C25.3378 33.0268 26.2711 33.0268 26.2711 32.4258V22.1463C26.2711 21.5453 25.3378 21.5453 25.3378 22.1463Z"></path><path d="M28.5508 32.426V30.5975C28.5508 29.9965 27.6174 29.9965 27.6174 30.5975V32.426C27.6174 33.027 28.5508 33.027 28.5508 32.426Z"></path><path d="M28.5508 23.5406V22.1463C28.5508 21.5453 27.6174 21.5453 27.6174 22.1463V23.5406C27.6174 24.1416 28.5508 24.1416 28.5508 23.5406Z"></path><path d="M24.2831 24.008C25.6011 24.008 26.9601 23.9147 28.2724 24.008C29.1845 24.0731 29.852 24.9527 29.4546 25.845C29.193 26.4305 28.6316 26.5931 28.0504 26.603C27.3023 26.6157 26.5528 26.603 25.8047 26.603C25.2037 26.603 25.2037 27.5363 25.8047 27.5363C26.6871 27.5363 27.5993 27.6099 28.4775 27.525C30.1957 27.3596 31.0979 25.2977 30.026 23.9345C29.2015 22.8866 27.8793 23.0761 26.6999 23.0761H24.2831C23.6821 23.0761 23.6821 24.0094 24.2831 24.0094V24.008Z"></path><path d="M24.2824 31.0627H26.8166C28.037 31.0627 29.4723 31.2819 30.3053 30.1703C31.4196 28.6841 30.3053 26.6745 28.5263 26.601C27.6226 26.5628 26.7091 26.601 25.804 26.601C25.203 26.601 25.203 27.5343 25.804 27.5343H28.2251C28.7525 27.5343 29.2404 27.6079 29.577 28.0788C30.212 28.9669 29.5388 30.0544 28.5277 30.1293C27.1334 30.234 25.6852 30.1293 24.2838 30.1293C23.6828 30.1293 23.6828 31.0627 24.2838 31.0627H24.2824Z"></path></symbol><symbol id="crncyi-bank" xmlns="http://www.w3.org/2000/svg" viewBox="0 0 40 40" fill="none"><path d="M3.85927 16.4H36.1407C37.9769 16.4 38.698 13.9675 37.1702 12.9271L22.0589 2.63675C20.8121 1.78775 19.1879 1.78775 17.9411 2.63675L2.82983 12.9271C1.30202 13.9675 2.02308 16.4 3.85927 16.4Z" stroke-width="2"></path><path d="M5.60011 16.4001H14.6001V30.8001H5.60011V16.4001Z" stroke-width="2"></path><path d="M25.4001 16.4001H34.4001V30.8001H25.4001V16.4001Z" stroke-width="2"></path><path d="M33.311 30.8C33.9785 30.8 34.5886 31.1772 34.8871 31.7741L36.725 35.4497C37.3108 36.6214 36.4588 38 35.1488 38H4.8513C3.54134 38 2.68933 36.6214 3.27517 35.4497L5.113 31.7741C5.4115 31.1772 6.02167 30.8 6.68914 30.8H33.311Z" stroke-width="2"></path></symbol><symbol id="crncyi-users" xmlns="http://www.w3.org/2000/svg" viewBox="0 0 40 40" fill="none"><ellipse cx="16.6667" cy="29.1666" rx="11.6667" ry="5.83333" stroke="#28303F" stroke-width="2" stroke-linejoin="round"></ellipse><path d="M23.3333 11.6667C23.3333 15.3486 20.3486 18.3333 16.6667 18.3333C12.9848 18.3333 10 15.3486 10 11.6667C10 7.98477 12.9848 5 16.6667 5C20.3486 5 23.3333 7.98477 23.3333 11.6667Z" stroke="#28303F" stroke-width="2" stroke-linejoin="round"></path><path d="M24.7352 17.5752C24.3856 18.0518 23.9947 18.4964 23.5679 18.9035C24.0257 19.0209 24.5055 19.0833 24.9999 19.0833C28.1756 19.0833 30.7499 16.5089 30.7499 13.3333C30.7499 10.4373 28.6091 8.04141 25.8237 7.64185C26.0591 8.17677 26.2491 8.73623 26.3886 9.31534C28.0539 9.8908 29.2499 11.4724 29.2499 13.3333C29.2499 15.6805 27.3471 17.5833 24.9999 17.5833C24.911 17.5833 24.8228 17.5806 24.7352 17.5752Z" fill="#28303F"></path><path d="M31.6296 29.8162C31.5604 30.4202 31.3955 31.0081 31.144 31.5742C31.5735 31.4424 31.9798 31.2968 32.3595 31.1385C33.3186 30.7389 34.1437 30.244 34.7405 29.6561C35.3399 29.0656 35.75 28.3365 35.75 27.5C35.75 26.6634 35.3399 25.9343 34.7405 25.3438C34.1437 24.7559 33.3186 24.261 32.3595 23.8614C30.9671 23.2812 29.2169 22.8707 27.2795 22.6886C28.1997 23.2516 29.0007 23.8873 29.6573 24.5805C30.4461 24.7619 31.1612 24.9871 31.7826 25.246C32.6332 25.6004 33.2726 26.0033 33.6878 26.4124C34.1004 26.8189 34.25 27.1859 34.25 27.5C34.25 27.814 34.1004 28.181 33.6878 28.5875C33.2726 28.9966 32.6332 29.3995 31.7826 29.7539C31.7322 29.7749 31.6812 29.7957 31.6296 29.8162Z" fill="#28303F"></path></symbol></svg>