<svg width="0" height="0" position="absolute"><symbol id="fxchi-arrow-alt-down" viewBox="0 0 24 24" xmlns="http://www.w3.org/2000/svg"><path d="M12 18L11.2929 18.7071L12 19.4142L12.7071 18.7071L12 18ZM13 6C13 5.44771 12.5523 5 12 5C11.4477 5 11 5.44771 11 6L13 6ZM7.29289 14.7071L11.2929 18.7071L12.7071 17.2929L8.70711 13.2929L7.29289 14.7071ZM12.7071 18.7071L16.7071 14.7071L15.2929 13.2929L11.2929 17.2929L12.7071 18.7071ZM13 18L13 6L11 6L11 18L13 18Z"></path></symbol><symbol id="fxchi-arrow-alt-left" xmlns="http://www.w3.org/2000/svg" viewBox="0 0 24 24"><path d="M6 12.0001L5.2929 11.293L4.5858 12.0001L5.2929 12.7072L6 12.0001ZM18 13.0001C18.5523 13.0001 19 12.5524 19 12.0001C19 11.4478 18.5523 11.0001 18 11.0001L18 13.0001ZM9.2929 7.29297L5.2929 11.293L6.7071 12.7072L10.7071 8.70719L9.2929 7.29297ZM5.2929 12.7072L9.2929 16.7072L10.7071 15.293L6.7071 11.293L5.2929 12.7072ZM6 13.0001L18 13.0001L18 11.0001L6 11.0001L6 13.0001Z"></path></symbol><symbol id="fxchi-burger" xmlns="http://www.w3.org/2000/svg" viewBox="0 0 20 20"><path d="M3.42,3.34H16.64v1H3.42Z"></path><path d="M3.42,9.45H16.64v1H3.42Z"></path><path d="M3.42,15.56h9.07v1H3.42Z"></path></symbol><symbol id="fxchi-close" viewBox="0 0 24 24" xmlns="http://www.w3.org/2000/svg"><path fill-rule="evenodd" clip-rule="evenodd" d="M16.2929 6.29289C16.6834 5.90237 17.3166 5.90237 17.7071 6.29289C18.0976 6.68342 18.0976 7.31658 17.7071 7.70711L13.4142 12L17.7071 16.2929C18.0976 16.6834 18.0976 17.3166 17.7071 17.7071C17.3166 18.0976 16.6834 18.0976 16.2929 17.7071L12 13.4142L7.70711 17.7071C7.31658 18.0976 6.68342 18.0976 6.29289 17.7071C5.90237 17.3166 5.90237 16.6834 6.29289 16.2929L10.5858 12L6.29289 7.70711C5.90237 7.31658 5.90237 6.68342 6.29289 6.29289C6.68342 5.90237 7.31658 5.90237 7.70711 6.29289L12 10.5858L16.2929 6.29289Z"></path></symbol><symbol id="fxchi-arrow-alt-right" xmlns="http://www.w3.org/2000/svg" viewBox="0 0 24 24"><path d="M18 11.9999L18.7071 12.707L19.4142 11.9999L18.7071 11.2928L18 11.9999ZM6 10.9999C5.44771 10.9999 5 11.4476 5 11.9999C5 12.5522 5.44771 12.9999 6 12.9999L6 10.9999ZM14.7071 16.707L18.7071 12.707L17.2929 11.2928L13.2929 15.2928L14.7071 16.707ZM18.7071 11.2928L14.7071 7.29282L13.2929 8.70702L17.2929 12.707L18.7071 11.2928ZM18 10.9999L6 10.9999L6 12.9999L18 12.9999L18 10.9999Z"></path></symbol><symbol id="fxchi-linkedin" viewBox="0 0 20 20" xmlns="http://www.w3.org/2000/svg"><path d="M3.76245 1.66675C2.49541 1.66675 1.66699 2.56702 1.66699 3.75031C1.66699 4.90746 2.47073 5.83341 3.71384 5.83341H3.73788C5.02971 5.83341 5.83366 4.90746 5.83366 3.75031C5.80951 2.56702 5.02971 1.66675 3.76245 1.66675Z"></path><path d="M1.66699 6.66675H5.00033V18.3334H1.66699V6.66675Z"></path><path d="M14.2479 6.66675C12.3333 6.66675 11.0495 8.58742 11.0495 8.58742V6.93429H7.50033V18.3334H11.0493V11.9677C11.0493 11.6269 11.0724 11.2867 11.1662 11.043C11.4227 10.3625 12.0066 9.65747 12.9871 9.65747C14.2713 9.65747 14.7849 10.7028 14.7849 12.2352V18.3334H18.3337V11.7974C18.3337 8.29604 16.5827 6.66675 14.2479 6.66675Z"></path></symbol><symbol id="fxchi-copy-check" viewBox="0 0 20 20" xmlns="http://www.w3.org/2000/svg"><path fill-rule="evenodd" clip-rule="evenodd" d="M10.6429 4.5H6V4C6 1.79086 7.79086 0 10 0H16C18.2091 0 20 1.79086 20 4V10C20 12.2091 18.2091 14 16 14H15.5V9.35714C15.5 6.67462 13.3254 4.5 10.6429 4.5ZM4 20H10C12.2091 20 14 18.2091 14 16V10C14 7.79086 12.2091 6 10 6H4C1.79086 6 0 7.79086 0 10V16C0 18.2091 1.79086 20 4 20ZM10.4939 10.4356C10.8056 10.7083 10.8372 11.1822 10.5644 11.4939L7.69452 14.7738C7.07783 15.4786 6.01558 15.5729 5.2843 14.9879L3.53148 13.5857C3.20803 13.3269 3.15559 12.8549 3.41435 12.5315C3.6731 12.208 4.14507 12.1556 4.46852 12.4144L6.22134 13.8166C6.32581 13.9002 6.47756 13.8867 6.56566 13.786L9.43556 10.5061C9.70833 10.1944 10.1821 10.1628 10.4939 10.4356Z"></path></symbol><symbol id="fxchi-copy" viewBox="0 0 14 14" xmlns="http://www.w3.org/2000/svg"><path fill-rule="evenodd" clip-rule="evenodd" d="M7.42825 3.33325H4.33301V2.99992C4.33301 1.52716 5.52692 0.333252 6.99967 0.333252H10.9997C12.4724 0.333252 13.6663 1.52716 13.6663 2.99992V6.99992C13.6663 8.47268 12.4724 9.66658 10.9997 9.66658H10.6663V6.57135C10.6663 4.783 9.2166 3.33325 7.42825 3.33325ZM6.99967 13.6666H2.99967C1.52691 13.6666 0.333008 12.4727 0.333008 10.9999V6.99992C0.333008 5.52716 1.52692 4.33325 2.99967 4.33325H6.99967C8.47243 4.33325 9.66634 5.52716 9.66634 6.99992V10.9999C9.66634 12.4727 8.47243 13.6666 6.99967 13.6666Z"></path></symbol><symbol id="fxchi-call" viewBox="0 0 18 18" xmlns="http://www.w3.org/2000/svg"><path d="M18 16V14.3541C18 13.5363 17.5021 12.8008 16.7428 12.4971L14.7086 11.6835C13.7429 11.2971 12.6422 11.7156 12.177 12.646L12 13C12 13 9.5 12.5 7.5 10.5C5.5 8.5 5 6 5 6L5.35402 5.82299C6.28438 5.35781 6.70285 4.25714 6.31654 3.29136L5.50289 1.25722C5.19916 0.497903 4.46374 0 3.64593 0H2C0.895431 0 0 0.89543 0 2C0 10.8366 7.16344 18 16 18C17.1046 18 18 17.1046 18 16Z"></path></symbol><symbol id="fxchi-mail" viewBox="0 0 20 18" xmlns="http://www.w3.org/2000/svg"><path fill-rule="evenodd" clip-rule="evenodd" d="M4 0C1.79086 0 0 1.79086 0 4V14C0 16.2091 1.79086 18 4 18H16C18.2091 18 20 16.2091 20 14V4C20 1.79086 18.2091 0 16 0H4ZM4.41603 4.37592C4.07138 4.14616 3.60573 4.23929 3.37597 4.58393C3.1462 4.92858 3.23933 5.39423 3.58398 5.624L7.36518 8.1448C8.9607 9.20848 11.0393 9.20848 12.6348 8.14479L16.416 5.624C16.7607 5.39423 16.8538 4.92858 16.624 4.58393C16.3943 4.23929 15.9286 4.14616 15.584 4.37592L11.8028 6.89672C10.7111 7.6245 9.2889 7.6245 8.19723 6.89672L4.41603 4.37592Z"></path></symbol><symbol id="fxchi-slack" viewBox="0 0 20 20" xmlns="http://www.w3.org/2000/svg"><path d="M7.76831 10.4884C6.80679 10.4884 6.02456 11.2706 6.02456 12.2321V16.5896C6.02456 17.5511 6.80679 18.3334 7.76831 18.3334C8.72983 18.3334 9.51206 17.5512 9.51206 16.5897V12.2321C9.51206 11.2706 8.72983 10.4884 7.76831 10.4884Z"></path><path d="M5.04787 10.4884H3.35972C2.42886 10.4884 1.67157 11.2457 1.67157 12.1765C1.67157 13.1074 2.42889 13.8647 3.35972 13.8647C4.29055 13.8647 5.04787 13.1073 5.04787 12.1765V10.4884Z"></path><path d="M1.66699 7.76807C1.66699 8.72959 2.44922 9.51182 3.41074 9.51182H7.76826C8.72981 9.51182 9.51204 8.72959 9.51204 7.76807C9.51204 6.80654 8.72981 6.02432 7.76829 6.02432H3.41074C2.44922 6.02428 1.66699 6.80654 1.66699 7.76807Z"></path><path d="M7.82393 5.0478H9.51208V3.35965C9.51208 2.42879 8.75476 1.6715 7.82393 1.6715C6.89307 1.6715 6.13578 2.42882 6.13578 3.35965C6.13578 4.29047 6.89307 5.0478 7.82393 5.0478Z"></path><path d="M12.2324 9.5118C13.1939 9.5118 13.9761 8.72957 13.9761 7.76805V3.4105C13.9761 2.44897 13.1939 1.66675 12.2324 1.66675C11.2708 1.66675 10.4886 2.44897 10.4886 3.4105V7.76802C10.4886 8.72957 11.2708 9.5118 12.2324 9.5118Z"></path><path d="M14.9526 9.51184H16.6408C17.5717 9.51184 18.3289 8.75451 18.3289 7.82369C18.3289 6.89283 17.5716 6.13554 16.6408 6.13554C15.71 6.13554 14.9526 6.89286 14.9526 7.82369V9.51184Z"></path><path d="M18.3337 12.2321C18.3337 11.2706 17.5514 10.4884 16.5899 10.4884H12.2324C11.2708 10.4884 10.4886 11.2706 10.4886 12.2321C10.4886 13.1936 11.2708 13.9759 12.2324 13.9759H16.5899C17.5514 13.9759 18.3337 13.1936 18.3337 12.2321Z"></path><path d="M12.1768 14.9524H10.4886V16.6406C10.4886 17.5714 11.2459 18.3287 12.1768 18.3287C13.1076 18.3287 13.8649 17.5714 13.8649 16.6406C13.8649 15.7097 13.1076 14.9524 12.1768 14.9524Z"></path></symbol><symbol id="fxchi-img-box" viewBox="0 0 24 24" xmlns="http://www.w3.org/2000/svg"><path fill-rule="evenodd" clip-rule="evenodd" d="M10.9268 2H13.0732H13.0732C14.8966 1.99997 16.3664 1.99995 17.5223 2.15537C18.7225 2.31672 19.733 2.66191 20.5355 3.46447C21.3381 4.26702 21.6833 5.27752 21.8446 6.47767C22.0001 7.63363 22 9.1034 22 10.9269V13.0731C22 14.8966 22.0001 16.3664 21.8446 17.5223C21.6833 18.7225 21.3381 19.733 20.5355 20.5355C19.733 21.3381 18.7225 21.6833 17.5223 21.8446C16.3664 22.0001 14.8966 22 13.0731 22H10.9269C9.1034 22 7.63363 22.0001 6.47767 21.8446C5.27752 21.6833 4.26702 21.3381 3.46447 20.5355C2.66191 19.733 2.31672 18.7225 2.15537 17.5223C1.99995 16.3664 1.99997 14.8966 2 13.0732V13.0732V10.9268V10.9268C1.99997 9.10337 1.99995 7.63362 2.15537 6.47767C2.31672 5.27752 2.66191 4.26702 3.46447 3.46447C4.26702 2.66191 5.27752 2.31672 6.47767 2.15537C7.63362 1.99995 9.10337 1.99997 10.9268 2H10.9268ZM6.74416 4.13753C5.76579 4.26907 5.2477 4.50966 4.87868 4.87868C4.50966 5.2477 4.26907 5.76579 4.13753 6.74416C4.00213 7.7513 4 9.08611 4 11V13C4 14.9139 4.00213 16.2487 4.13753 17.2558C4.26907 18.2342 4.50966 18.7523 4.87868 19.1213C5.2477 19.4903 5.76579 19.7309 6.74416 19.8625C7.7513 19.9979 9.08611 20 11 20H13C14.9139 20 16.2487 19.9979 17.2558 19.8625C18.2342 19.7309 18.7523 19.4903 19.1213 19.1213C19.4903 18.7523 19.7309 18.2342 19.8625 17.2558C19.9979 16.2487 20 14.9139 20 13V11C20 9.08611 19.9979 7.7513 19.8625 6.74416C19.7309 5.76579 19.4903 5.2477 19.1213 4.87868C18.7523 4.50966 18.2342 4.26907 17.2558 4.13753C16.2487 4.00213 14.9139 4 13 4H11C9.08611 4 7.7513 4.00213 6.74416 4.13753ZM18.9997 13.5854L18.9794 13.5651C18.5898 13.1754 18.2537 12.8393 17.9536 12.5864C17.6367 12.3193 17.2917 12.0845 16.8665 11.9562C16.3014 11.7857 15.6986 11.7857 15.1335 11.9562C14.7083 12.0845 14.3633 12.3193 14.0464 12.5864C13.7463 12.8393 13.4102 13.1754 13.0206 13.5651L12.9921 13.5936C12.6852 13.9004 12.5046 14.0795 12.3645 14.1954L12.3443 14.2118L12.3317 14.1891C12.2447 14.0295 12.1435 13.7961 11.9726 13.3972L11.9191 13.2726L11.8971 13.2211L11.897 13.221C11.5411 12.3904 11.2422 11.693 10.9464 11.1673C10.6416 10.6257 10.2618 10.1178 9.66982 9.82106C9.17604 9.57352 8.6235 9.46711 8.07311 9.51356C7.41323 9.56924 6.87197 9.89977 6.38783 10.2894C5.98249 10.6157 5.52754 11.0598 5 11.5859V12.9999C5 13.5166 5.0003 13.9848 5.00308 14.411L6.117 13.2971C6.80615 12.6079 7.26639 12.1497 7.64186 11.8475C8.01276 11.5489 8.17233 11.5123 8.24128 11.5065C8.42475 11.491 8.60893 11.5265 8.77352 11.609C8.83539 11.64 8.96994 11.7333 9.20344 12.1482C9.43981 12.5682 9.69693 13.1646 10.0809 14.0605L10.1343 14.1851L10.1506 14.2232C10.2995 14.5707 10.4378 14.8936 10.5759 15.1468C10.7206 15.412 10.9308 15.7299 11.2847 15.9489C11.702 16.2072 12.1997 16.3031 12.6831 16.2182C13.093 16.1463 13.4062 15.9292 13.6391 15.7367C13.8613 15.5529 14.1096 15.3045 14.3769 15.0372L14.3769 15.0371L14.377 15.0371L14.4063 15.0078C14.8325 14.5816 15.1083 14.307 15.3353 14.1157C15.5526 13.9325 15.6552 13.8878 15.7112 13.8709C15.8995 13.8141 16.1005 13.8141 16.2888 13.8709C16.3448 13.8878 16.4474 13.9325 16.6647 14.1157C16.8917 14.307 17.1675 14.5816 17.5937 15.0078L18.9441 16.3582C18.9902 15.6404 18.9983 14.7479 18.9997 13.5854ZM16.5 9C17.3284 9 18 8.32843 18 7.5C18 6.67157 17.3284 6 16.5 6C15.6716 6 15 6.67157 15 7.5C15 8.32843 15.6716 9 16.5 9Z"></path></symbol><symbol id="fxchi-twitter" viewBox="0 0 20 20" xmlns="http://www.w3.org/2000/svg"><path d="M11.5859 8.72394L17.7905 1.66675H16.3202L10.9328 7.79441L6.62988 1.66675H1.66699L8.17383 10.9329L1.66699 18.3334H3.13735L8.82659 11.8624L13.3708 18.3334H18.3337L11.5859 8.72394ZM3.66714 2.74981H5.92553L16.3209 17.2996H14.0625L3.66714 2.74981Z"></path></symbol><symbol id="fxchi-sun" xmlns="http://www.w3.org/2000/svg" viewBox="0 0 207.628 207.628"><circle cx="103.814" cy="103.814" r="45.868"></circle><path d="M103.814,157.183c-29.427,0-53.368-23.941-53.368-53.368s23.941-53.368,53.368-53.368s53.368,23.941,53.368,53.368  S133.241,157.183,103.814,157.183z M103.814,65.446c-21.156,0-38.368,17.212-38.368,38.368s17.212,38.368,38.368,38.368  s38.368-17.212,38.368-38.368S124.97,65.446,103.814,65.446z"></path><path d="M103.814,39.385c-4.142,0-7.5-3.358-7.5-7.5V7.5c0-4.142,3.358-7.5,7.5-7.5s7.5,3.358,7.5,7.5v24.385  C111.314,36.027,107.956,39.385,103.814,39.385z"></path><path d="M103.814,207.628c-4.142,0-7.5-3.358-7.5-7.5v-24.385c0-4.142,3.358-7.5,7.5-7.5s7.5,3.358,7.5,7.5v24.385  C111.314,204.271,107.956,207.628,103.814,207.628z"></path><path d="M200.128,111.314h-24.385c-4.142,0-7.5-3.358-7.5-7.5s3.358-7.5,7.5-7.5h24.385c4.142,0,7.5,3.358,7.5,7.5  S204.271,111.314,200.128,111.314z"></path><path d="M31.885,111.314H7.5c-4.142,0-7.5-3.358-7.5-7.5s3.358-7.5,7.5-7.5h24.385c4.142,0,7.5,3.358,7.5,7.5  S36.027,111.314,31.885,111.314z"></path><path d="M154.676,60.452c-1.919,0-3.839-0.732-5.303-2.197c-2.929-2.929-2.929-7.678,0-10.606l17.243-17.242  c2.929-2.929,7.678-2.93,10.606,0c2.929,2.929,2.929,7.678,0,10.606l-17.243,17.242C158.515,59.72,156.595,60.452,154.676,60.452z"></path><path d="M35.709,179.419c-1.919,0-3.839-0.732-5.303-2.197c-2.929-2.929-2.929-7.678,0-10.606l17.243-17.243  c2.929-2.929,7.678-2.929,10.606,0c2.929,2.929,2.929,7.678,0,10.606l-17.243,17.243C39.548,178.687,37.629,179.419,35.709,179.419z"></path><path d="M171.918,179.419c-1.919,0-3.839-0.732-5.303-2.197l-17.243-17.243c-2.929-2.929-2.929-7.678,0-10.606  c2.929-2.929,7.678-2.929,10.606,0l17.243,17.243c2.929,2.929,2.929,7.678,0,10.606  C175.757,178.687,173.838,179.419,171.918,179.419z"></path><path d="M52.952,60.452c-1.919,0-3.839-0.732-5.303-2.197L30.406,41.013c-2.929-2.929-2.929-7.677,0-10.606  c2.929-2.929,7.678-2.93,10.606,0l17.243,17.242c2.929,2.929,2.929,7.677,0,10.606C56.791,59.72,54.872,60.452,52.952,60.452z"></path></symbol><symbol id="fxchi-moon" xmlns="http://www.w3.org/2000/svg" viewBox="0 0 24 24"><path d="M12 22C17.5228 22 22 17.5228 22 12C22 11.5373 21.3065 11.4608 21.0672 11.8568C19.9289 13.7406 17.8615 15 15.5 15C11.9101 15 9 12.0899 9 8.5C9 6.13845 10.2594 4.07105 12.1432 2.93276C12.5392 2.69347 12.4627 2 12 2C6.47715 2 2 6.47715 2 12C2 17.5228 6.47715 22 12 22Z"></path></symbol><symbol id="fxchi-telegram" xmlns="http://www.w3.org/2000/svg" viewBox="0 0 21 20"><path d="M18.9879 4.56267C18.7249 7.05159 17.5858 13.0913 17.0064 15.879C16.7611 17.0589 16.278 17.4543 15.8106 17.493C14.7952 17.5772 14.0238 16.8886 13.0399 16.3082C11.5004 15.4 10.6305 14.835 9.13618 13.949C7.40881 12.9247 8.52873 12.3621 9.51268 11.4422C9.77028 11.2012 14.2459 7.53794 14.3326 7.20592C14.3436 7.16411 14.3538 7.00917 14.2513 6.92739C14.1488 6.84562 13.9978 6.8739 13.8892 6.89603C13.7348 6.92739 11.2749 8.39012 6.51095 11.2842C5.81263 11.7159 5.18058 11.9255 4.61344 11.9151C3.98891 11.9028 2.78767 11.5972 1.8946 11.3359C0.79928 11.0155 -0.0712394 10.8458 0.0046065 10.3017C0.0435544 10.0182 0.477447 9.72866 1.3056 9.4323C6.40504 7.4328 9.80513 6.11517 11.5065 5.47818C16.3647 3.66013 17.374 3.34403 18.0319 3.33358C18.8561 3.32048 19.055 3.93263 18.9879 4.56267Z"></path></symbol></svg>