<svg viewBox="0 0 28 28" xmlns="http://www.w3.org/2000/svg">
<path fill-rule="evenodd" clip-rule="evenodd" d="M8.16667 2.33325C5.58934 2.33325 3.5 4.42259 3.5 6.99992V20.9999C3.5 23.5772 5.58934 25.6666 8.16667 25.6666H19.8333C22.4107 25.6666 24.5 23.5772 24.5 20.9999V6.99992C24.5 4.42259 22.4107 2.33325 19.8333 2.33325H8.16667ZM9.33333 18.9583C8.85008 18.9583 8.45833 19.35 8.45833 19.8333C8.45833 20.3165 8.85008 20.7083 9.33333 20.7083H14C14.4832 20.7083 14.875 20.3165 14.875 19.8333C14.875 19.35 14.4832 18.9583 14 18.9583H9.33333ZM8.45833 13.9999C8.45833 13.5167 8.85008 13.1249 9.33333 13.1249H18.6667C19.1499 13.1249 19.5417 13.5167 19.5417 13.9999C19.5417 14.4832 19.1499 14.8749 18.6667 14.8749H9.33333C8.85008 14.8749 8.45833 14.4832 8.45833 13.9999ZM9.33333 7.29159C8.85008 7.29159 8.45833 7.68334 8.45833 8.16659C8.45833 8.64983 8.85008 9.04159 9.33333 9.04159H18.6667C19.1499 9.04159 19.5417 8.64983 19.5417 8.16659C19.5417 7.68334 19.1499 7.29159 18.6667 7.29159H9.33333Z"/>
</svg>
