<svg xmlns="http://www.w3.org/2000/svg" viewBox="0 0 38 38" fill="none">
<path d="M2.85927 15.4H35.1407C36.9769 15.4 37.698 12.9675 36.1702 11.9271L21.0589 1.63675C19.8121 0.787749 18.1879 0.787749 16.9411 1.63675L1.82983 11.9271C0.302023 12.9675 1.02308 15.4 2.85927 15.4Z" stroke-width="2"/>
<path d="M4.60011 15.4001H13.6001V29.8001H4.60011V15.4001Z" stroke-width="2"/>
<path d="M24.4001 15.4001H33.4001V29.8001H24.4001V15.4001Z" stroke-width="2"/>
<path d="M32.311 29.8C32.9785 29.8 33.5886 30.1772 33.8871 30.7741L35.725 34.4497C36.3108 35.6214 35.4588 37 34.1488 37H3.8513C2.54134 37 1.68933 35.6214 2.27517 34.4497L4.113 30.7741C4.4115 30.1772 5.02167 29.8 5.68914 29.8H32.311Z" stroke-width="2"/>
</svg>