<svg xmlns="http://www.w3.org/2000/svg" viewBox="0 0 40 40" fill="none">
<path d="M3.85927 16.4H36.1407C37.9769 16.4 38.698 13.9675 37.1702 12.9271L22.0589 2.63675C20.8121 1.78775 19.1879 1.78775 17.9411 2.63675L2.82983 12.9271C1.30202 13.9675 2.02308 16.4 3.85927 16.4Z" stroke-width="2"/>
<path d="M5.60011 16.4001H14.6001V30.8001H5.60011V16.4001Z" stroke-width="2"/>
<path d="M25.4001 16.4001H34.4001V30.8001H25.4001V16.4001Z" stroke-width="2"/>
<path d="M33.311 30.8C33.9785 30.8 34.5886 31.1772 34.8871 31.7741L36.725 35.4497C37.3108 36.6214 36.4588 38 35.1488 38H4.8513C3.54134 38 2.68933 36.6214 3.27517 35.4497L5.113 31.7741C5.4115 31.1772 6.02167 30.8 6.68914 30.8H33.311Z" stroke-width="2"/>
</svg>