<svg xmlns="http://www.w3.org/2000/svg" viewBox="0 0 36 36">
<path d="M26.3413 7.39486C26.3247 8.22702 26.1826 8.98563 25.1618 8.98563C24.1507 8.98563 23.9824 8.22057 23.9824 7.39486C23.9824 6.56915 24.13 5.83245 25.1039 5.80536C26.1578 5.77698 26.3261 6.53302 26.3427 7.39486C26.3537 7.94189 27.2641 7.94447 27.2531 7.39486C27.2283 6.08663 26.7234 4.95385 25.1632 4.95256C23.621 4.95256 23.0733 6.08921 23.0733 7.39486C23.0733 8.70051 23.621 9.83714 25.1632 9.83714C26.7055 9.83714 27.2283 8.70309 27.2531 7.39486C27.2641 6.84654 26.3537 6.84654 26.3427 7.39486H26.3413Z"/>
<path d="M31.0672 14.3997C31.0506 15.2319 30.9086 15.9905 29.8877 15.9905C28.8766 15.9905 28.7083 15.2254 28.7083 14.3997C28.7083 13.574 28.8559 12.8373 29.8298 12.8102C30.8837 12.7818 31.052 13.5379 31.0686 14.3997C31.0796 14.9467 31.99 14.9493 31.979 14.3997C31.9542 13.0915 31.4493 11.9587 29.8891 11.9574C28.3469 11.9574 27.7992 13.094 27.7992 14.3997C27.7992 15.7053 28.3469 16.842 29.8891 16.842C31.4314 16.842 31.9542 15.7079 31.979 14.3997C31.99 13.8514 31.0796 13.8514 31.0686 14.3997H31.0672Z"/>
<path d="M35.0881 21.5035C35.0715 22.3357 34.9294 23.0943 33.9086 23.0943C32.8975 23.0943 32.7292 22.3293 32.7292 21.5035C32.7292 20.6778 32.8768 19.9411 33.8507 19.9141C34.9046 19.8857 35.0729 20.6417 35.0894 21.5035C35.1005 22.0506 36.0109 22.0532 35.9999 21.5035C35.9751 20.1953 35.4702 19.0625 33.91 19.0613C32.3677 19.0613 31.8201 20.1979 31.8201 21.5035C31.8201 22.8092 32.3691 23.9458 33.91 23.9458C35.4509 23.9458 35.9751 22.8118 35.9999 21.5035C36.0109 20.9552 35.1005 20.9552 35.0894 21.5035H35.0881Z"/>
<path d="M25.1738 28.6041C25.1573 29.4362 25.0152 30.1949 23.9944 30.1949C22.9833 30.1949 22.815 29.4298 22.815 28.6041C22.815 27.7784 22.9626 27.0417 23.9365 27.0146C24.9904 26.9862 25.1587 27.7422 25.1752 28.6041C25.1863 29.1511 26.0967 29.1537 26.0857 28.6041C26.0609 27.2958 25.556 26.1631 23.9958 26.1618C22.4536 26.1618 21.9059 27.2984 21.9059 28.6041C21.9059 29.9097 22.4536 31.0464 23.9958 31.0464C25.5381 31.0464 26.0609 29.9123 26.0857 28.6041C26.0967 28.0557 25.1863 28.0557 25.1752 28.6041H25.1738Z"/>
<path d="M32.306 5.37845V9.41152C32.306 9.95984 33.2164 9.95984 33.2164 9.41152V5.37845C33.2164 4.83013 32.306 4.83013 32.306 5.37845Z"/>
<path d="M23.9545 16.4166V12.3835C23.9545 11.8352 23.0441 11.8352 23.0441 12.3835V16.4166C23.0441 16.9649 23.9545 16.9649 23.9545 16.4166Z"/>
<path d="M22.4455 23.5204V19.4873C22.4455 18.939 21.535 18.939 21.535 19.4873V23.5204C21.535 24.0687 22.4455 24.0687 22.4455 23.5204Z"/>
<path d="M28.0645 23.5204V19.4873C28.0645 18.939 27.1541 18.939 27.1541 19.4873V23.5204C27.1541 24.0687 28.0645 24.0687 28.0645 23.5204Z"/>
<path d="M32.1515 30.6226V26.5895C32.1515 26.0412 31.2411 26.0412 31.2411 26.5895V30.6226C31.2411 31.1709 32.1515 31.1709 32.1515 30.6226Z"/>
<path d="M19.241 0C14.1811 0 9.24537 1.90817 5.66152 5.24841C1.6183 9.017 -0.463299 14.3944 0.0871081 19.7125C0.247126 21.2607 0.609925 22.787 1.19068 24.2449C1.47485 24.957 1.80315 25.655 2.17975 26.3285C2.37977 26.6884 2.72878 27.6638 3.25988 27.6638L2.86672 27.4535C6.39263 32.7226 12.5657 35.9544 19.212 35.9996C19.7983 36.0035 19.7983 35.152 19.212 35.1481C15.8751 35.1262 12.603 34.2914 9.74475 32.6709C8.38046 31.8981 7.13205 30.9602 6.02709 29.8855C5.45462 29.3294 4.91938 28.7372 4.43381 28.1128C4.18136 27.7877 3.75372 26.8149 3.25712 26.8149C3.38817 26.8845 3.51923 26.9555 3.65028 27.0252C0.709258 22.5186 0.0939878 16.9438 2.06938 11.9857C3.74957 7.76811 7.24654 4.28724 11.6098 2.40617C13.9935 1.3779 16.6186 0.855383 19.2423 0.855383C19.8286 0.855383 19.8286 0.00387429 19.2423 0.00387429L19.241 0Z"/>
<path d="M27.8311 33.1501C25.1784 34.4531 22.2664 35.1227 19.2702 35.1472C18.6853 35.1524 18.6825 36.0039 19.2702 35.9987C22.4264 35.9729 25.4957 35.2582 28.2905 33.8854C28.8092 33.63 28.3498 32.8959 27.8311 33.1501Z"/>
<path d="M19.241 0.852678C22.2385 0.852678 25.1795 1.54551 27.8309 2.84729C28.3495 3.10145 28.8103 2.36734 28.2902 2.11188C25.4982 0.740435 22.3986 0 19.241 0C18.6547 0 18.6547 0.851387 19.241 0.851387V0.852678Z"/>
<path d="M19.2108 35.1471C16.776 35.1149 14.7813 33.6106 13.3922 31.8508C11.5244 29.4872 10.4677 26.6036 9.87182 23.7421C9.14898 20.2741 9.09656 16.6358 9.70491 13.1498C10.2153 10.2262 11.174 7.28982 12.9177 4.79205C14.322 2.77938 16.4919 0.853158 19.2218 0.853158C19.8081 0.853158 19.8081 0.00164975 19.2218 0.00164975C16.7002 0.00164975 14.5289 1.45439 13.0073 3.23224C10.9561 5.63066 9.76837 8.61869 9.09243 11.5977C8.25648 15.2863 8.17233 19.131 8.78619 22.8544C9.30487 26.0037 10.356 29.2033 12.2859 31.8585C13.8819 34.0544 16.2367 35.96 19.2108 35.9999C19.7971 36.0077 19.7971 35.1562 19.2108 35.1484V35.1471Z"/>
<path d="M19.2409 11.9141C16.2999 11.9063 13.3561 11.6535 10.4868 11.0355C8.03273 10.5078 5.58004 9.73243 3.48739 8.39581C3.00182 8.08617 2.54662 8.82285 3.02805 9.1312C5.17864 10.5052 7.72373 11.3155 10.2454 11.8573C13.1905 12.4908 16.2213 12.7579 19.2409 12.7656C19.8272 12.7669 19.8272 11.9154 19.2409 11.9141Z"/>
<path d="M3.25563 27.6626C3.63222 27.6626 4.0847 27.2369 4.40197 27.0653C4.911 26.7905 5.43794 26.5453 5.97593 26.3221C7.27263 25.7854 8.63692 25.3868 10.0122 25.0694C13.0291 24.374 16.1385 24.094 19.2409 24.085C19.8272 24.0837 19.8272 23.2322 19.2409 23.2335C16.1812 23.2425 13.1092 23.5147 10.1254 24.1675C8.79005 24.4604 7.47129 24.8307 6.2008 25.3145C5.63246 25.53 5.07238 25.7648 4.52749 26.0305C4.27505 26.1531 4.02676 26.2808 3.78259 26.4163C3.6681 26.4808 3.09423 26.8098 3.25563 26.8098C2.66936 26.8098 2.66936 27.6613 3.25563 27.6613V27.6626Z"/>
<path d="M18.7859 0.426089V35.5703C18.7859 36.1186 19.6964 36.1186 19.6964 35.5703V0.426089C19.6964 -0.122233 18.7859 -0.122233 18.7859 0.426089Z"/>
</svg>