<svg xmlns="http://www.w3.org/2000/svg" viewBox="0 0 36 37">
<path d="M19.5483 34.1627C14.9028 34.6789 10.1753 33.2619 6.64695 30.1762C2.53459 26.58 0.407712 21.1087 1.03135 15.6769C1.21661 14.0619 1.64505 12.4611 2.29415 10.9706C2.58405 10.3074 2.9178 9.6625 3.28972 9.04169C3.48487 8.71643 3.68997 8.39825 3.90634 8.08714C4.04917 7.88208 4.30083 7.66006 4.30083 7.38996L3.83418 7.85663C4.1354 7.85663 4.27823 7.56673 4.44086 7.36026C4.72086 7.00248 5.01504 6.65601 5.32333 6.32227C6.17182 5.40166 7.1193 4.57013 8.15163 3.86164C8.58578 3.56326 9.03406 3.28608 9.49508 3.02871C9.74397 2.89012 9.99563 2.75719 10.2516 2.63133C10.3506 2.58183 10.485 2.52102 10.5769 2.47577C10.5514 2.4885 10.1838 2.65113 10.4793 2.51678C11.5668 2.019 12.6925 1.62304 13.8591 1.35435C15.6169 0.9499 17.4298 0.84101 19.223 1.00929C20.5565 1.13374 21.876 1.43071 23.1402 1.87193C23.6069 2.03456 24.0495 2.23961 24.5077 2.42203C24.5954 2.45739 24.7071 2.4885 24.7891 2.52668C24.9885 2.62001 24.6067 2.45456 24.6279 2.47719C24.7863 2.64971 25.1738 2.74305 25.3887 2.85759C26.6091 3.50528 27.7518 4.2972 28.7756 5.2263C29.3102 5.71136 29.8164 6.22894 30.2874 6.77763C30.5575 7.09299 30.9025 7.86087 31.3748 7.86087L30.9082 7.3942C30.9082 7.73218 31.3098 8.09845 31.4922 8.37421C31.7864 8.81684 32.0578 9.27361 32.3096 9.74169C32.8356 10.7203 33.2599 11.7498 33.5781 12.8147C34.2314 15.0009 34.4082 17.2791 34.1706 19.546C34.1084 20.1428 35.0417 20.1386 35.104 19.546C35.3373 17.3201 35.1732 15.0632 34.575 12.9023C34.2979 11.8997 33.926 10.9239 33.4777 9.98493C33.2486 9.50412 32.9955 9.03462 32.7226 8.57785C32.5868 8.35017 32.4454 8.12532 32.2983 7.90471C32.2644 7.8538 31.8415 7.24147 31.8415 7.39561C31.8415 7.14389 31.628 6.92894 31.3748 6.92894C31.5092 7.00531 31.6435 7.08309 31.7779 7.15945C28.968 3.41194 24.8429 0.880606 20.2342 0.200398C16.2533 -0.386476 12.1268 0.40828 8.7088 2.40931C6.64838 3.61558 4.85947 5.2461 3.43542 7.15945C3.56976 7.08309 3.70412 7.00531 3.83846 6.92894C3.58674 6.92894 3.37175 7.14248 3.37175 7.39561C3.37175 7.28814 2.83153 8.02774 2.7891 8.09421C2.62506 8.34875 2.4667 8.60896 2.3168 8.87199C1.95619 9.5027 1.63658 10.1575 1.35658 10.8278C0.785264 12.1924 0.39074 13.6207 0.180031 15.0858C-0.224417 17.9155 0.0513344 20.8414 1.02003 23.5339C2.82308 28.5443 6.87601 32.5435 11.9132 34.2716C14.3555 35.1088 16.9887 35.386 19.5539 35.1003C20.1436 35.0352 20.1507 34.1005 19.5539 34.167L19.5483 34.1627Z"/>
<path d="M25.936 16.7632C25.8144 12.0371 25.0197 6.62235 22.108 2.73201C20.3997 0.449567 17.6406 -0.923577 15.0442 0.814418C13.5014 1.84675 12.4408 3.50131 11.6686 5.15587C10.6306 7.38175 10.0127 9.78864 9.65346 12.2125C8.89688 17.3049 9.12179 22.7508 10.7325 27.6664C11.9091 31.2597 14.8788 36.7919 19.5186 34.7527C20.0673 34.5109 19.5922 33.7076 19.0477 33.9466C15.2719 35.6054 12.7632 30.663 11.7803 27.8559C10.2361 23.4437 9.90663 18.5734 10.3705 13.9448C10.5982 11.6695 11.0492 9.39692 11.8185 7.23892C12.4393 5.49527 13.2892 3.72192 14.603 2.38979C15.3864 1.59503 16.3919 0.947349 17.5402 0.924722C18.8822 0.899268 20.0263 1.73079 20.8833 2.69241C22.3455 4.33425 23.211 6.49225 23.8148 8.57671C24.5855 11.2367 24.932 13.9986 25.0027 16.7618C25.0182 17.3614 25.9516 17.3643 25.936 16.7618V16.7632Z"/>
<path d="M31.1373 6.98566C27.165 9.4081 22.1787 10.1081 17.6011 10.1081C13.0235 10.1081 8.04143 9.4081 4.06907 6.98566C4.12422 7.19919 4.18074 7.41132 4.23589 7.62486C9.24483 0.958533 18.6943 -1.03118 25.9347 3.15471C27.8947 4.28745 29.6087 5.81615 30.9691 7.62486C31.3254 8.0986 32.1372 7.63475 31.7752 7.15394C29.2113 3.74724 25.5274 1.29227 21.3415 0.392871C17.0538 -0.527743 12.4889 0.180748 8.70325 2.40097C6.63717 3.6129 4.8652 5.24059 3.42842 7.15253C3.27427 7.35758 3.40016 7.67152 3.59531 7.79173C7.70484 10.2976 12.8609 11.0415 17.5983 11.0415C22.3357 11.0415 27.4959 10.2976 31.6069 7.79173C32.1188 7.4792 31.6507 6.67172 31.136 6.98566H31.1373Z"/>
<path d="M19.5489 34.1602C13.6575 34.8149 7.80857 32.3189 4.23641 27.5815C4.18126 27.7951 4.12474 28.0072 4.06959 28.2207C7.86659 25.9058 12.5658 25.1959 16.9426 25.1053C17.5422 25.0926 17.545 24.1593 16.9426 24.172C12.4046 24.2653 7.53426 25.0148 3.59866 27.4147C3.4021 27.5349 3.27621 27.8488 3.43177 28.0539C7.19483 33.0444 13.3096 35.7893 19.5503 35.0949C20.14 35.0299 20.1471 34.0951 19.5503 34.1616L19.5489 34.1602Z"/>
<path d="M34.7448 17.1348H31.7921C31.1911 17.1348 31.1911 18.0681 31.7921 18.0681H34.7448C35.3458 18.0681 35.3458 17.1348 34.7448 17.1348Z"/>
<path d="M0.457109 18.0681H22.7824C23.3834 18.0681 23.3834 17.1348 22.7824 17.1348H0.457109C-0.143906 17.1348 -0.143906 18.0681 0.457109 18.0681Z"/>
<path d="M32.8043 21.7668C35.0768 24.0959 35.7585 27.6398 34.35 30.6081C32.9457 33.5693 29.7766 35.3625 26.517 35.0514C23.2658 34.7417 20.4984 32.3249 19.7121 29.1642C18.9301 26.0206 20.2311 22.6125 22.9293 20.808C26.0249 18.7377 30.1556 19.1831 32.8029 21.7668C33.2328 22.1868 33.8932 21.5278 33.4633 21.1064C30.8726 18.5779 26.9851 17.8369 23.6689 19.3316C20.3089 20.8476 18.2116 24.4806 18.5949 28.1475C18.9739 31.7691 21.607 34.8732 25.158 35.757C28.692 36.6366 32.4536 35.1899 34.5112 32.1933C36.8757 28.7513 36.3482 24.062 33.4633 21.1064C33.0433 20.6751 32.3829 21.3355 32.8029 21.7668H32.8043Z"/>
<path d="M25.3378 22.1463V32.4258C25.3378 33.0268 26.2711 33.0268 26.2711 32.4258V22.1463C26.2711 21.5453 25.3378 21.5453 25.3378 22.1463Z"/>
<path d="M28.5508 32.426V30.5975C28.5508 29.9965 27.6174 29.9965 27.6174 30.5975V32.426C27.6174 33.027 28.5508 33.027 28.5508 32.426Z"/>
<path d="M28.5508 23.5406V22.1463C28.5508 21.5453 27.6174 21.5453 27.6174 22.1463V23.5406C27.6174 24.1416 28.5508 24.1416 28.5508 23.5406Z"/>
<path d="M24.2831 24.008C25.6011 24.008 26.9601 23.9147 28.2724 24.008C29.1845 24.0731 29.852 24.9527 29.4546 25.845C29.193 26.4305 28.6316 26.5931 28.0504 26.603C27.3023 26.6157 26.5528 26.603 25.8047 26.603C25.2037 26.603 25.2037 27.5363 25.8047 27.5363C26.6871 27.5363 27.5993 27.6099 28.4775 27.525C30.1957 27.3596 31.0979 25.2977 30.026 23.9345C29.2015 22.8866 27.8793 23.0761 26.6999 23.0761H24.2831C23.6821 23.0761 23.6821 24.0094 24.2831 24.0094V24.008Z"/>
<path d="M24.2824 31.0627H26.8166C28.037 31.0627 29.4723 31.2819 30.3053 30.1703C31.4196 28.6841 30.3053 26.6745 28.5263 26.601C27.6226 26.5628 26.7091 26.601 25.804 26.601C25.203 26.601 25.203 27.5343 25.804 27.5343H28.2251C28.7525 27.5343 29.2404 27.6079 29.577 28.0788C30.212 28.9669 29.5388 30.0544 28.5277 30.1293C27.1334 30.234 25.6852 30.1293 24.2838 30.1293C23.6828 30.1293 23.6828 31.0627 24.2838 31.0627H24.2824Z"/>
</svg>