<svg xmlns="http://www.w3.org/2000/svg" viewBox="0 0 40 40">
<path d="M13.9461 32.3413L7.65886 26.0549C6.99925 25.3954 8.02358 24.3712 8.68319 25.0307L14.9705 31.3171C15.6301 31.9766 14.6057 33.0008 13.9461 32.3413Z"/>
<path d="M23.7206 17.3095L19.8297 21.2C19.1701 21.8595 18.1457 20.8353 18.8054 20.1758L22.6963 16.2854C23.3559 15.6258 24.3802 16.65 23.7206 17.3095Z"/>
<path d="M9.33986 31.6879L5.76553 35.2617C5.10592 35.9212 4.0816 34.8971 4.74122 34.2375L8.31554 30.6637C8.97515 30.0042 9.99947 31.0284 9.33986 31.6879Z"/>
<path d="M5.74852 28.3696C4.84524 29.0058 3.94198 29.6452 3.0387 30.2814C2.27821 30.8184 1.56581 29.5567 2.3232 29.0229C3.22648 28.3867 4.12978 27.7473 5.03306 27.1111C5.79355 26.5741 6.50591 27.8358 5.74852 28.3696Z"/>
<path d="M12.8939 34.9677C12.2576 35.8709 11.6182 36.7741 10.9819 37.6772C10.4495 38.433 9.18458 37.7238 9.72314 36.9618C10.3595 36.0587 10.9989 35.1555 11.6353 34.2524C12.1676 33.4966 13.4325 34.2058 12.8939 34.9677Z"/>
<path d="M25.6161 9.97252C24.4583 11.2233 24.3807 13.1537 25.6161 14.389C26.8515 15.6242 28.8273 15.5948 30.0332 14.389C31.2391 13.1833 31.2391 11.1783 30.0331 9.97252C28.8272 8.76676 26.867 8.81487 25.6161 9.97252C24.9347 10.6041 23.9073 9.58304 24.5918 8.94835C26.4216 7.25531 29.2416 7.14511 31.0575 8.94833C32.8221 10.7003 32.8113 13.6597 31.0575 15.4132C29.3037 17.1668 26.3502 17.1714 24.5917 15.4132C22.8333 13.655 22.9032 10.7733 24.5918 8.94835C25.2265 8.26399 26.2493 9.28972 25.6161 9.97252Z"/>
<path d="M9.53666 23.2973C10.6805 20.3845 12.1736 17.6222 13.8249 14.9686C15.1938 12.7682 16.6558 10.5553 18.3894 8.62016C19.7645 7.08386 21.5587 5.92618 23.3575 4.94698C25.566 3.74432 27.9686 2.73256 30.4456 2.2577C32.3189 1.89923 34.5553 1.7518 36.1865 2.92963C37.7386 4.05005 38.1017 6.04566 37.9776 7.84887C37.8115 10.2837 36.9703 12.6518 35.9584 14.8523C34.9946 16.9457 33.8057 19.0251 32.2583 20.7461C30.5542 22.6424 28.2526 24.1058 26.1309 25.4822C23.1479 27.4158 20.0175 29.1647 16.7039 30.4667C16.4742 30.5567 16.1731 30.4418 16.0086 30.2773L9.72288 23.9925C9.06327 23.3329 10.0876 22.3087 10.7472 22.9683L17.0329 29.2531C16.8017 29.1895 16.5689 29.1274 16.3376 29.0638C21.1784 27.1628 26.0176 24.2827 29.9877 20.9121C33.0561 18.3066 35.0892 14.1322 36.0949 10.2961C36.5295 8.63877 36.9874 6.3871 36.0111 4.82442C35.0458 3.2757 32.8792 3.32845 31.2914 3.57209C29.0596 3.91659 26.8992 4.76079 24.894 5.77258C23.1138 6.67108 21.301 7.72942 19.8778 9.14623C18.1675 10.8501 16.811 12.9668 15.5182 14.9919C13.7613 17.7417 12.1316 20.6219 10.9366 23.6635C10.5982 24.5232 9.19522 24.1632 9.53511 23.2957L9.53666 23.2973Z"/>
<path d="M14.3047 15.6275C12.5555 14.338 10.3718 14.4419 8.78411 15.9363C8.40231 16.2964 8.0407 16.6796 7.66977 17.0505C7.33298 17.3873 6.51349 17.9335 6.34122 18.3789C6.22327 18.6862 6.37385 18.6163 6.74633 18.7188C7.3687 18.8879 7.99105 19.0539 8.61341 19.2231C9.61757 19.4946 10.6233 19.7647 11.6275 20.0362C12.5292 20.2799 12.1614 21.6812 11.2596 21.4376C9.86435 21.0605 8.47062 20.6849 7.07534 20.3078C6.5818 20.1744 6.01068 20.0937 5.55439 19.8485C4.62938 19.3488 4.54711 18.233 5.19586 17.4757C6.09293 16.4267 7.17778 15.3358 8.25644 14.4683C10.2182 12.8948 13.0103 12.887 15.0202 14.369C15.762 14.9152 15.0543 16.1815 14.3047 15.6275Z"/>
<path d="M19.9679 28.3748C20.2395 29.3789 20.5095 30.3845 20.7811 31.3885C20.9441 31.989 21.1039 32.5896 21.2669 33.1901C21.3709 33.5765 21.3026 33.7845 21.6223 33.6604C22.0414 33.499 22.5582 32.7246 22.8748 32.408C23.2706 32.0123 23.6819 31.6259 24.0652 31.2178C25.5598 29.6303 25.6623 27.4453 24.3741 25.698C23.8216 24.95 25.0849 24.2393 25.6328 24.9826C27.1134 26.9906 27.1087 29.7824 25.5334 31.7454C24.6674 32.8255 23.5748 33.9086 22.5256 34.8056C21.821 35.4077 20.7578 35.403 20.2131 34.5728C19.9151 34.1166 19.8328 33.4384 19.6947 32.9279C19.3176 31.5328 18.942 30.1392 18.5648 28.7442C18.3227 27.8441 19.7226 27.4748 19.9663 28.3764L19.9679 28.3748Z"/>
</svg>