<svg xmlns="http://www.w3.org/2000/svg" viewBox="0 0 40 40">
<path d="M35.574 13.0321C37.2483 17.1996 36.9704 21.859 36.3812 26.2219C36.2845 26.9416 37.4453 26.9348 37.542 26.2219C38.1453 21.7647 38.4039 16.9906 36.6943 12.7322C36.4252 12.0622 35.3013 12.3535 35.5757 13.0321H35.574Z"/>
<path d="M5.7115 11.7268C8.29515 7.06061 13.0878 3.81843 18.5224 3.22723C24.1646 2.61375 29.7083 4.88945 33.2663 9.17009C33.7359 9.73559 34.5537 8.9319 34.0877 8.36983C30.2834 3.79273 24.2262 1.39707 18.2182 2.1305C12.4969 2.82795 7.44387 6.21751 4.70896 11.1545C4.35369 11.7954 5.35623 12.366 5.7115 11.7251V11.7268Z"/>
<path d="M3.47789 22.8956C4.06884 20.4434 3.68899 17.9243 4.27114 15.4567C4.43823 14.749 3.31967 14.4457 3.15258 15.1568C2.87118 16.3478 2.69701 17.561 2.66359 18.7846C2.62842 20.0904 2.66887 21.3122 2.35933 22.5957C2.18872 23.3034 3.30729 23.605 3.47789 22.8956Z"/>
<path d="M3.15239 23.9203C4.1162 21.1597 3.60609 18.2722 4.27267 15.4567C4.43975 14.749 3.32119 14.4457 3.1541 15.1568C2.48928 17.9672 2.99052 20.8786 2.03374 23.6204C1.79279 24.311 2.91319 24.6075 3.15239 23.9203Z"/>
<path d="M24.5339 7.76473C28.9766 9.32584 32.1934 13.2209 32.6613 17.8237C33.2223 23.3485 32.0633 29.1902 30.0548 34.3414C29.7892 35.0217 30.9113 35.3165 31.1733 34.6413C32.2972 31.759 33.0939 28.7738 33.5143 25.7167C33.9082 22.8584 34.1633 19.8013 33.7042 16.9378C32.9392 12.1653 29.4638 8.29767 24.8417 6.67315C24.1382 6.42638 23.8339 7.51796 24.5339 7.76301V7.76473Z"/>
<path d="M7.91855 18.1912C8.38287 13.2251 11.8952 9.07815 16.7723 7.60615C17.4829 7.39194 17.1804 6.29865 16.4645 6.51628C11.058 8.14766 7.26963 12.7076 6.75782 18.1912C6.69099 18.9161 7.85172 18.911 7.91855 18.1912Z"/>
<path d="M5.11154 28.8923C6.47987 26.8394 7.39624 24.5619 7.74448 22.1337C7.84648 21.4226 6.72792 21.1141 6.62591 21.8338C6.28999 24.1747 5.42989 26.3407 4.1108 28.3216C3.70277 28.9334 4.70706 29.5006 5.11334 28.8923H5.11154Z"/>
<path d="M28.456 24.2265C27.9495 28.5534 26.6076 32.7312 24.5621 36.6006C24.2209 37.2466 25.2216 37.819 25.5646 37.1712C27.7103 33.1134 29.0857 28.7642 29.6168 24.2265C29.7013 23.505 28.5404 23.5102 28.456 24.2265Z"/>
<path d="M15.5676 12.4896C18.2832 10.7486 21.8025 10.5292 24.6376 12.152C27.0859 13.5538 28.5386 16.0762 28.6635 18.818C28.6969 19.5429 29.8577 19.5463 29.8243 18.818C29.6801 15.6787 28.0303 12.7826 25.2233 11.1753C22.047 9.35882 18.0335 9.55588 14.9802 11.5128C14.3594 11.9121 14.9397 12.8906 15.5658 12.4896H15.5676Z"/>
<path d="M7.67594 32.2004C9.35382 30.0224 10.6255 27.5616 11.3202 24.9192C11.6491 23.6699 11.8495 22.3847 11.9199 21.0961C12.0025 19.5812 11.8847 18.1709 12.3438 16.692C12.5601 15.9946 11.4398 15.6947 11.2252 16.3922C10.8101 17.7271 10.8066 19.0003 10.7855 20.3781C10.7644 21.7147 10.5938 23.041 10.2737 24.34C9.61764 27.0012 8.3584 29.4466 6.67701 31.6297C6.22852 32.2124 7.23625 32.7762 7.67946 32.2004H7.67594Z"/>
<path d="M21.7267 33.2579C21.0865 34.6048 20.3654 35.9037 19.5617 37.1633C19.1659 37.7836 20.1702 38.3508 20.5642 37.7339C21.368 36.4744 22.0907 35.1737 22.7292 33.8285C23.0405 33.1722 22.0415 32.5964 21.7267 33.2579Z"/>
<path d="M15.2881 25.7669C15.603 24.4988 15.8245 23.2119 15.9318 21.9112C16.0303 20.7168 15.8315 19.4367 16.1042 18.2663C16.6793 15.8038 19.4969 14.3678 21.9152 15.2469C22.9353 15.6171 23.783 16.3848 24.2333 17.3512C24.7873 18.5405 24.6501 19.9731 24.6079 21.2446C24.5164 23.9744 24.0627 26.658 23.266 29.2764C23.0531 29.9756 24.1735 30.2737 24.3845 29.5763C25.3378 26.4438 25.8004 23.1999 25.7863 19.9337C25.781 18.5936 25.6667 17.3084 24.877 16.1637C24.2351 15.2349 23.3046 14.5323 22.223 14.1553C19.7149 13.2831 16.7673 14.3764 15.501 16.6589C14.8432 17.8448 14.8572 19.0237 14.8431 20.3364C14.8238 22.0706 14.5881 23.7808 14.1695 25.4653C13.9936 26.173 15.1123 26.4746 15.2881 25.7652V25.7669Z"/>
<path d="M10.7927 34.7395C11.8303 33.4149 12.7326 32.0131 13.4941 30.5223C13.8265 29.8728 12.8258 29.2987 12.4916 29.9516C11.73 31.4425 10.826 32.8442 9.79012 34.1689C9.33635 34.7481 10.3442 35.3119 10.7927 34.7395Z"/>
<path d="M19.1171 29.8799C20.3782 26.624 20.9286 23.07 20.8372 19.5947C20.8178 18.8682 19.657 18.8647 19.6763 19.5947C19.7643 22.9809 19.2261 26.4064 17.9967 29.5801C17.7329 30.2621 18.855 30.5568 19.1153 29.8799H19.1171Z"/>
<path d="M16.1938 36.1801C16.7988 35.2033 17.3405 34.1957 17.8206 33.1538C18.1249 32.4958 17.1241 31.92 16.8181 32.5832C16.3379 33.6251 15.7962 34.631 15.1912 35.6094C14.8043 36.2349 15.8068 36.8039 16.1938 36.1801Z"/>
</svg> 