<svg xmlns="http://www.w3.org/2000/svg" viewBox="0 0 36 36" fill="none">
<path d="M13.6 23.0833C13.6 23.0833 13.6 20.9444 10.6 20.9444M10.6 20.9444C8.2 20.9444 7.6 22.0139 7.6 23.0833C7.6 26.2917 13.6 24.1528 13.6 27.3611C13.6 28.4306 13 29.5 10.6 29.5M10.6 20.9444V19.1111M10.6 29.5C7.6 29.5 7.6 27.3611 7.6 27.3611M10.6 29.5V31.3333M34 5.66667C34 7.69171 30.2392 9.33333 25.6 9.33333C20.9608 9.33333 17.2 7.69171 17.2 5.66667M34 5.66667C34 3.64162 30.2392 2 25.6 2C20.9608 2 17.2 3.64162 17.2 5.66667M34 5.66667V24C34 26.0243 30.2395 27.6667 25.6 27.6667C24.466 27.6667 23.3875 27.5674 22.4005 27.3901M17.2 5.66667V9.33333M17.2 9.33333C17.2 11.3576 20.9605 13 25.6 13C30.2395 13 34 11.3576 34 9.33333M17.2 9.33333V13C17.2 15.0243 20.9605 16.6667 25.6 16.6667C30.2395 16.6667 34 15.0243 34 13M34 16.6667C34 18.691 30.2395 20.3333 25.6 20.3333C24.049 20.3333 22.6015 20.1469 21.355 19.8276M34 20.3333C34 22.3576 30.2395 24 25.6 24C24.505 24 23.4625 23.9053 22.5025 23.7387M20.2 25.2222C20.2 30.6223 15.9019 35 10.6 35C5.29807 35 1 30.6223 1 25.2222C1 19.8221 5.29807 15.4444 10.6 15.4444C15.9019 15.4444 20.2 19.8221 20.2 25.2222Z" stroke-width="1.375" stroke-linecap="round" stroke-linejoin="round"/>
</svg>