<svg viewBox="0 0 14 14" xmlns="http://www.w3.org/2000/svg">
<path fill-rule="evenodd" clip-rule="evenodd" d="M7.42825 3.33325H4.33301V2.99992C4.33301 1.52716 5.52692 0.333252 6.99967 0.333252H10.9997C12.4724 0.333252 13.6663 1.52716 13.6663 2.99992V6.99992C13.6663 8.47268 12.4724 9.66658 10.9997 9.66658H10.6663V6.57135C10.6663 4.783 9.2166 3.33325 7.42825 3.33325ZM6.99967 13.6666H2.99967C1.52691 13.6666 0.333008 12.4727 0.333008 10.9999V6.99992C0.333008 5.52716 1.52692 4.33325 2.99967 4.33325H6.99967C8.47243 4.33325 9.66634 5.52716 9.66634 6.99992V10.9999C9.66634 12.4727 8.47243 13.6666 6.99967 13.6666Z"/>
</svg>
