<svg xmlns="http://www.w3.org/2000/svg" viewBox="0 0 40 40" fill="none">
<path d="M28.7632 24.7251V15.2197H31.1908V18.846H35.3947V15.2197H38V24.7251H35.3947V20.9339H31.1908V24.7251H28.7632Z" fill="#252727"/>
<path d="M17.4539 22.3626H14.7302L16.3289 24.6703H19.2302L17.4539 22.3626Z" fill="#46A0FF"/>
<path d="M2 24.6154V15.1648H9.10522V17.1429H4.36841V19.011H9.10522V20.989H4.36841V24.6154H2Z" fill="#252727"/>
<path d="M12.6578 19.835L9.10522 15.2197H12.0065L14.0789 17.9668L16.092 15.2197H18.8157L11.7697 24.6152H9.10522L12.6578 19.835Z" fill="#252727"/>
<path d="M18.8157 19.5055C18.8157 18.5044 19.1664 17.6405 19.8149 16.8406C20.4634 16.0407 21.3746 15.4581 22.4111 15.1807C23.4476 14.9034 24.5531 14.9462 25.5611 15.3027C26.569 15.6594 27.4247 16.3103 27.9991 17.1576L26.2459 18.1812C25.9107 17.6868 25.4113 17.307 24.8232 17.0988C24.235 16.8907 23.5899 16.8658 22.9851 17.0276C22.3803 17.1895 21.8486 17.5295 21.4702 17.9962C21.0917 18.463 20.8871 18.9213 20.8871 19.5055H18.8157Z" fill="#46A0FF"/>
<path d="M18.8157 20.6044C18.8157 21.6055 19.1664 22.3595 19.8149 23.1594C20.4634 23.9593 21.3746 24.5419 22.4111 24.8193C23.4476 25.0966 24.5531 25.0538 25.5611 24.6973C26.569 24.3406 27.4247 23.6897 27.9991 22.8424L26.2459 21.8187C25.9107 22.3132 25.4113 22.693 24.8232 22.9011C24.235 23.1093 23.5899 23.1342 22.9851 22.9724C22.3803 22.8105 21.8486 22.4705 21.4702 22.0038C21.0917 21.537 20.8871 21.1885 20.8871 20.6044H18.8157Z" fill="#252727"/>
</svg>