<svg xmlns="http://www.w3.org/2000/svg" viewBox="0 0 20 21">
<path fill-rule="evenodd" clip-rule="evenodd" d="M3.75 9.87496C3.75 10.6343 4.36559 11.2499 5.12496 11.2499C5.88433 11.2499 6.49992 10.6343 6.49992 9.87496C6.49992 9.11559 5.88433 8.5 5.12496 8.5C4.36559 8.5 3.75 9.11559 3.75 9.87496ZM10.6251 11.2499C9.8657 11.2499 9.25011 10.6343 9.25011 9.87496C9.25011 9.11559 9.8657 8.5 10.6251 8.5C11.3844 8.5 12 9.11559 12 9.87496C12 10.6343 11.3844 11.2499 10.6251 11.2499ZM16.1252 11.2499C15.3658 11.2499 14.7502 10.6343 14.7502 9.87496C14.7502 9.11559 15.3658 8.5 16.1252 8.5C16.8845 8.5 17.5001 9.11559 17.5001 9.87496C17.5001 10.6343 16.8845 11.2499 16.1252 11.2499Z"/>
</svg>