<svg viewBox="0 0 20 20" xmlns="http://www.w3.org/2000/svg">
<path d="M3.76245 1.66675C2.49541 1.66675 1.66699 2.56702 1.66699 3.75031C1.66699 4.90746 2.47073 5.83341 3.71384 5.83341H3.73788C5.02971 5.83341 5.83366 4.90746 5.83366 3.75031C5.80951 2.56702 5.02971 1.66675 3.76245 1.66675Z"/>
<path d="M1.66699 6.66675H5.00033V18.3334H1.66699V6.66675Z"/>
<path d="M14.2479 6.66675C12.3333 6.66675 11.0495 8.58742 11.0495 8.58742V6.93429H7.50033V18.3334H11.0493V11.9677C11.0493 11.6269 11.0724 11.2867 11.1662 11.043C11.4227 10.3625 12.0066 9.65747 12.9871 9.65747C14.2713 9.65747 14.7849 10.7028 14.7849 12.2352V18.3334H18.3337V11.7974C18.3337 8.29604 16.5827 6.66675 14.2479 6.66675Z"/>
</svg>
