<svg xmlns="http://www.w3.org/2000/svg" viewBox="0 0 32 32">
<path d="M16 32C14.7376 32 13.7143 30.9767 13.7143 29.7143L13.7143 2.28572C13.7143 1.02335 14.7376 1.55092e-07 16 9.99118e-08V9.99118e-08C17.2624 4.4732e-08 18.2857 1.02335 18.2857 2.28572V29.7143C18.2857 30.9767 17.2624 32 16 32V32Z"/>
<path d="M32 16C32 17.2624 30.9767 18.2857 29.7143 18.2857L2.28572 18.2857C1.02335 18.2857 1.55092e-07 17.2624 9.99118e-08 16V16C4.4732e-08 14.7376 1.02335 13.7143 2.28572 13.7143L29.7143 13.7143C30.9767 13.7143 32 14.7376 32 16V16Z"/>
</svg>