<svg viewBox="0 0 20 20" xmlns="http://www.w3.org/2000/svg">
<path d="M7.76831 10.4884C6.80679 10.4884 6.02456 11.2706 6.02456 12.2321V16.5896C6.02456 17.5511 6.80679 18.3334 7.76831 18.3334C8.72983 18.3334 9.51206 17.5512 9.51206 16.5897V12.2321C9.51206 11.2706 8.72983 10.4884 7.76831 10.4884Z"/>
<path d="M5.04787 10.4884H3.35972C2.42886 10.4884 1.67157 11.2457 1.67157 12.1765C1.67157 13.1074 2.42889 13.8647 3.35972 13.8647C4.29055 13.8647 5.04787 13.1073 5.04787 12.1765V10.4884Z"/>
<path d="M1.66699 7.76807C1.66699 8.72959 2.44922 9.51182 3.41074 9.51182H7.76826C8.72981 9.51182 9.51204 8.72959 9.51204 7.76807C9.51204 6.80654 8.72981 6.02432 7.76829 6.02432H3.41074C2.44922 6.02428 1.66699 6.80654 1.66699 7.76807Z"/>
<path d="M7.82393 5.0478H9.51208V3.35965C9.51208 2.42879 8.75476 1.6715 7.82393 1.6715C6.89307 1.6715 6.13578 2.42882 6.13578 3.35965C6.13578 4.29047 6.89307 5.0478 7.82393 5.0478Z"/>
<path d="M12.2324 9.5118C13.1939 9.5118 13.9761 8.72957 13.9761 7.76805V3.4105C13.9761 2.44897 13.1939 1.66675 12.2324 1.66675C11.2708 1.66675 10.4886 2.44897 10.4886 3.4105V7.76802C10.4886 8.72957 11.2708 9.5118 12.2324 9.5118Z"/>
<path d="M14.9526 9.51184H16.6408C17.5717 9.51184 18.3289 8.75451 18.3289 7.82369C18.3289 6.89283 17.5716 6.13554 16.6408 6.13554C15.71 6.13554 14.9526 6.89286 14.9526 7.82369V9.51184Z"/>
<path d="M18.3337 12.2321C18.3337 11.2706 17.5514 10.4884 16.5899 10.4884H12.2324C11.2708 10.4884 10.4886 11.2706 10.4886 12.2321C10.4886 13.1936 11.2708 13.9759 12.2324 13.9759H16.5899C17.5514 13.9759 18.3337 13.1936 18.3337 12.2321Z"/>
<path d="M12.1768 14.9524H10.4886V16.6406C10.4886 17.5714 11.2459 18.3287 12.1768 18.3287C13.1076 18.3287 13.8649 17.5714 13.8649 16.6406C13.8649 15.7097 13.1076 14.9524 12.1768 14.9524Z"/>
</svg>
