<svg viewBox="0 0 28 28" xmlns="http://www.w3.org/2000/svg">
<path fill-rule="evenodd" clip-rule="evenodd" d="M15.1663 3.5H12.833C7.03402 3.5 2.33301 8.20101 2.33301 14V19.8333C2.33301 22.4107 4.42235 24.5 6.99967 24.5H15.1663C20.9653 24.5 25.6663 19.799 25.6663 14C25.6663 8.20101 20.9653 3.5 15.1663 3.5ZM13.9997 8.45833C14.4829 8.45833 14.8747 8.85008 14.8747 9.33333V10.5C14.8747 10.9832 14.4829 11.375 13.9997 11.375C13.5164 11.375 13.1247 10.9832 13.1247 10.5V9.33333C13.1247 8.85008 13.5164 8.45833 13.9997 8.45833ZM14.8747 14C14.8747 13.5168 14.4829 13.125 13.9997 13.125C13.5164 13.125 13.1247 13.5168 13.1247 14V18.6667C13.1247 19.1499 13.5164 19.5417 13.9997 19.5417C14.4829 19.5417 14.8747 19.1499 14.8747 18.6667V14Z"/>
</svg>
