<svg xmlns="http://www.w3.org/2000/svg" viewBox="0 0 21 20">
<path d="M18.9879 4.56267C18.7249 7.05159 17.5858 13.0913 17.0064 15.879C16.7611 17.0589 16.278 17.4543 15.8106 17.493C14.7952 17.5772 14.0238 16.8886 13.0399 16.3082C11.5004 15.4 10.6305 14.835 9.13618 13.949C7.40881 12.9247 8.52873 12.3621 9.51268 11.4422C9.77028 11.2012 14.2459 7.53794 14.3326 7.20592C14.3436 7.16411 14.3538 7.00917 14.2513 6.92739C14.1488 6.84562 13.9978 6.8739 13.8892 6.89603C13.7348 6.92739 11.2749 8.39012 6.51095 11.2842C5.81263 11.7159 5.18058 11.9255 4.61344 11.9151C3.98891 11.9028 2.78767 11.5972 1.8946 11.3359C0.79928 11.0155 -0.0712394 10.8458 0.0046065 10.3017C0.0435544 10.0182 0.477447 9.72866 1.3056 9.4323C6.40504 7.4328 9.80513 6.11517 11.5065 5.47818C16.3647 3.66013 17.374 3.34403 18.0319 3.33358C18.8561 3.32048 19.055 3.93263 18.9879 4.56267Z"/>
</svg>