<svg xmlns="http://www.w3.org/2000/svg" viewBox="0 0 40 40" fill="none">
<ellipse cx="16.6667" cy="29.1666" rx="11.6667" ry="5.83333" stroke="#28303F" stroke-width="2" stroke-linejoin="round"/>
<path d="M23.3333 11.6667C23.3333 15.3486 20.3486 18.3333 16.6667 18.3333C12.9848 18.3333 10 15.3486 10 11.6667C10 7.98477 12.9848 5 16.6667 5C20.3486 5 23.3333 7.98477 23.3333 11.6667Z" stroke="#28303F" stroke-width="2" stroke-linejoin="round"/>
<path d="M24.7352 17.5752C24.3856 18.0518 23.9947 18.4964 23.5679 18.9035C24.0257 19.0209 24.5055 19.0833 24.9999 19.0833C28.1756 19.0833 30.7499 16.5089 30.7499 13.3333C30.7499 10.4373 28.6091 8.04141 25.8237 7.64185C26.0591 8.17677 26.2491 8.73623 26.3886 9.31534C28.0539 9.8908 29.2499 11.4724 29.2499 13.3333C29.2499 15.6805 27.3471 17.5833 24.9999 17.5833C24.911 17.5833 24.8228 17.5806 24.7352 17.5752Z" fill="#28303F"/>
<path d="M31.6296 29.8162C31.5604 30.4202 31.3955 31.0081 31.144 31.5742C31.5735 31.4424 31.9798 31.2968 32.3595 31.1385C33.3186 30.7389 34.1437 30.244 34.7405 29.6561C35.3399 29.0656 35.75 28.3365 35.75 27.5C35.75 26.6634 35.3399 25.9343 34.7405 25.3438C34.1437 24.7559 33.3186 24.261 32.3595 23.8614C30.9671 23.2812 29.2169 22.8707 27.2795 22.6886C28.1997 23.2516 29.0007 23.8873 29.6573 24.5805C30.4461 24.7619 31.1612 24.9871 31.7826 25.246C32.6332 25.6004 33.2726 26.0033 33.6878 26.4124C34.1004 26.8189 34.25 27.1859 34.25 27.5C34.25 27.814 34.1004 28.181 33.6878 28.5875C33.2726 28.9966 32.6332 29.3995 31.7826 29.7539C31.7322 29.7749 31.6812 29.7957 31.6296 29.8162Z" fill="#28303F"/>
</svg>